# Blender 4.0.2
# www.blender.org
mtllib room2.mtl
o Plane
v -5.000000 -5.000000 -0.000000
v 5.000000 -5.000000 -0.000000
v -5.000000 5.000000 0.000000
v 5.000000 5.000000 0.000000
v 4.700000 -5.000000 -0.000000
v 5.000000 -5.000000 -0.000000
v 4.700000 -4.700000 -0.000000
v 5.000000 -4.700000 -0.000000
v -4.688482 -5.000000 -0.000000
v -4.688482 -4.700000 -0.000000
v -5.000000 -5.000000 -0.000000
v -5.000000 -4.700000 -0.000000
v -4.688482 4.692410 0.000000
v -5.000000 4.692410 0.000000
v -4.688482 5.000000 0.000000
v -5.000000 5.000000 0.000000
v 4.709605 4.692410 0.000000
v 4.709605 5.000000 0.000000
v 5.000000 4.692410 0.000000
v 5.000000 5.000000 0.000000
v 4.699999 -4.700000 -0.000000
v 5.000000 -4.700000 -0.000000
v 4.700000 -4.700000 2.000000
v 4.700000 -5.000000 2.000000
v 5.000000 -5.000000 2.000000
v 5.000000 -4.700000 2.000000
v -4.688482 -4.700000 2.000000
v -4.688482 -5.000000 2.000000
v -5.000000 -4.700000 2.000000
v -5.000000 -5.000000 2.000000
v -4.688482 4.692410 2.000000
v -5.000000 4.692410 2.000000
v -4.688482 5.000000 2.000000
v -5.000000 5.000000 2.000000
v 4.709605 4.692410 2.000000
v 4.709605 5.000000 2.000000
v 5.000000 4.692410 2.000000
v 5.000000 5.000000 2.000000
v 4.699999 -4.700000 2.000000
v 5.000000 -4.700000 2.000000
vn -0.0000 -0.0000 1.0000
vn -0.0000 -0.0000 -1.0000
vn -0.0000 1.0000 -0.0000
vn -1.0000 -0.0000 -0.0000
vn -0.0000 -1.0000 -0.0000
vn -1.0000 0.0010 -0.0000
vn 1.0000 -0.0000 -0.0000
vt 0.000000 0.000000
vt 1.000000 0.000000
vt 1.000000 1.000000
vt 0.000000 1.000000
s 0
usemtl Floor
f 1/1/1 2/2/1 4/3/1 3/4/1
usemtl Walls
f 5/1/2 7/4/2 8/3/2 6/2/2
f 5/1/2 9/1/2 10/4/2 7/4/2
f 9/1/2 11/1/2 12/4/2 10/4/2
f 12/4/2 14/4/2 13/4/2 10/4/2
f 14/4/2 16/4/2 15/4/2 13/4/2
f 15/4/2 18/4/2 17/4/2 13/4/2
f 18/4/2 20/4/2 19/4/2 17/4/2
f 19/4/2 22/4/2 21/4/2 17/4/2
f 24/1/1 25/2/1 26/3/1 23/4/1
f 24/1/1 23/4/1 27/4/1 28/1/1
f 28/1/1 27/4/1 29/4/1 30/1/1
f 29/4/1 27/4/1 31/4/1 32/4/1
f 32/4/1 31/4/1 33/4/1 34/4/1
f 33/4/1 31/4/1 35/4/1 36/4/1
f 36/4/1 35/4/1 37/4/1 38/4/1
f 37/4/1 35/4/1 39/4/1 40/4/1
f 20/4/3 18/4/3 36/4/3 38/4/3
f 12/4/4 11/1/4 30/1/4 29/4/4
f 21/4/5 22/4/5 40/4/5 39/4/5
f 16/4/4 14/4/4 32/4/4 34/4/4
f 17/4/6 21/4/6 39/4/6 35/4/6
f 5/1/5 6/2/5 25/2/5 24/1/5
f 11/1/5 9/1/5 28/1/5 30/1/5
f 22/4/7 19/4/7 37/4/7 40/4/7
f 6/2/7 8/3/7 26/3/7 25/2/7
f 13/4/5 17/4/5 35/4/5 31/4/5
f 8/3/3 7/4/3 23/4/3 26/3/3
f 18/4/3 15/4/3 33/4/3 36/4/3
f 10/4/7 13/4/7 31/4/7 27/4/7
f 19/4/7 20/4/7 38/4/7 37/4/7
f 14/4/4 12/4/4 29/4/4 32/4/4
f 7/4/3 10/4/3 27/4/3 23/4/3
f 15/4/3 16/4/3 34/4/3 33/4/3
f 9/1/5 5/1/5 24/1/5 28/1/5
