# Blender v2.82 (sub 7) OBJ File: 'join_components_done.blend'
# www.blender.org
mtllib arena_rooms1.mtl
o Plane.003
v 8.000000 -0.250000 -0.976757
v 8.500000 -0.250000 -0.976757
v 8.000000 0.250000 -0.976757
v 8.500000 0.250000 -0.976757
v 8.000000 16.258791 -0.976756
v 8.500000 16.258791 -0.976756
v 8.000000 16.750000 -0.976756
v 8.500000 16.750000 -0.976756
v 4.500000 16.258791 -0.976756
v 4.500000 16.750000 -0.976756
v 4.001085 16.258791 -0.976756
v 4.001085 16.750000 -0.976756
v 4.500000 46.750000 -0.976755
v 4.001085 46.750000 -0.976755
v 4.500000 47.250000 -0.976755
v 4.001085 47.250000 -0.976755
v 8.000000 46.750000 -0.976755
v 8.000000 47.250000 -0.976755
v 8.500000 46.750000 -0.976755
v 8.500000 47.250000 -0.976755
v 8.000000 63.250000 -0.976754
v 8.500000 63.250000 -0.976754
v 8.000000 63.750000 -0.976754
v 8.500000 63.750000 -0.976754
v -8.000000 63.250000 -0.976754
v -8.000000 63.750000 -0.976754
v -8.500000 63.250000 -0.976754
v -8.500000 63.750000 -0.976754
v -8.000000 47.250000 -0.976755
v -8.500000 47.250000 -0.976755
v -8.000000 46.750000 -0.976755
v -8.500000 46.750000 -0.976755
v -4.500000 47.250000 -0.976755
v -4.500000 46.750000 -0.976755
v -4.000200 47.250000 -0.976755
v -4.000200 46.750000 -0.976755
v -4.500000 16.750000 -0.976756
v -4.000200 16.750000 -0.976756
v -4.500000 16.250000 -0.976756
v -4.000200 16.250000 -0.976756
v -8.000000 16.750000 -0.976756
v -8.000000 16.250000 -0.976756
v -8.500000 16.750000 -0.976756
v -8.500000 16.250000 -0.976756
v -8.000000 0.250000 -0.976757
v -8.500000 0.250000 -0.976757
v -8.000000 -0.250000 -0.976757
v -8.500000 -0.250000 -0.976757
v 8.000000 0.250000 -0.976757
v 8.000000 -0.250000 -0.976757
v 8.000000 0.250000 1.023243
v 8.000000 -0.250000 1.023243
v 8.500000 -0.250000 1.023243
v 8.500000 0.250000 1.023243
v 8.500000 16.258791 1.023244
v 8.000000 16.258791 1.023244
v 8.500000 16.750000 1.023244
v 8.000000 16.750000 1.023244
v 4.500000 16.750000 1.023244
v 4.500000 16.258791 1.023244
v 4.001085 16.750000 1.023244
v 4.001085 16.258791 1.023244
v 4.500000 46.750000 1.023245
v 4.001085 46.750000 1.023245
v 4.500000 47.250000 1.023245
v 4.001085 47.250000 1.023245
v 8.000000 46.750000 1.023245
v 8.000000 47.250000 1.023245
v 8.500000 46.750000 1.023245
v 8.500000 47.250000 1.023245
v 8.500000 63.250000 1.023246
v 8.000000 63.250000 1.023246
v 8.500000 63.750000 1.023246
v 8.000000 63.750000 1.023246
v -8.000000 63.750000 1.023246
v -8.000000 63.250000 1.023246
v -8.500000 63.750000 1.023246
v -8.500000 63.250000 1.023246
v -8.500000 47.250000 1.023245
v -8.000000 47.250000 1.023245
v -8.500000 46.750000 1.023245
v -8.000000 46.750000 1.023245
v -4.500000 46.750000 1.023245
v -4.500000 47.250000 1.023245
v -4.000200 46.750000 1.023245
v -4.000200 47.250000 1.023245
v -4.500000 16.750000 1.023244
v -4.000200 16.750000 1.023244
v -4.500000 16.250000 1.023244
v -4.000200 16.250000 1.023244
v -8.000000 16.750000 1.023244
v -8.000000 16.250000 1.023244
v -8.500000 16.750000 1.023244
v -8.500000 16.250000 1.023244
v -8.500000 0.250000 1.023243
v -8.000000 0.250000 1.023243
v -8.500000 -0.250000 1.023243
v -8.000000 -0.250000 1.023243
v 8.000000 -0.250000 1.023243
v 8.000000 0.250000 1.023243
v -8.500000 -0.250000 -0.976757
v 8.500000 -0.250000 -0.976757
v -8.500000 16.750000 -0.976756
v 8.500000 16.750000 -0.976756
v -8.500000 46.750000 -0.976755
v 8.500000 46.750000 -0.976755
v -8.500000 63.750000 -0.976754
v 8.500000 63.750000 -0.976754
v -4.500000 16.750000 -0.976756
v 4.500000 16.750000 -0.976756
v -4.500000 46.750000 -0.976755
v 4.500000 46.750000 -0.976755
vt 0.000000 0.000000
vt 0.000000 1.000000
vt 1.000000 1.000000
vt 1.000000 0.000000
vt 0.000000 1.000000
vt 1.000000 1.000000
vt 0.000000 1.000000
vt 1.000000 1.000000
vt 0.000000 1.000000
vt 0.000000 1.000000
vt 0.000000 1.000000
vt 0.000000 1.000000
vt 0.000000 1.000000
vt 0.000000 1.000000
vt 0.000000 1.000000
vt 0.000000 1.000000
vt 0.000000 1.000000
vt 0.000000 1.000000
vt 0.000000 1.000000
vt 0.000000 1.000000
vt 0.000000 1.000000
vt 0.000000 1.000000
vt 0.000000 1.000000
vt 0.000000 1.000000
vt 0.000000 1.000000
vt 0.000000 1.000000
vt 0.000000 1.000000
vt 0.000000 1.000000
vt 0.000000 1.000000
vt 0.000000 1.000000
vt 0.000000 1.000000
vt 0.000000 1.000000
vt 0.000000 1.000000
vt 0.000000 1.000000
vt 0.000000 1.000000
vt 0.000000 1.000000
vt 0.000000 1.000000
vt 0.000000 1.000000
vt 0.000000 1.000000
vt 0.000000 1.000000
vt 0.000000 1.000000
vt 0.000000 1.000000
vt 0.000000 1.000000
vt 0.000000 1.000000
vt 0.000000 1.000000
vt 0.000000 1.000000
vt 0.000000 1.000000
vt 0.000000 1.000000
vt 0.000000 1.000000
vt 0.000000 1.000000
vt 0.000000 0.000000
vt 1.000000 0.000000
vt 1.000000 1.000000
vt 0.000000 1.000000
vt 1.000000 1.000000
vt 0.000000 1.000000
vt 1.000000 1.000000
vt 0.000000 1.000000
vt 0.000000 1.000000
vt 0.000000 1.000000
vt 0.000000 1.000000
vt 0.000000 1.000000
vt 0.000000 1.000000
vt 0.000000 1.000000
vt 0.000000 1.000000
vt 0.000000 1.000000
vt 0.000000 1.000000
vt 0.000000 1.000000
vt 0.000000 1.000000
vt 0.000000 1.000000
vt 0.000000 1.000000
vt 0.000000 1.000000
vt 0.000000 1.000000
vt 0.000000 1.000000
vt 0.000000 1.000000
vt 0.000000 1.000000
vt 0.000000 1.000000
vt 0.000000 1.000000
vt 0.000000 1.000000
vt 0.000000 1.000000
vt 0.000000 1.000000
vt 0.000000 1.000000
vt 0.000000 1.000000
vt 0.000000 1.000000
vt 0.000000 1.000000
vt 0.000000 1.000000
vt 0.000000 1.000000
vt 0.000000 1.000000
vt 0.000000 1.000000
vt 0.000000 1.000000
vt 0.000000 1.000000
vt 0.000000 1.000000
vt 0.000000 1.000000
vt 0.000000 1.000000
vt 0.000000 1.000000
vt 0.000000 1.000000
vt 0.000000 1.000000
vt 0.000000 1.000000
vt 0.000000 1.000000
vt 0.000000 1.000000
vt 0.000000 0.000000
vt 1.000000 0.000000
vt 1.000000 1.000000
vt 0.000000 1.000000
vt 0.000000 0.000000
vt 1.000000 0.000000
vt 1.000000 1.000000
vt 0.000000 1.000000
vt 0.000000 0.000000
vt 1.000000 0.000000
vt 1.000000 1.000000
vt 0.000000 1.000000
vn 0.0000 0.0000 -1.0000
vn 0.0000 0.0000 1.0000
vn 0.0000 1.0000 0.0000
vn -1.0000 0.0000 0.0000
vn 1.0000 0.0000 0.0000
vn 0.0000 -1.0000 0.0000
usemtl walls
s off
f 1/1/1 3/2/1 4/3/1 2/4/1
f 3/2/1 5/5/1 6/6/1 4/3/1
f 5/5/1 7/7/1 8/8/1 6/6/1
f 5/5/1 9/9/1 10/10/1 7/7/1
f 9/9/1 11/11/1 12/12/1 10/10/1
f 12/12/1 14/13/1 13/14/1 10/10/1
f 14/13/1 16/15/1 15/16/1 13/14/1
f 15/16/1 18/17/1 17/18/1 13/14/1
f 18/17/1 20/19/1 19/20/1 17/18/1
f 18/17/1 21/21/1 22/22/1 20/19/1
f 21/21/1 23/23/1 24/24/1 22/22/1
f 21/21/1 25/25/1 26/26/1 23/23/1
f 25/25/1 27/27/1 28/28/1 26/26/1
f 25/25/1 29/29/1 30/30/1 27/27/1
f 29/29/1 31/31/1 32/32/1 30/30/1
f 29/29/1 33/33/1 34/34/1 31/31/1
f 33/33/1 35/35/1 36/36/1 34/34/1
f 36/36/1 38/37/1 37/38/1 34/34/1
f 38/37/1 40/39/1 39/40/1 37/38/1
f 39/40/1 42/41/1 41/42/1 37/38/1
f 42/41/1 44/43/1 43/44/1 41/42/1
f 42/41/1 45/45/1 46/46/1 44/43/1
f 45/45/1 47/47/1 48/48/1 46/46/1
f 45/45/1 49/49/1 50/50/1 47/47/1
f 52/51/2 53/52/2 54/53/2 51/54/2
f 51/54/2 54/53/2 55/55/2 56/56/2
f 56/56/2 55/55/2 57/57/2 58/58/2
f 56/56/2 58/58/2 59/59/2 60/60/2
f 60/60/2 59/59/2 61/61/2 62/62/2
f 61/61/2 59/59/2 63/63/2 64/64/2
f 64/64/2 63/63/2 65/65/2 66/66/2
f 65/65/2 63/63/2 67/67/2 68/68/2
f 68/68/2 67/67/2 69/69/2 70/70/2
f 68/68/2 70/70/2 71/71/2 72/72/2
f 72/72/2 71/71/2 73/73/2 74/74/2
f 72/72/2 74/74/2 75/75/2 76/76/2
f 76/76/2 75/75/2 77/77/2 78/78/2
f 76/76/2 78/78/2 79/79/2 80/80/2
f 80/80/2 79/79/2 81/81/2 82/82/2
f 80/80/2 82/82/2 83/83/2 84/84/2
f 84/84/2 83/83/2 85/85/2 86/86/2
f 85/85/2 83/83/2 87/87/2 88/88/2
f 88/88/2 87/87/2 89/89/2 90/90/2
f 89/89/2 87/87/2 91/91/2 92/92/2
f 92/92/2 91/91/2 93/93/2 94/94/2
f 92/92/2 94/94/2 95/95/2 96/96/2
f 96/96/2 95/95/2 97/97/2 98/98/2
f 96/96/2 98/98/2 99/99/2 100/100/2
f 26/26/3 28/28/3 77/77/3 75/75/3
f 44/43/4 46/46/4 95/95/4 94/94/4
f 19/20/5 20/19/5 70/70/5 69/69/5
f 9/9/6 5/5/6 56/56/6 60/60/6
f 45/45/5 42/41/5 92/92/5 96/96/5
f 17/18/6 19/20/6 69/69/6 67/67/6
f 34/34/4 37/38/4 87/87/4 83/83/4
f 12/12/4 11/11/4 62/62/4 61/61/4
f 48/48/6 47/47/6 98/98/6 97/97/6
f 3/2/4 1/1/4 52/51/4 51/54/4
f 38/37/5 36/36/5 85/85/5 88/88/5
f 27/27/4 30/30/4 79/79/4 78/78/4
f 46/46/4 48/48/4 97/97/4 95/95/4
f 1/1/6 2/4/6 53/52/6 52/51/6
f 39/40/6 40/39/6 90/90/6 89/89/6
f 11/11/6 9/9/6 60/60/6 62/62/6
f 29/29/5 25/25/5 76/76/5 80/80/5
f 2/4/5 4/3/5 54/53/5 53/52/5
f 20/19/5 22/22/5 71/71/5 70/70/5
f 32/32/6 31/31/6 82/82/6 81/81/6
f 50/50/5 49/49/5 100/100/5 99/99/5
f 21/21/4 18/17/4 68/68/4 72/72/4
f 40/39/5 38/37/5 88/88/5 90/90/5
f 10/10/5 13/14/5 63/63/5 59/59/5
f 30/30/4 32/32/4 81/81/4 79/79/4
f 47/47/6 50/50/6 99/99/6 98/98/6
f 24/24/3 23/23/3 74/74/3 73/73/3
f 14/13/4 12/12/4 61/61/4 64/64/4
f 49/49/3 45/45/3 96/96/3 100/100/3
f 4/3/5 6/6/5 55/55/5 54/53/5
f 22/22/5 24/24/5 73/73/5 71/71/5
f 37/38/3 41/42/3 91/91/3 87/87/3
f 15/16/3 16/15/3 66/66/3 65/65/3
f 5/5/4 3/2/4 51/54/4 56/56/4
f 42/41/6 39/40/6 89/89/6 92/92/6
f 31/31/6 34/34/6 83/83/6 82/82/6
f 8/8/3 7/7/3 58/58/3 57/57/3
f 43/44/4 44/43/4 94/94/4 93/93/4
f 16/15/4 14/13/4 64/64/4 66/66/4
f 33/33/3 29/29/3 80/80/3 84/84/3
f 6/6/5 8/8/5 57/57/5 55/55/5
f 23/23/3 26/26/3 75/75/3 74/74/3
f 41/42/3 43/44/3 93/93/3 91/91/3
f 36/36/5 35/35/5 86/86/5 85/85/5
f 25/25/6 21/21/6 72/72/6 76/76/6
f 13/14/6 17/18/6 67/67/6 63/63/6
f 28/28/4 27/27/4 78/78/4 77/77/4
f 18/17/3 15/16/3 65/65/3 68/68/3
f 35/35/3 33/33/3 84/84/3 86/86/3
f 7/7/3 10/10/3 59/59/3 58/58/3
usemtl room1_floor_color
f 101/101/2 102/102/2 104/103/2 103/104/2
usemtl room2_floor_color
f 105/105/2 106/106/2 108/107/2 107/108/2
usemtl aisle_floor_color
f 109/109/2 110/110/2 112/111/2 111/112/2
