# The Great Editor v0.0.1
mtllib floor_40.mtl
o floor_40
v 151.96882598177112 -7.269592469586164 0
v 151.96882598177112 -7.269592469586164 -0.1
v 151.44349235817538 -6.9493171636578515 0
v 151.44349235817538 -6.9493171636578515 -0.1
v 151.2520662714782 -6.438190624145591 0
v 151.2520662714782 -6.438190624145591 -0.1
v 151.18948940401222 -5.9900515614659 0
v 151.18948940401222 -5.9900515614659 -0.1
v 151.71079905581553 -5.463486109770428 0
v 151.71079905581553 -5.463486109770428 -0.1
v 152.52980049838555 -5.397460123625207 0
v 152.52980049838555 -5.397460123625207 -0.1
v 153.0869152869542 -5.750173569512925 0
v 153.0869152869542 -5.750173569512925 -0.1
v 153.84177954646523 -6.060594250643443 0
v 153.84177954646523 -6.060594250643443 -0.1
v 154.8357005791961 -6.036861029255421 0
v 154.8357005791961 -6.036861029255421 -0.1
v 155.63351457845084 -5.679630880335382 0
v 155.63351457845084 -5.679630880335382 -0.1
v 156.55582533765107 -5.721513035726007 0
v 156.55582533765107 -5.721513035726007 -0.1
v 157.32645699683857 -5.848966183110812 0
v 157.32645699683857 -5.848966183110812 -0.1
v 157.9319415687897 -6.323548488997918 0
v 157.9319415687897 -6.323548488997918 -0.1
v 157.98934475823685 -7.269592469586164 0
v 157.98934475823685 -7.269592469586164 -0.1
v 157.42524961043645 -9.277143784643474 0
v 157.42524961043645 -9.277143784643474 -0.1
v 157.12920025713606 -9.82120119535503 0
v 157.12920025713606 -9.82120119535503 -0.1
v 156.52231961333857 -9.883778062821024 0
v 156.52231961333857 -9.883778062821024 -0.1
v 154.2650356815305 -9.841485298063823 0
v 154.2650356815305 -9.841485298063823 -0.1
v 153.79948678170803 -9.714524881918909 0
v 153.79948678170803 -9.714524881918909 -0.1
v 153.5455659494182 -9.291268746853646 0
v 153.5455659494182 -9.291268746853646 -0.1
v 153.17289688831494 -8.445084964216383 0
v 153.17289688831494 -8.445084964216383 -0.1
v 152.6849287170775 -7.739411706821002 0
v 152.6849287170775 -7.739411706821002 -0.1
vt 151.96882598177112 -7.269592469586164 0
vt 151.44349235817538 -6.9493171636578515 0
vt 151.2520662714782 -6.438190624145591 0
vt 151.18948940401222 -5.9900515614659 0
vt 151.71079905581553 -5.463486109770428 0
vt 152.52980049838555 -5.397460123625207 0
vt 153.0869152869542 -5.750173569512925 0
vt 153.84177954646523 -6.060594250643443 0
vt 154.8357005791961 -6.036861029255421 0
vt 155.63351457845084 -5.679630880335382 0
vt 156.55582533765107 -5.721513035726007 0
vt 157.32645699683857 -5.848966183110812 0
vt 157.9319415687897 -6.323548488997918 0
vt 157.98934475823685 -7.269592469586164 0
vt 157.42524961043645 -9.277143784643474 0
vt 157.12920025713606 -9.82120119535503 0
vt 156.52231961333857 -9.883778062821024 0
vt 154.2650356815305 -9.841485298063823 0
vt 153.79948678170803 -9.714524881918909 0
vt 153.5455659494182 -9.291268746853646 0
vt 153.17289688831494 -8.445084964216383 0
vt 152.6849287170775 -7.739411706821002 0
vn 0 0 1
vn 0 0 -1
usemtl floor_40
s off
f 7/4/1 5/3/1 9/5/1
f 10/5/2 6/3/2 8/4/2
f 9/5/1 5/3/1 11/6/1
f 12/6/2 6/3/2 10/5/2
f 11/6/1 5/3/1 1/1/1
f 2/1/2 6/3/2 12/6/2
f 11/6/1 1/1/1 13/7/1
f 14/7/2 2/1/2 12/6/2
f 19/10/1 17/9/1 21/11/1
f 22/11/2 18/9/2 20/10/2
f 21/11/1 17/9/1 27/14/1
f 28/14/2 18/9/2 22/11/2
f 21/11/1 27/14/1 23/12/1
f 24/12/2 28/14/2 22/11/2
f 23/12/1 27/14/1 25/13/1
f 26/13/2 28/14/2 24/12/2
f 33/17/1 31/16/1 29/15/1
f 30/15/2 32/16/2 34/17/2
f 33/17/1 29/15/1 17/9/1
f 18/9/2 30/15/2 34/17/2
f 33/17/1 17/9/1 35/18/1
f 36/18/2 18/9/2 34/17/2
f 35/18/1 17/9/1 41/21/1
f 42/21/2 18/9/2 36/18/2
f 35/18/1 41/21/1 39/20/1
f 40/20/2 42/21/2 36/18/2
f 35/18/1 39/20/1 37/19/1
f 38/19/2 40/20/2 36/18/2
f 3/2/1 1/1/1 5/3/1
f 6/3/2 2/1/2 4/2/2
f 1/1/1 43/22/1 13/7/1
f 14/7/2 44/22/2 2/1/2
f 13/7/1 43/22/1 15/8/1
f 16/8/2 44/22/2 14/7/2
f 17/9/1 15/8/1 41/21/1
f 42/21/2 16/8/2 18/9/2
f 41/21/1 15/8/1 43/22/1
f 44/22/2 16/8/2 42/21/2
f 17/9/1 29/15/1 27/14/1
f 28/14/2 30/15/2 18/9/2
