# The Great Editor v0.0.1
mtllib floor_5.mtl
o floor_5
v 0.07226724851715759 -47.99637522454352 0
v 0.07226724851715759 -47.99637522454352 -0.1
v 2.3901571228316723 -49.21916991820315 0
v 2.3901571228316723 -49.21916991820315 -0.1
v 4.817597576148333 -51.75607882864865 0
v 4.817597576148333 -51.75607882864865 -0.1
v 4.197084701380557 -51.90209151940263 0
v 4.197084701380557 -51.90209151940263 -0.1
v 4.1605404677554025 -56.775203481911866 0
v 4.1605404677554025 -56.775203481911866 -0.1
v 6.387192940817006 -56.81166559366371 0
v 6.387192940817006 -56.81166559366371 -0.1
v 8.5297526156041 -56.76346005402784 0
v 8.5297526156041 -56.76346005402784 -0.1
v 8.5297526156041 -57.39440240670661 0
v 8.5297526156041 -57.39440240670661 -0.1
v 15.244447587201133 -57.416903799994905 0
v 15.244447587201133 -57.416903799994905 -0.1
v 15.154277770301315 -56.4705313319134 0
v 15.154277770301315 -56.4705313319134 -0.1
v 21.778802924998534 -56.673290237128015 0
v 21.778802924998534 -56.673290237128015 -0.1
v 21.778802924998534 -58.90404880385536 0
v 21.778802924998534 -58.90404880385536 -0.1
v 24.03198076314086 -58.97163510559358 0
v 24.03198076314086 -58.97163510559358 -0.1
v 24.009479369852567 -58.47594747826452 0
v 24.009479369852567 -58.47594747826452 -0.1
v 24.888183414322555 -58.49844887155282 0
v 24.888183414322555 -58.49844887155282 -0.1
v 24.802612422328373 -63.34561032209454 0
v 24.802612422328373 -63.34561032209454 -0.1
v 23.89007416605263 -63.4003034897223 0
v 23.89007416605263 -63.4003034897223 -0.1
v 23.963080511429617 -64.22160434474513 0
v 23.963080511429617 -64.22160434474513 -0.1
v 0.0228298807815566 -64.29370734951564 0
v 0.0228298807815566 -64.29370734951564 -0.1
vt 0.07226724851715759 -47.99637522454352 0
vt 2.3901571228316723 -49.21916991820315 0
vt 4.817597576148333 -51.75607882864865 0
vt 4.197084701380557 -51.90209151940263 0
vt 4.1605404677554025 -56.775203481911866 0
vt 6.387192940817006 -56.81166559366371 0
vt 8.5297526156041 -56.76346005402784 0
vt 8.5297526156041 -57.39440240670661 0
vt 15.244447587201133 -57.416903799994905 0
vt 15.154277770301315 -56.4705313319134 0
vt 21.778802924998534 -56.673290237128015 0
vt 21.778802924998534 -58.90404880385536 0
vt 24.03198076314086 -58.97163510559358 0
vt 24.009479369852567 -58.47594747826452 0
vt 24.888183414322555 -58.49844887155282 0
vt 24.802612422328373 -63.34561032209454 0
vt 23.89007416605263 -63.4003034897223 0
vt 23.963080511429617 -64.22160434474513 0
vt 0.0228298807815566 -64.29370734951564 0
vn 0 0 1
vn 0 0 -1
usemtl floor_5
s off
f 1/1/1 37/19/1 9/5/1
f 10/5/2 38/19/2 2/1/2
f 1/1/1 9/5/1 7/4/1
f 8/4/2 10/5/2 2/1/2
f 1/1/1 7/4/1 3/2/1
f 4/2/2 8/4/2 2/1/2
f 21/11/1 19/10/1 17/9/1
f 18/9/2 20/10/2 22/11/2
f 21/11/1 17/9/1 23/12/1
f 24/12/2 18/9/2 22/11/2
f 29/15/1 27/14/1 25/13/1
f 26/13/2 28/14/2 30/15/2
f 29/15/1 25/13/1 31/16/1
f 32/16/2 26/13/2 30/15/2
f 37/19/1 35/18/1 17/9/1
f 18/9/2 36/18/2 38/19/2
f 37/19/1 17/9/1 15/8/1
f 16/8/2 18/9/2 38/19/2
f 37/19/1 15/8/1 11/6/1
f 12/6/2 16/8/2 38/19/2
f 37/19/1 11/6/1 9/5/1
f 10/5/2 12/6/2 38/19/2
f 7/4/1 5/3/1 3/2/1
f 4/2/2 6/3/2 8/4/2
f 15/8/1 13/7/1 11/6/1
f 12/6/2 14/7/2 16/8/2
f 17/9/1 35/18/1 33/17/1
f 34/17/2 36/18/2 18/9/2
f 17/9/1 33/17/1 23/12/1
f 24/12/2 34/17/2 18/9/2
f 23/12/1 33/17/1 25/13/1
f 26/13/2 34/17/2 24/12/2
f 25/13/1 33/17/1 31/16/1
f 32/16/2 34/17/2 26/13/2
