# The Great Editor v0.0.1
mtllib floor_59.mtl
o floor_59
v 64.35570936386844 -24.98319842174795 0
v 64.35570936386844 -24.98319842174795 -0.1
v 61.70900350880086 -26.976953262088355 0
v 61.70900350880086 -26.976953262088355 -0.1
v 59.65989852584618 -28.378198786461375 0
v 59.65989852584618 -28.378198786461375 -0.1
v 62.11148280991743 -28.373189352189158 0
v 62.11148280991743 -28.373189352189158 -0.1
v 62.32524604615626 -27.415976796830087 0
v 62.32524604615626 -27.415976796830087 -0.1
v 62.87349167240687 -26.62604649741356 0
v 62.87349167240687 -26.62604649741356 -0.1
v 63.93450627563606 -26.10810384241616 0
v 63.93450627563606 -26.10810384241616 -0.1
v 65.2897635509527 -25.789635217700777 0
v 65.2897635509527 -25.789635217700777 -0.1
v 66.4700191142352 -25.789635217700777 0
v 66.4700191142352 -25.789635217700777 -0.1
v 67.56667461048305 -26.161400938197563 0
v 67.56667461048305 -26.161400938197563 -0.1
v 68.41236566188043 -26.93277169424491 0
v 68.41236566188043 -26.93277169424491 -0.1
v 68.75620994545014 -27.81558183238064 0
v 68.75620994545014 -27.81558183238064 -0.1
v 68.99781249674272 -29.070157691013158 0
v 68.99781249674272 -29.070157691013158 -0.1
v 68.26364294930706 -29.999530931318468 0
v 68.26364294930706 -29.999530931318468 -0.1
v 67.2878708505788 -31.105466199250923 0
v 67.2878708505788 -31.105466199250923 -0.1
v 66.09833551561172 -31.570111758466922 0
v 66.09833551561172 -31.570111758466922 -0.1
v 66.52380894125649 -33.61026545723027 0
v 66.52380894125649 -33.61026545723027 -0.1
v 67.78848579030674 -32.20277867048531 0
v 67.78848579030674 -32.20277867048531 -0.1
v 69.85212634483817 -30.388049513971502 0
v 69.85212634483817 -30.388049513971502 -0.1
v 72.33672362198203 -28.05472072747378 0
v 72.33672362198203 -28.05472072747378 -0.1
v 72.36907964006812 -25.49145069569419 0
v 72.36907964006812 -25.49145069569419 -0.1
v 69.10112181337293 -25.251408459994586 0
v 69.10112181337293 -25.251408459994586 -0.1
v 66.23285114410162 -25.064827563823012 0
v 66.23285114410162 -25.064827563823012 -0.1
vt 64.35570936386844 -24.98319842174795 0
vt 61.70900350880086 -26.976953262088355 0
vt 59.65989852584618 -28.378198786461375 0
vt 62.11148280991743 -28.373189352189158 0
vt 62.32524604615626 -27.415976796830087 0
vt 62.87349167240687 -26.62604649741356 0
vt 63.93450627563606 -26.10810384241616 0
vt 65.2897635509527 -25.789635217700777 0
vt 66.4700191142352 -25.789635217700777 0
vt 67.56667461048305 -26.161400938197563 0
vt 68.41236566188043 -26.93277169424491 0
vt 68.75620994545014 -27.81558183238064 0
vt 68.99781249674272 -29.070157691013158 0
vt 68.26364294930706 -29.999530931318468 0
vt 67.2878708505788 -31.105466199250923 0
vt 66.09833551561172 -31.570111758466922 0
vt 66.52380894125649 -33.61026545723027 0
vt 67.78848579030674 -32.20277867048531 0
vt 69.85212634483817 -30.388049513971502 0
vt 72.33672362198203 -28.05472072747378 0
vt 72.36907964006812 -25.49145069569419 0
vt 69.10112181337293 -25.251408459994586 0
vt 66.23285114410162 -25.064827563823012 0
vn 0 0 1
vn 0 0 -1
usemtl floor_59
s off
f 5/3/1 7/4/1 3/2/1
f 4/2/2 8/4/2 6/3/2
f 1/1/1 3/2/1 11/6/1
f 12/6/2 4/2/2 2/1/2
f 1/1/1 11/6/1 13/7/1
f 14/7/2 12/6/2 2/1/2
f 1/1/1 13/7/1 15/8/1
f 16/8/2 14/7/2 2/1/2
f 1/1/1 15/8/1 45/23/1
f 46/23/2 16/8/2 2/1/2
f 45/23/1 15/8/1 17/9/1
f 18/9/2 16/8/2 46/23/2
f 45/23/1 17/9/1 19/10/1
f 20/10/2 18/9/2 46/23/2
f 45/23/1 19/10/1 43/22/1
f 44/22/2 20/10/2 46/23/2
f 43/22/1 19/10/1 21/11/1
f 22/11/2 20/10/2 44/22/2
f 43/22/1 21/11/1 23/12/1
f 24/12/2 22/11/2 44/22/2
f 43/22/1 23/12/1 39/20/1
f 40/20/2 24/12/2 44/22/2
f 43/22/1 39/20/1 41/21/1
f 42/21/2 40/20/2 44/22/2
f 33/17/1 35/18/1 31/16/1
f 32/16/2 36/18/2 34/17/2
f 7/4/1 9/5/1 3/2/1
f 4/2/2 10/5/2 8/4/2
f 3/2/1 9/5/1 11/6/1
f 12/6/2 10/5/2 4/2/2
f 23/12/1 25/13/1 39/20/1
f 40/20/2 26/13/2 24/12/2
f 39/20/1 25/13/1 37/19/1
f 38/19/2 26/13/2 40/20/2
f 37/19/1 25/13/1 27/14/1
f 28/14/2 26/13/2 38/19/2
f 37/19/1 27/14/1 35/18/1
f 36/18/2 28/14/2 38/19/2
f 35/18/1 27/14/1 29/15/1
f 30/15/2 28/14/2 36/18/2
f 35/18/1 29/15/1 31/16/1
f 32/16/2 30/15/2 36/18/2
