# The Great Editor v0.0.1
mtllib floor_35.mtl
o floor_35
v 206.6075468075212 -28.032794187298684 0
v 206.6075468075212 -28.032794187298684 -0.1
v 207.24095281639944 -27.438888799484957 0
v 207.24095281639944 -27.438888799484957 -0.1
v 208.30993324134013 -27.359723313609344 0
v 208.30993324134013 -27.359723313609344 -0.1
v 209.18099995159187 -28.191125159049914 0
v 209.18099995159187 -28.191125159049914 -0.1
v 209.14141720865402 -29.26010558399064 0
v 209.14141720865402 -29.26010558399064 -0.1
v 208.34951598427799 -30.091589551304526 0
v 208.34951598427799 -30.091589551304526 -0.1
v 207.24095281639944 -29.933176457679988 0
v 207.24095281639944 -29.933176457679988 -0.1
v 206.6075468075212 -28.943443640488187 0
v 206.6075468075212 -28.943443640488187 -0.1
vt 206.6075468075212 -28.032794187298684 0
vt 207.24095281639944 -27.438888799484957 0
vt 208.30993324134013 -27.359723313609344 0
vt 209.18099995159187 -28.191125159049914 0
vt 209.14141720865402 -29.26010558399064 0
vt 208.34951598427799 -30.091589551304526 0
vt 207.24095281639944 -29.933176457679988 0
vt 206.6075468075212 -28.943443640488187 0
vn 0 0 1
vn 0 0 -1
usemtl floor_35
s off
f 1/1/1 15/8/1 3/2/1
f 4/2/2 16/8/2 2/1/2
f 3/2/1 15/8/1 5/3/1
f 6/3/2 16/8/2 4/2/2
f 5/3/1 15/8/1 7/4/1
f 8/4/2 16/8/2 6/3/2
f 7/4/1 15/8/1 9/5/1
f 10/5/2 16/8/2 8/4/2
f 11/6/1 9/5/1 13/7/1
f 14/7/2 10/5/2 12/6/2
f 13/7/1 9/5/1 15/8/1
f 16/8/2 10/5/2 14/7/2
