# The Great Editor v0.0.1
mtllib floor_45.mtl
o floor_45
v 156.99493099426613 -11.617699295992916 0
v 156.99493099426613 -11.617699295992916 -0.1
v 156.96298558554662 -14.61752920631479 0
v 156.96298558554662 -14.61752920631479 -0.1
v 154.49169205187977 -14.637566943403638 0
v 154.49169205187977 -14.637566943403638 -0.1
v 154.5776736532405 -17.848532190018254 0
v 154.5776736532405 -17.848532190018254 -0.1
v 164.8412653801432 -17.934513791379008 0
v 164.8412653801432 -17.934513791379008 -0.1
v 164.8412653801432 -16.558397560240362 0
v 164.8412653801432 -16.558397560240362 -0.1
v 169.42826473602315 -16.615800749687512 0
v 169.42826473602315 -16.615800749687512 -0.1
v 169.5143284592572 -18.221201251121506 0
v 169.5143284592572 -18.221201251121506 -0.1
v 174.10132781513715 -18.278604440568657 0
v 174.10132781513715 -18.278604440568657 -0.1
v 174.15873100458433 -19.626060137920383 0
v 174.15873100458433 -19.626060137920383 -0.1
v 174.10132781513715 -26.44923810416647 0
v 174.10132781513715 -26.44923810416647 -0.1
v 177.54165945392043 -26.420577570379553 0
v 177.54165945392043 -26.420577570379553 -0.1
v 177.74236531230218 -26.993952489864547 0
v 177.74236531230218 -26.993952489864547 -0.1
v 180.46593724079256 -26.27727490144496 0
v 180.46593724079256 -26.27727490144496 -0.1
v 180.40853405134538 -19.654720671707306 0
v 180.40853405134538 -19.654720671707306 -0.1
v 182.44408892520312 -19.597317482260152 0
v 182.44408892520312 -19.597317482260152 -0.1
v 182.35810732384238 -26.36325650280572 0
v 182.35810732384238 -26.36325650280572 -0.1
v 187.00250986916944 -26.391917036592634 0
v 187.00250986916944 -26.391917036592634 -0.1
v 187.34651839648578 -26.36325650280572 0
v 187.34651839648578 -26.36325650280572 -0.1
v 187.28919732891194 -22.894264330235522 0
v 187.28919732891194 -22.894264330235522 -0.1
v 187.34651839648578 -19.052603096562077 0
v 187.34651839648578 -19.052603096562077 -0.1
v 188.43594716788192 -18.966621495201323 0
v 188.43594716788192 -18.966621495201323 -0.1
v 188.46460770166885 -15.870380505607693 0
v 188.46460770166885 -15.870380505607693 -0.1
v 189.64001807442577 -15.813059438033859 0
v 189.64001807442577 -15.813059438033859 -0.1
v 189.64001807442577 -14.866933335572298 0
v 189.64001807442577 -14.866933335572298 -0.1
v 189.64001807442577 -10.623942507008683 0
v 189.64001807442577 -10.623942507008683 -0.1
v 187.3751789302727 -10.537878783774614 0
v 187.3751789302727 -10.537878783774614 -0.1
v 187.3751789302727 -11.56998648759693 0
v 187.3751789302727 -11.56998648759693 -0.1
v 184.56562540042157 -11.627307555170766 0
v 184.56562540042157 -11.627307555170766 -0.1
v 184.5942859342085 -15.612353579652115 0
v 184.5942859342085 -15.612353579652115 -0.1
v 186.62975868619287 -15.641014113439036 0
v 186.62975868619287 -15.641014113439036 -0.1
v 186.60109815240597 -16.787763952409023 0
v 186.60109815240597 -16.787763952409023 -0.1
v 183.64815983174694 -16.759103418622104 0
v 183.64815983174694 -16.759103418622104 -0.1
v 183.61949929796 -17.103111945938434 0
v 183.61949929796 -17.103111945938434 -0.1
v 182.8740790538802 -17.131772479725356 0
v 182.8740790538802 -17.131772479725356 -0.1
v 182.93148224332737 -17.848532190018254 0
v 182.93148224332737 -17.848532190018254 -0.1
v 175.85019522925236 -17.73389005487058 0
v 175.85019522925236 -17.73389005487058 -0.1
v 175.79287416167853 -15.297005586122701 0
v 175.79287416167853 -15.297005586122701 -0.1
v 174.04400674756334 -15.411647721270375 0
v 174.04400674756334 -15.411647721270375 -0.1
v 174.04400674756334 -17.217836202959425 0
v 174.04400674756334 -17.217836202959425 -0.1
v 170.60375723065334 -17.217836202959425 0
v 170.60375723065334 -17.217836202959425 -0.1
v 170.48903297363236 -15.583693045865198 0
v 170.48903297363236 -15.583693045865198 -0.1
v 164.8412653801432 -15.497629322631129 0
v 164.8412653801432 -15.497629322631129 -0.1
v 164.92724698150394 -11.54132595381001 0
v 164.92724698150394 -11.54132595381001 -0.1
v 178.41803703441784 -17.775461998880264 0
v 178.41803703441784 -17.775461998880264 -0.1
v 182.18543072071486 -17.836454026922695 0
v 182.18543072071486 -17.836454026922695 -0.1
v 172.13328644634421 -18.25397573610027 0
v 172.13328644634421 -18.25397573610027 -0.1
vt 156.99493099426613 -11.617699295992916 0
vt 156.96298558554662 -14.61752920631479 0
vt 154.49169205187977 -14.637566943403638 0
vt 154.5776736532405 -17.848532190018254 0
vt 164.8412653801432 -17.934513791379008 0
vt 164.8412653801432 -16.558397560240362 0
vt 169.42826473602315 -16.615800749687512 0
vt 169.5143284592572 -18.221201251121506 0
vt 174.10132781513715 -18.278604440568657 0
vt 174.15873100458433 -19.626060137920383 0
vt 174.10132781513715 -26.44923810416647 0
vt 177.54165945392043 -26.420577570379553 0
vt 177.74236531230218 -26.993952489864547 0
vt 180.46593724079256 -26.27727490144496 0
vt 180.40853405134538 -19.654720671707306 0
vt 182.44408892520312 -19.597317482260152 0
vt 182.35810732384238 -26.36325650280572 0
vt 187.00250986916944 -26.391917036592634 0
vt 187.34651839648578 -26.36325650280572 0
vt 187.28919732891194 -22.894264330235522 0
vt 187.34651839648578 -19.052603096562077 0
vt 188.43594716788192 -18.966621495201323 0
vt 188.46460770166885 -15.870380505607693 0
vt 189.64001807442577 -15.813059438033859 0
vt 189.64001807442577 -14.866933335572298 0
vt 189.64001807442577 -10.623942507008683 0
vt 187.3751789302727 -10.537878783774614 0
vt 187.3751789302727 -11.56998648759693 0
vt 184.56562540042157 -11.627307555170766 0
vt 184.5942859342085 -15.612353579652115 0
vt 186.62975868619287 -15.641014113439036 0
vt 186.60109815240597 -16.787763952409023 0
vt 183.64815983174694 -16.759103418622104 0
vt 183.61949929796 -17.103111945938434 0
vt 182.8740790538802 -17.131772479725356 0
vt 182.93148224332737 -17.848532190018254 0
vt 175.85019522925236 -17.73389005487058 0
vt 175.79287416167853 -15.297005586122701 0
vt 174.04400674756334 -15.411647721270375 0
vt 174.04400674756334 -17.217836202959425 0
vt 170.60375723065334 -17.217836202959425 0
vt 170.48903297363236 -15.583693045865198 0
vt 164.8412653801432 -15.497629322631129 0
vt 164.92724698150394 -11.54132595381001 0
vt 178.41803703441784 -17.775461998880264 0
vt 182.18543072071486 -17.836454026922695 0
vt 172.13328644634421 -18.25397573610027 0
vn 0 0 1
vn 0 0 -1
usemtl floor_45
s off
f 5/3/1 7/4/1 3/2/1
f 4/2/2 8/4/2 6/3/2
f 1/1/1 3/2/1 87/44/1
f 88/44/2 4/2/2 2/1/2
f 87/44/1 3/2/1 85/43/1
f 86/43/2 4/2/2 88/44/2
f 53/27/1 55/28/1 51/26/1
f 52/26/2 56/28/2 54/27/2
f 51/26/1 55/28/1 49/25/1
f 50/25/2 56/28/2 52/26/2
f 25/13/1 27/14/1 23/12/1
f 24/12/2 28/14/2 26/13/2
f 21/11/1 23/12/1 19/10/1
f 20/10/2 24/12/2 22/11/2
f 7/4/1 9/5/1 3/2/1
f 4/2/2 10/5/2 8/4/2
f 3/2/1 9/5/1 11/6/1
f 12/6/2 10/5/2 4/2/2
f 3/2/1 11/6/1 85/43/1
f 86/43/2 12/6/2 4/2/2
f 85/43/1 11/6/1 13/7/1
f 14/7/2 12/6/2 86/43/2
f 85/43/1 13/7/1 83/42/1
f 84/42/2 14/7/2 86/43/2
f 83/42/1 13/7/1 81/41/1
f 82/41/2 14/7/2 84/42/2
f 77/39/1 79/40/1 75/38/1
f 76/38/2 80/40/2 78/39/2
f 75/38/1 79/40/1 73/37/1
f 74/37/2 80/40/2 76/38/2
f 73/37/1 29/15/1 89/45/1
f 90/45/2 30/15/2 74/37/2
f 89/45/1 29/15/1 91/46/1
f 92/46/2 30/15/2 90/45/2
f 57/29/1 59/30/1 61/31/1
f 62/31/2 60/30/2 58/29/2
f 57/29/1 61/31/1 55/28/1
f 56/28/2 62/31/2 58/29/2
f 55/28/1 61/31/1 49/25/1
f 50/25/2 62/31/2 56/28/2
f 49/25/1 61/31/1 45/23/1
f 46/23/2 62/31/2 50/25/2
f 49/25/1 45/23/1 47/24/1
f 48/24/2 46/23/2 50/25/2
f 37/19/1 39/20/1 35/18/1
f 36/18/2 40/20/2 38/19/2
f 35/18/1 39/20/1 33/17/1
f 34/17/2 40/20/2 36/18/2
f 33/17/1 39/20/1 31/16/1
f 32/16/2 40/20/2 34/17/2
f 27/14/1 29/15/1 23/12/1
f 24/12/2 30/15/2 28/14/2
f 23/12/1 29/15/1 19/10/1
f 20/10/2 30/15/2 24/12/2
f 19/10/1 29/15/1 73/37/1
f 74/37/2 30/15/2 20/10/2
f 19/10/1 73/37/1 17/9/1
f 18/9/2 74/37/2 20/10/2
f 93/47/1 17/9/1 81/41/1
f 82/41/2 18/9/2 94/47/2
f 93/47/1 81/41/1 15/8/1
f 16/8/2 82/41/2 94/47/2
f 15/8/1 81/41/1 13/7/1
f 14/7/2 82/41/2 16/8/2
f 81/41/1 17/9/1 79/40/1
f 80/40/2 18/9/2 82/41/2
f 79/40/1 17/9/1 73/37/1
f 74/37/2 18/9/2 80/40/2
f 29/15/1 31/16/1 71/36/1
f 72/36/2 32/16/2 30/15/2
f 29/15/1 71/36/1 91/46/1
f 92/46/2 72/36/2 30/15/2
f 69/35/1 71/36/1 67/34/1
f 68/34/2 72/36/2 70/35/2
f 61/31/1 63/32/1 45/23/1
f 46/23/2 64/32/2 62/31/2
f 45/23/1 63/32/1 43/22/1
f 44/22/2 64/32/2 46/23/2
f 43/22/1 63/32/1 41/21/1
f 42/21/2 64/32/2 44/22/2
f 39/20/1 41/21/1 31/16/1
f 32/16/2 42/21/2 40/20/2
f 31/16/1 41/21/1 71/36/1
f 72/36/2 42/21/2 32/16/2
f 71/36/1 41/21/1 67/34/1
f 68/34/2 42/21/2 72/36/2
f 67/34/1 41/21/1 63/32/1
f 64/32/2 42/21/2 68/34/2
f 67/34/1 63/32/1 65/33/1
f 66/33/2 64/32/2 68/34/2
