# The Great Editor v0.0.1
mtllib floor_29.mtl
o floor_29
v 246.13978479323927 -39.67808643272543 0
v 246.13978479323927 -39.67808643272543 -0.1
v 246.11432701251164 -37.49118094634826 0
v 246.11432701251164 -37.49118094634826 -0.1
v 250.89496974566825 -37.542014385930216 0
v 250.89496974566825 -37.542014385930216 -0.1
v 251.30188362794382 -37.542014385930216 0
v 251.30188362794382 -37.542014385930216 -0.1
v 251.2764258472162 -37.058891405218354 0
v 251.2764258472162 -37.058891405218354 -0.1
v 252.1919204909313 -37.10972484480031 0
v 252.1919204909313 -37.10972484480031 -0.1
v 251.32725928679815 -39.95779353323615 0
v 251.32725928679815 -39.95779353323615 -0.1
vt 246.13978479323927 -39.67808643272543 0
vt 246.11432701251164 -37.49118094634826 0
vt 250.89496974566825 -37.542014385930216 0
vt 251.30188362794382 -37.542014385930216 0
vt 251.2764258472162 -37.058891405218354 0
vt 252.1919204909313 -37.10972484480031 0
vt 251.32725928679815 -39.95779353323615 0
vn 0 0 1
vn 0 0 -1
usemtl floor_29
s off
f 3/2/1 1/1/1 5/3/1
f 6/3/2 2/1/2 4/2/2
f 9/5/1 7/4/1 11/6/1
f 12/6/2 8/4/2 10/5/2
f 11/6/1 7/4/1 13/7/1
f 14/7/2 8/4/2 12/6/2
f 13/7/1 7/4/1 5/3/1
f 6/3/2 8/4/2 14/7/2
f 13/7/1 5/3/1 1/1/1
f 2/1/2 6/3/2 14/7/2
