# The Great Editor v0.0.1
mtllib floor_61.mtl
o floor_61
v 75.28843011454134 -36.0309719169351 0
v 75.28843011454134 -36.0309719169351 -0.1
v 75.4095598776809 -37.22009664253561 0
v 75.4095598776809 -37.22009664253561 -0.1
v 73.22503592562987 -37.390417407790814 0
v 73.22503592562987 -37.390417407790814 -0.1
v 71.03607739241983 -37.50341710547219 0
v 71.03607739241983 -37.50341710547219 -0.1
v 69.21436787667426 -37.517542067682356 0
v 69.21436787667426 -37.517542067682356 -0.1
v 67.57620074778758 -36.24654183438685 0
v 67.57620074778758 -36.24654183438685 -0.1
v 69.5815347722654 -34.5518748566595 0
v 69.5815347722654 -34.5518748566595 -0.1
v 70.82650237172007 -33.2858840576362 0
v 70.82650237172007 -33.2858840576362 -0.1
v 71.81188272962618 -32.19711226122658 0
v 71.81188272962618 -32.19711226122658 -0.1
v 74.01529471253964 -30.121153425697912 0
v 74.01529471253964 -30.121153425697912 -0.1
v 75.79528631664122 -31.89687469238711 0
v 75.79528631664122 -31.89687469238711 -0.1
v 77.19341120982828 -33.139625001262274 0
v 77.19341120982828 -33.139625001262274 -0.1
v 75.51787862858332 -33.9740653560155 0
v 75.51787862858332 -33.9740653560155 -0.1
v 74.73936326955757 -33.52329839338973 0
v 74.73936326955757 -33.52329839338973 -0.1
v 73.93440466732443 -33.25755201134255 0
v 73.93440466732443 -33.25755201134255 -0.1
v 72.96101410292229 -33.17091343499528 0
v 72.96101410292229 -33.17091343499528 -0.1
v 72.37096844315437 -33.58070158283689 0
v 72.37096844315437 -33.58070158283689 -0.1
v 71.96939248264425 -34.04781079825233 0
v 71.96939248264425 -34.04781079825233 -0.1
v 71.72811841884491 -34.64968200777761 0
v 71.72811841884491 -34.64968200777761 -0.1
v 72.17428655656506 -35.490117259282826 0
v 72.17428655656506 -35.490117259282826 -0.1
v 72.9528019155908 -36.08837510638225 0
v 72.9528019155908 -36.08837510638225 -0.1
v 74.07557216755282 -36.21952373806623 0
v 74.07557216755282 -36.21952373806623 -0.1
vt 75.28843011454134 -36.0309719169351 0
vt 75.4095598776809 -37.22009664253561 0
vt 73.22503592562987 -37.390417407790814 0
vt 71.03607739241983 -37.50341710547219 0
vt 69.21436787667426 -37.517542067682356 0
vt 67.57620074778758 -36.24654183438685 0
vt 69.5815347722654 -34.5518748566595 0
vt 70.82650237172007 -33.2858840576362 0
vt 71.81188272962618 -32.19711226122658 0
vt 74.01529471253964 -30.121153425697912 0
vt 75.79528631664122 -31.89687469238711 0
vt 77.19341120982828 -33.139625001262274 0
vt 75.51787862858332 -33.9740653560155 0
vt 74.73936326955757 -33.52329839338973 0
vt 73.93440466732443 -33.25755201134255 0
vt 72.96101410292229 -33.17091343499528 0
vt 72.37096844315437 -33.58070158283689 0
vt 71.96939248264425 -34.04781079825233 0
vt 71.72811841884491 -34.64968200777761 0
vt 72.17428655656506 -35.490117259282826 0
vt 72.9528019155908 -36.08837510638225 0
vt 74.07557216755282 -36.21952373806623 0
vn 0 0 1
vn 0 0 -1
usemtl floor_61
s off
f 11/6/1 9/5/1 13/7/1
f 14/7/2 10/5/2 12/6/2
f 17/9/1 15/8/1 33/17/1
f 34/17/2 16/8/2 18/9/2
f 17/9/1 33/17/1 31/16/1
f 32/16/2 34/17/2 18/9/2
f 17/9/1 31/16/1 19/10/1
f 20/10/2 32/16/2 18/9/2
f 19/10/1 31/16/1 29/15/1
f 30/15/2 32/16/2 20/10/2
f 19/10/1 29/15/1 21/11/1
f 22/11/2 30/15/2 20/10/2
f 23/12/1 21/11/1 25/13/1
f 26/13/2 22/11/2 24/12/2
f 7/4/1 5/3/1 41/21/1
f 42/21/2 6/3/2 8/4/2
f 7/4/1 41/21/1 39/20/1
f 40/20/2 42/21/2 8/4/2
f 7/4/1 39/20/1 13/7/1
f 14/7/2 40/20/2 8/4/2
f 7/4/1 13/7/1 9/5/1
f 10/5/2 14/7/2 8/4/2
f 13/7/1 39/20/1 37/19/1
f 38/19/2 40/20/2 14/7/2
f 13/7/1 37/19/1 15/8/1
f 16/8/2 38/19/2 14/7/2
f 15/8/1 37/19/1 35/18/1
f 36/18/2 38/19/2 16/8/2
f 15/8/1 35/18/1 33/17/1
f 34/17/2 36/18/2 16/8/2
f 29/15/1 27/14/1 21/11/1
f 22/11/2 28/14/2 30/15/2
f 21/11/1 27/14/1 25/13/1
f 26/13/2 28/14/2 22/11/2
f 1/1/1 43/22/1 3/2/1
f 4/2/2 44/22/2 2/1/2
f 3/2/1 43/22/1 5/3/1
f 6/3/2 44/22/2 4/2/2
f 5/3/1 43/22/1 41/21/1
f 42/21/2 44/22/2 6/3/2
