# The Great Editor v0.0.1
mtllib floor_42.mtl
o floor_42
v 151.62473533258148 -17.848532190018254 0
v 151.62473533258148 -17.848532190018254 -0.1
v 151.56741426500764 -30.262238804053 0
v 151.56741426500764 -30.262238804053 -0.1
v 155.96857182157584 -31.955920319300564 0
v 155.96857182157584 -31.955920319300564 -0.1
v 162.75463070108358 -33.45464450729843 0
v 162.75463070108358 -33.45464450729843 -0.1
v 168.42489968786106 -33.817212577983945 0
v 168.42489968786106 -33.817212577983945 -0.1
v 174.07266728135022 -26.82198928714304 0
v 174.07266728135022 -26.82198928714304 -0.1
v 174.10132781513715 -26.44923810416647 0
v 174.10132781513715 -26.44923810416647 -0.1
v 174.15873100458433 -19.626060137920383 0
v 174.15873100458433 -19.626060137920383 -0.1
v 174.10132781513715 -18.278604440568657 0
v 174.10132781513715 -18.278604440568657 -0.1
v 169.5143284592572 -18.221201251121506 0
v 169.5143284592572 -18.221201251121506 -0.1
v 169.42826473602315 -16.615800749687512 0
v 169.42826473602315 -16.615800749687512 -0.1
v 164.8412653801432 -16.558397560240362 0
v 164.8412653801432 -16.558397560240362 -0.1
v 164.8412653801432 -17.934513791379008 0
v 164.8412653801432 -17.934513791379008 -0.1
v 154.5776736532405 -17.848532190018254 0
v 154.5776736532405 -17.848532190018254 -0.1
vt 151.62473533258148 -17.848532190018254 0
vt 151.56741426500764 -30.262238804053 0
vt 155.96857182157584 -31.955920319300564 0
vt 162.75463070108358 -33.45464450729843 0
vt 168.42489968786106 -33.817212577983945 0
vt 174.07266728135022 -26.82198928714304 0
vt 174.10132781513715 -26.44923810416647 0
vt 174.15873100458433 -19.626060137920383 0
vt 174.10132781513715 -18.278604440568657 0
vt 169.5143284592572 -18.221201251121506 0
vt 169.42826473602315 -16.615800749687512 0
vt 164.8412653801432 -16.558397560240362 0
vt 164.8412653801432 -17.934513791379008 0
vt 154.5776736532405 -17.848532190018254 0
vn 0 0 1
vn 0 0 -1
usemtl floor_42
s off
f 1/1/1 3/2/1 27/14/1
f 28/14/2 4/2/2 2/1/2
f 23/12/1 25/13/1 21/11/1
f 22/11/2 26/13/2 24/12/2
f 21/11/1 25/13/1 19/10/1
f 20/10/2 26/13/2 22/11/2
f 17/9/1 19/10/1 15/8/1
f 16/8/2 20/10/2 18/9/2
f 9/5/1 11/6/1 7/4/1
f 8/4/2 12/6/2 10/5/2
f 7/4/1 11/6/1 13/7/1
f 14/7/2 12/6/2 8/4/2
f 7/4/1 13/7/1 25/13/1
f 26/13/2 14/7/2 8/4/2
f 7/4/1 25/13/1 5/3/1
f 6/3/2 26/13/2 8/4/2
f 5/3/1 25/13/1 27/14/1
f 28/14/2 26/13/2 6/3/2
f 5/3/1 27/14/1 3/2/1
f 4/2/2 28/14/2 6/3/2
f 25/13/1 13/7/1 19/10/1
f 20/10/2 14/7/2 26/13/2
f 19/10/1 13/7/1 15/8/1
f 16/8/2 14/7/2 20/10/2
