# The Great Editor v0.0.1
mtllib floor_55.mtl
o floor_55
v 72.36907964006812 -25.49145069569419 0
v 72.36907964006812 -25.49145069569419 -0.1
v 72.33672362198203 -28.05472072747378 0
v 72.33672362198203 -28.05472072747378 -0.1
v 69.85212634483817 -30.388049513971502 0
v 69.85212634483817 -30.388049513971502 -0.1
v 74.01529471253964 -30.121153425697912 0
v 74.01529471253964 -30.121153425697912 -0.1
v 75.79528631664122 -31.89687469238711 0
v 75.79528631664122 -31.89687469238711 -0.1
v 77.19341120982828 -33.139625001262274 0
v 77.19341120982828 -33.139625001262274 -0.1
v 78.6786674106025 -34.3788440695849 0
v 78.6786674106025 -34.3788440695849 -0.1
v 80.04607872316976 -35.58283285425541 0
v 80.04607872316976 -35.58283285425541 -0.1
v 81.84183772694782 -37.087059207765385 0
v 81.84183772694782 -37.087059207765385 -0.1
v 79.04698401242005 -37.13041955687567 0
v 79.04698401242005 -37.13041955687567 -0.1
v 77.24876135244256 -37.13041955687567 0
v 77.24876135244256 -37.13041955687567 -0.1
v 75.4095598776809 -37.22009664253561 0
v 75.4095598776809 -37.22009664253561 -0.1
v 73.22503592562987 -37.390417407790814 0
v 73.22503592562987 -37.390417407790814 -0.1
v 74.5912154100974 -39.97052242359997 0
v 74.5912154100974 -39.97052242359997 -0.1
v 78.39575755703248 -39.694182319895155 0
v 78.39575755703248 -39.694182319895155 -0.1
v 81.23364313317728 -39.54677355729482 0
v 81.23364313317728 -39.54677355729482 -0.1
v 83.80118350236924 -39.374728232699994 0
v 83.80118350236924 -39.374728232699994 -0.1
v 85.28767153124319 -39.20276502997849 0
v 85.28767153124319 -39.20276502997849 -0.1
v 88.73982871978382 -39.079910707499316 0
v 88.73982871978382 -39.079910707499316 -0.1
v 94.18204526436567 -39.25187391022083 0
v 94.18204526436567 -39.25187391022083 -0.1
v 101.81108517345139 -39.54677355729482 0
v 101.81108517345139 -39.54677355729482 -0.1
v 110.93893139240826 -40.001318126093075 0
v 110.93893139240826 -40.001318126093075 -0.1
v 119.99303216912833 -40.45586269489134 0
v 119.99303216912833 -40.45586269489134 -0.1
v 124.18223317067067 -40.7138074989736 0
v 124.18223317067067 -40.7138074989736 -0.1
v 133.03456050465587 -41.89866188716172 0
v 133.03456050465587 -41.89866188716172 -0.1
v 135.07307176595293 -42.27658674815713 0
v 135.07307176595293 -42.27658674815713 -0.1
v 137.35458165038892 -42.69507981457013 0
v 137.35458165038892 -42.69507981457013 -0.1
v 138.63707894594853 -42.60063966025793 0
v 138.63707894594853 -42.60063966025793 -0.1
v 140.6080860273807 -42.20908256829224 0
v 140.6080860273807 -42.20908256829224 -0.1
v 144.1194530865814 -41.608032577500104 0
v 144.1194530865814 -41.608032577500104 -0.1
v 148.71573221414593 -40.62191312273416 0
v 148.71573221414593 -40.62191312273416 -0.1
v 153.439136001602 -40.212946193625704 0
v 153.439136001602 -40.212946193625704 -0.1
v 165.25458476853734 -40.16383731338337 0
v 165.25458476853734 -40.16383731338337 -0.1
v 173.19158170255412 -40.2947395794474 0
v 173.19158170255412 -40.2947395794474 -0.1
v 182.73233670053858 -40.114728433141025 0
v 182.73233670053858 -40.114728433141025 -0.1
v 187.62540427826337 -40.08196180568836 0
v 187.62540427826337 -40.08196180568836 -0.1
v 195.20237891966738 -40.114728433141025 0
v 195.20237891966738 -40.114728433141025 -0.1
v 203.20482698671617 -40.01651067265634 0
v 203.20482698671617 -40.01651067265634 -0.1
v 212.8600598761017 -39.55835274143222 0
v 212.8600598761017 -39.55835274143222 -0.1
v 223.03906607348998 -40.605652991817806 0
v 223.03906607348998 -40.605652991817806 -0.1
v 232.056129885345 -42.14395992275348 0
v 232.056129885345 -42.14395992275348 -0.1
v 240.3859157394272 -43.73137573393151 0
v 240.3859157394272 -43.73137573393151 -0.1
v 254.8360805679261 -45.82605835657598 0
v 254.8360805679261 -45.82605835657598 -0.1
v 266.78752315707095 -47.62945469457232 0
v 266.78752315707095 -47.62945469457232 -0.1
v 275.6802544527272 -47.00606755423852 0
v 275.6802544527272 -47.00606755423852 -0.1
v 281.99903987307283 -45.74500406761412 0
v 281.99903987307283 -45.74500406761412 -0.1
v 282.0378835191508 -43.22731167552433 0
v 282.0378835191508 -43.22731167552433 -0.1
v 279.0185086029799 -43.66920947583208 0
v 279.0185086029799 -43.66920947583208 -0.1
v 274.7619676653194 -44.405596313847255 0
v 274.7619676653194 -44.405596313847255 -0.1
v 268.97377166846167 -44.81801236163494 0
v 268.97377166846167 -44.81801236163494 -0.1
v 262.64053279841255 -44.4497778816907 0
v 262.64053279841255 -44.4497778816907 -0.1
v 257.1615256545856 -43.742790674322286 0
v 257.1615256545856 -43.742790674322286 -0.1
v 250.18026308220823 -42.78549599708989 0
v 250.18026308220823 -42.78549599708989 -0.1
v 243.39050871840132 -41.66609274193378 0
v 243.39050871840132 -41.66609274193378 -0.1
v 234.98057191596374 -40.03129260985303 0
v 234.98057191596374 -40.03129260985303 -0.1
v 225.4070502905266 -38.30804722021209 0
v 225.4070502905266 -38.30804722021209 -0.1
v 216.89405053707873 -37.40963392614651 0
v 216.89405053707873 -37.40963392614651 -0.1
v 209.4020720345557 -36.76711238933033 0
v 209.4020720345557 -36.76711238933033 -0.1
v 204.81671511614206 -37.115062766565785 0
v 204.81671511614206 -37.115062766565785 -0.1
v 199.05791874993105 -37.46851530931333 0
v 199.05791874993105 -37.46851530931333 -0.1
v 193.8293833197147 -37.306488853262934 0
v 193.8293833197147 -37.306488853262934 -0.1
v 184.54879041639202 -37.3326857308504 0
v 184.54879041639202 -37.3326857308504 -0.1
v 176.05541779066644 -37.77458353115816 0
v 176.05541779066644 -37.77458353115816 -0.1
v 166.86162770743763 -37.51269687715678 0
v 166.86162770743763 -37.51269687715678 -0.1
v 154.30642510568123 -37.7418169037055 0
v 154.30642510568123 -37.7418169037055 -0.1
v 148.53834896778565 -37.96075381796316 0
v 148.53834896778565 -37.96075381796316 -0.1
v 141.63707310001703 -39.32676905868406 0
v 141.63707310001703 -39.32676905868406 -0.1
v 138.974599845273 -39.65763808627 0
v 138.974599845273 -39.65763808627 -0.1
v 137.36147988774738 -39.770309296458116 0
v 137.36147988774738 -39.770309296458116 -0.1
v 135.6401233011927 -39.59013390640511 0
v 135.6401233011927 -39.59013390640511 -0.1
v 133.68915395684937 -39.273554084775974 0
v 133.68915395684937 -39.273554084775974 -0.1
v 126.82335473835282 -38.315520310683745 0
v 126.82335473835282 -38.315520310683745 -0.1
v 120.14397217228122 -37.873376144756044 0
v 120.14397217228122 -37.873376144756044 -0.1
v 111.11089459512978 -37.433695635027796 0
v 111.11089459512978 -37.433695635027796 -0.1
v 101.25725525981534 -36.95722452605444 0
v 101.25725525981534 -36.95722452605444 -0.1
v 93.95267887219703 -36.710858906109586 0
v 93.95267887219703 -36.710858906109586 -0.1
v 87.86941898451865 -36.605496542646506 0
v 87.86941898451865 -36.605496542646506 -0.1
v 85.30228922469325 -36.59268553040937 0
v 85.30228922469325 -36.59268553040937 -0.1
v 83.89858004412078 -35.48272629068448 0
v 83.89858004412078 -35.48272629068448 -0.1
v 82.33153045752488 -34.1443039993974 0
v 82.33153045752488 -34.1443039993974 -0.1
v 80.06808738521816 -32.08756168222443 0
v 80.06808738521816 -32.08756168222443 -0.1
v 77.84816890576839 -30.107028463487737 0
v 77.84816890576839 -30.107028463487737 -0.1
v 75.41497992131968 -28.085187942473627 0
v 75.41497992131968 -28.085187942473627 -0.1
v 75.18134319173865 -25.814928754681784 0
v 75.18134319173865 -25.814928754681784 -0.1
vt 72.36907964006812 -25.49145069569419 0
vt 72.33672362198203 -28.05472072747378 0
vt 69.85212634483817 -30.388049513971502 0
vt 74.01529471253964 -30.121153425697912 0
vt 75.79528631664122 -31.89687469238711 0
vt 77.19341120982828 -33.139625001262274 0
vt 78.6786674106025 -34.3788440695849 0
vt 80.04607872316976 -35.58283285425541 0
vt 81.84183772694782 -37.087059207765385 0
vt 79.04698401242005 -37.13041955687567 0
vt 77.24876135244256 -37.13041955687567 0
vt 75.4095598776809 -37.22009664253561 0
vt 73.22503592562987 -37.390417407790814 0
vt 74.5912154100974 -39.97052242359997 0
vt 78.39575755703248 -39.694182319895155 0
vt 81.23364313317728 -39.54677355729482 0
vt 83.80118350236924 -39.374728232699994 0
vt 85.28767153124319 -39.20276502997849 0
vt 88.73982871978382 -39.079910707499316 0
vt 94.18204526436567 -39.25187391022083 0
vt 101.81108517345139 -39.54677355729482 0
vt 110.93893139240826 -40.001318126093075 0
vt 119.99303216912833 -40.45586269489134 0
vt 124.18223317067067 -40.7138074989736 0
vt 133.03456050465587 -41.89866188716172 0
vt 135.07307176595293 -42.27658674815713 0
vt 137.35458165038892 -42.69507981457013 0
vt 138.63707894594853 -42.60063966025793 0
vt 140.6080860273807 -42.20908256829224 0
vt 144.1194530865814 -41.608032577500104 0
vt 148.71573221414593 -40.62191312273416 0
vt 153.439136001602 -40.212946193625704 0
vt 165.25458476853734 -40.16383731338337 0
vt 173.19158170255412 -40.2947395794474 0
vt 182.73233670053858 -40.114728433141025 0
vt 187.62540427826337 -40.08196180568836 0
vt 195.20237891966738 -40.114728433141025 0
vt 203.20482698671617 -40.01651067265634 0
vt 212.8600598761017 -39.55835274143222 0
vt 223.03906607348998 -40.605652991817806 0
vt 232.056129885345 -42.14395992275348 0
vt 240.3859157394272 -43.73137573393151 0
vt 254.8360805679261 -45.82605835657598 0
vt 266.78752315707095 -47.62945469457232 0
vt 275.6802544527272 -47.00606755423852 0
vt 281.99903987307283 -45.74500406761412 0
vt 282.0378835191508 -43.22731167552433 0
vt 279.0185086029799 -43.66920947583208 0
vt 274.7619676653194 -44.405596313847255 0
vt 268.97377166846167 -44.81801236163494 0
vt 262.64053279841255 -44.4497778816907 0
vt 257.1615256545856 -43.742790674322286 0
vt 250.18026308220823 -42.78549599708989 0
vt 243.39050871840132 -41.66609274193378 0
vt 234.98057191596374 -40.03129260985303 0
vt 225.4070502905266 -38.30804722021209 0
vt 216.89405053707873 -37.40963392614651 0
vt 209.4020720345557 -36.76711238933033 0
vt 204.81671511614206 -37.115062766565785 0
vt 199.05791874993105 -37.46851530931333 0
vt 193.8293833197147 -37.306488853262934 0
vt 184.54879041639202 -37.3326857308504 0
vt 176.05541779066644 -37.77458353115816 0
vt 166.86162770743763 -37.51269687715678 0
vt 154.30642510568123 -37.7418169037055 0
vt 148.53834896778565 -37.96075381796316 0
vt 141.63707310001703 -39.32676905868406 0
vt 138.974599845273 -39.65763808627 0
vt 137.36147988774738 -39.770309296458116 0
vt 135.6401233011927 -39.59013390640511 0
vt 133.68915395684937 -39.273554084775974 0
vt 126.82335473835282 -38.315520310683745 0
vt 120.14397217228122 -37.873376144756044 0
vt 111.11089459512978 -37.433695635027796 0
vt 101.25725525981534 -36.95722452605444 0
vt 93.95267887219703 -36.710858906109586 0
vt 87.86941898451865 -36.605496542646506 0
vt 85.30228922469325 -36.59268553040937 0
vt 83.89858004412078 -35.48272629068448 0
vt 82.33153045752488 -34.1443039993974 0
vt 80.06808738521816 -32.08756168222443 0
vt 77.84816890576839 -30.107028463487737 0
vt 75.41497992131968 -28.085187942473627 0
vt 75.18134319173865 -25.814928754681784 0
vn 0 0 1
vn 0 0 -1
usemtl floor_55
s off
f 5/3/1 7/4/1 3/2/1
f 4/2/2 8/4/2 6/3/2
f 1/1/1 3/2/1 167/84/1
f 168/84/2 4/2/2 2/1/2
f 167/84/1 3/2/1 165/83/1
f 166/83/2 4/2/2 168/84/2
f 115/58/1 117/59/1 75/38/1
f 76/38/2 118/59/2 116/58/2
f 115/58/1 75/38/1 77/39/1
f 78/39/2 76/38/2 116/58/2
f 115/58/1 77/39/1 113/57/1
f 114/57/2 78/39/2 116/58/2
f 113/57/1 77/39/1 79/40/1
f 80/40/2 78/39/2 114/57/2
f 113/57/1 79/40/1 111/56/1
f 112/56/2 80/40/2 114/57/2
f 111/56/1 79/40/1 81/41/1
f 82/41/2 80/40/2 112/56/2
f 111/56/1 81/41/1 109/55/1
f 110/55/2 82/41/2 112/56/2
f 93/47/1 95/48/1 91/46/1
f 92/46/2 96/48/2 94/47/2
f 87/44/1 89/45/1 99/50/1
f 100/50/2 90/45/2 88/44/2
f 87/44/1 99/50/1 101/51/1
f 102/51/2 100/50/2 88/44/2
f 87/44/1 101/51/1 85/43/1
f 86/43/2 102/51/2 88/44/2
f 53/27/1 55/28/1 137/69/1
f 138/69/2 56/28/2 54/27/2
f 53/27/1 137/69/1 51/26/1
f 52/26/2 138/69/2 54/27/2
f 27/14/1 29/15/1 21/11/1
f 22/11/2 30/15/2 28/14/2
f 27/14/1 21/11/1 23/12/1
f 24/12/2 22/11/2 28/14/2
f 27/14/1 23/12/1 25/13/1
f 26/13/2 24/12/2 28/14/2
f 7/4/1 9/5/1 163/82/1
f 164/82/2 10/5/2 8/4/2
f 7/4/1 163/82/1 165/83/1
f 166/83/2 164/82/2 8/4/2
f 7/4/1 165/83/1 3/2/1
f 4/2/2 166/83/2 8/4/2
f 163/82/1 9/5/1 11/6/1
f 12/6/2 10/5/2 164/82/2
f 163/82/1 11/6/1 161/81/1
f 162/81/2 12/6/2 164/82/2
f 161/81/1 11/6/1 13/7/1
f 14/7/2 12/6/2 162/81/2
f 161/81/1 13/7/1 15/8/1
f 16/8/2 14/7/2 162/81/2
f 161/81/1 15/8/1 159/80/1
f 160/80/2 16/8/2 162/81/2
f 151/76/1 153/77/1 37/19/1
f 38/19/2 154/77/2 152/76/2
f 151/76/1 37/19/1 39/20/1
f 40/20/2 38/19/2 152/76/2
f 151/76/1 39/20/1 149/75/1
f 150/75/2 40/20/2 152/76/2
f 149/75/1 39/20/1 41/21/1
f 42/21/2 40/20/2 150/75/2
f 149/75/1 41/21/1 147/74/1
f 148/74/2 42/21/2 150/75/2
f 147/74/1 41/21/1 43/22/1
f 44/22/2 42/21/2 148/74/2
f 147/74/1 43/22/1 45/23/1
f 46/23/2 44/22/2 148/74/2
f 147/74/1 45/23/1 145/73/1
f 146/73/2 46/23/2 148/74/2
f 145/73/1 45/23/1 47/24/1
f 48/24/2 46/23/2 146/73/2
f 145/73/1 47/24/1 143/72/1
f 144/72/2 48/24/2 146/73/2
f 143/72/1 47/24/1 49/25/1
f 50/25/2 48/24/2 144/72/2
f 143/72/1 49/25/1 141/71/1
f 142/71/2 50/25/2 144/72/2
f 131/66/1 133/67/1 59/30/1
f 60/30/2 134/67/2 132/66/2
f 131/66/1 59/30/1 61/31/1
f 62/31/2 60/30/2 132/66/2
f 131/66/1 61/31/1 63/32/1
f 64/32/2 62/31/2 132/66/2
f 131/66/1 63/32/1 129/65/1
f 130/65/2 64/32/2 132/66/2
f 129/65/1 63/32/1 65/33/1
f 66/33/2 64/32/2 130/65/2
f 129/65/1 65/33/1 127/64/1
f 128/64/2 66/33/2 130/65/2
f 127/64/1 65/33/1 67/34/1
f 68/34/2 66/33/2 128/64/2
f 127/64/1 67/34/1 125/63/1
f 126/63/2 68/34/2 128/64/2
f 123/62/1 125/63/1 69/35/1
f 70/35/2 126/63/2 124/62/2
f 123/62/1 69/35/1 71/36/1
f 72/36/2 70/35/2 124/62/2
f 123/62/1 71/36/1 121/61/1
f 122/61/2 72/36/2 124/62/2
f 121/61/1 71/36/1 73/37/1
f 74/37/2 72/36/2 122/61/2
f 121/61/1 73/37/1 119/60/1
f 120/60/2 74/37/2 122/61/2
f 117/59/1 119/60/1 75/38/1
f 76/38/2 120/60/2 118/59/2
f 75/38/1 119/60/1 73/37/1
f 74/37/2 120/60/2 76/38/2
f 81/41/1 83/42/1 109/55/1
f 110/55/2 84/42/2 82/41/2
f 109/55/1 83/42/1 107/54/1
f 108/54/2 84/42/2 110/55/2
f 107/54/1 83/42/1 105/53/1
f 106/53/2 84/42/2 108/54/2
f 105/53/1 83/42/1 85/43/1
f 86/43/2 84/42/2 106/53/2
f 105/53/1 85/43/1 103/52/1
f 104/52/2 86/43/2 106/53/2
f 103/52/1 85/43/1 101/51/1
f 102/51/2 86/43/2 104/52/2
f 95/48/1 97/49/1 89/45/1
f 90/45/2 98/49/2 96/48/2
f 95/48/1 89/45/1 91/46/1
f 92/46/2 90/45/2 96/48/2
f 89/45/1 97/49/1 99/50/1
f 100/50/2 98/49/2 90/45/2
f 55/28/1 57/29/1 135/68/1
f 136/68/2 58/29/2 56/28/2
f 55/28/1 135/68/1 137/69/1
f 138/69/2 136/68/2 56/28/2
f 137/69/1 139/70/1 51/26/1
f 52/26/2 140/70/2 138/69/2
f 51/26/1 139/70/1 141/71/1
f 142/71/2 140/70/2 52/26/2
f 51/26/1 141/71/1 49/25/1
f 50/25/2 142/71/2 52/26/2
f 133/67/1 135/68/1 57/29/1
f 58/29/2 136/68/2 134/67/2
f 133/67/1 57/29/1 59/30/1
f 60/30/2 58/29/2 134/67/2
f 67/34/1 69/35/1 125/63/1
f 126/63/2 70/35/2 68/34/2
f 31/16/1 33/17/1 17/9/1
f 18/9/2 34/17/2 32/16/2
f 31/16/1 17/9/1 19/10/1
f 20/10/2 18/9/2 32/16/2
f 31/16/1 19/10/1 29/15/1
f 30/15/2 20/10/2 32/16/2
f 29/15/1 19/10/1 21/11/1
f 22/11/2 20/10/2 30/15/2
f 15/8/1 17/9/1 159/80/1
f 160/80/2 18/9/2 16/8/2
f 159/80/1 17/9/1 157/79/1
f 158/79/2 18/9/2 160/80/2
f 153/77/1 155/78/1 35/18/1
f 36/18/2 156/78/2 154/77/2
f 153/77/1 35/18/1 37/19/1
f 38/19/2 36/18/2 154/77/2
f 33/17/1 35/18/1 155/78/1
f 156/78/2 36/18/2 34/17/2
f 33/17/1 155/78/1 17/9/1
f 18/9/2 156/78/2 34/17/2
f 17/9/1 155/78/1 157/79/1
f 158/79/2 156/78/2 18/9/2
