# The Great Editor v0.0.1
mtllib floor_13.mtl
o floor_13
v 72.96101410292229 -33.17091343499528 0
v 72.96101410292229 -33.17091343499528 -0.1
v 73.93440466732443 -33.25755201134255 0
v 73.93440466732443 -33.25755201134255 -0.1
v 74.73936326955757 -33.52329839338973 0
v 74.73936326955757 -33.52329839338973 -0.1
v 75.51787862858332 -33.9740653560155 0
v 75.51787862858332 -33.9740653560155 -0.1
v 75.9462263197941 -34.564357381403376 0
v 75.9462263197941 -34.564357381403376 -0.1
v 75.69813614050965 -35.6294780782983 0
v 75.69813614050965 -35.6294780782983 -0.1
v 75.28843011454134 -36.0309719169351 0
v 75.28843011454134 -36.0309719169351 -0.1
v 74.07557216755282 -36.21952373806623 0
v 74.07557216755282 -36.21952373806623 -0.1
v 72.9528019155908 -36.08837510638225 0
v 72.9528019155908 -36.08837510638225 -0.1
v 72.17428655656506 -35.490117259282826 0
v 72.17428655656506 -35.490117259282826 -0.1
v 71.72811841884491 -34.64968200777761 0
v 71.72811841884491 -34.64968200777761 -0.1
v 71.96939248264425 -34.04781079825233 0
v 71.96939248264425 -34.04781079825233 -0.1
v 72.37096844315437 -33.58070158283689 0
v 72.37096844315437 -33.58070158283689 -0.1
vt 72.96101410292229 -33.17091343499528 0
vt 73.93440466732443 -33.25755201134255 0
vt 74.73936326955757 -33.52329839338973 0
vt 75.51787862858332 -33.9740653560155 0
vt 75.9462263197941 -34.564357381403376 0
vt 75.69813614050965 -35.6294780782983 0
vt 75.28843011454134 -36.0309719169351 0
vt 74.07557216755282 -36.21952373806623 0
vt 72.9528019155908 -36.08837510638225 0
vt 72.17428655656506 -35.490117259282826 0
vt 71.72811841884491 -34.64968200777761 0
vt 71.96939248264425 -34.04781079825233 0
vt 72.37096844315437 -33.58070158283689 0
vn 0 0 1
vn 0 0 -1
usemtl floor_13
s off
f 21/11/1 19/10/1 23/12/1
f 24/12/2 20/10/2 22/11/2
f 23/12/1 19/10/1 25/13/1
f 26/13/2 20/10/2 24/12/2
f 25/13/1 19/10/1 3/2/1
f 4/2/2 20/10/2 26/13/2
f 25/13/1 3/2/1 1/1/1
f 2/1/2 4/2/2 26/13/2
f 3/2/1 19/10/1 17/9/1
f 18/9/2 20/10/2 4/2/2
f 3/2/1 17/9/1 15/8/1
f 16/8/2 18/9/2 4/2/2
f 3/2/1 15/8/1 5/3/1
f 6/3/2 16/8/2 4/2/2
f 5/3/1 15/8/1 7/4/1
f 8/4/2 16/8/2 6/3/2
f 7/4/1 15/8/1 13/7/1
f 14/7/2 16/8/2 8/4/2
f 7/4/1 13/7/1 11/6/1
f 12/6/2 14/7/2 8/4/2
f 7/4/1 11/6/1 9/5/1
f 10/5/2 12/6/2 8/4/2
