# The Great Editor v0.0.1
mtllib floor_4.mtl
o floor_4
v 0.08351794516130596 -28.323012887593723 0
v 0.08351794516130596 -28.323012887593723 -0.1
v 3.414709614309011 -24.672285009377543 0
v 3.414709614309011 -24.672285009377543 -0.1
v 5.787703265617858 -20.83908232865554 0
v 5.787703265617858 -20.83908232865554 -0.1
v 10.761743010431173 -2.0837604134935868 0
v 10.761743010431173 -2.0837604134935868 -0.1
v 10.716083248868062 -0.12145825063281372 0
v 10.716083248868062 -0.12145825063281372 -0.1
v 0.05518589886764761 -0.027921436927083612 0
v 0.05518589886764761 -0.027921436927083612 -0.1
vt 0.08351794516130596 -28.323012887593723 0
vt 3.414709614309011 -24.672285009377543 0
vt 5.787703265617858 -20.83908232865554 0
vt 10.761743010431173 -2.0837604134935868 0
vt 10.716083248868062 -0.12145825063281372 0
vt 0.05518589886764761 -0.027921436927083612 0
vn 0 0 1
vn 0 0 -1
usemtl floor_4
s off
f 11/6/1 1/1/1 3/2/1
f 4/2/2 2/1/2 12/6/2
f 11/6/1 3/2/1 5/3/1
f 6/3/2 4/2/2 12/6/2
f 11/6/1 5/3/1 7/4/1
f 8/4/2 6/3/2 12/6/2
f 11/6/1 7/4/1 9/5/1
f 10/5/2 8/4/2 12/6/2
