# The Great Editor v0.0.1
mtllib floor_75.mtl
o floor_75
v 25.780273324142875 -49.61557220069442 0
v 25.780273324142875 -49.61557220069442 -0.1
v 25.987466810516494 -49.74310746995255 0
v 25.987466810516494 -49.74310746995255 -0.1
v 26.234489405447874 -49.77497075679875 0
v 26.234489405447874 -49.77497075679875 -0.1
v 26.49744364380235 -49.7032783613948 0
v 26.49744364380235 -49.7032783613948 -0.1
v 26.64091055648357 -49.51201651844428 0
v 26.64091055648357 -49.51201651844428 -0.1
v 26.68870548675287 -49.3446521406284 0
v 26.68870548675287 -49.3446521406284 -0.1
v 27.974405535371755 -50.04679415747125 0
v 27.974405535371755 -50.04679415747125 -0.1
v 27.952643238943292 -58.45336396310291 0
v 27.952643238943292 -58.45336396310291 -0.1
v 24.888183414322555 -58.49844887155282 0
v 24.888183414322555 -58.49844887155282 -0.1
vt 25.780273324142875 -49.61557220069442 0
vt 25.987466810516494 -49.74310746995255 0
vt 26.234489405447874 -49.77497075679875 0
vt 26.49744364380235 -49.7032783613948 0
vt 26.64091055648357 -49.51201651844428 0
vt 26.68870548675287 -49.3446521406284 0
vt 27.974405535371755 -50.04679415747125 0
vt 27.952643238943292 -58.45336396310291 0
vt 24.888183414322555 -58.49844887155282 0
vn 0 0 1
vn 0 0 -1
usemtl floor_75
s off
f 1/1/1 17/9/1 3/2/1
f 4/2/2 18/9/2 2/1/2
f 11/6/1 9/5/1 13/7/1
f 14/7/2 10/5/2 12/6/2
f 13/7/1 9/5/1 7/4/1
f 8/4/2 10/5/2 14/7/2
f 13/7/1 7/4/1 5/3/1
f 6/3/2 8/4/2 14/7/2
f 13/7/1 5/3/1 15/8/1
f 16/8/2 6/3/2 14/7/2
f 17/9/1 15/8/1 5/3/1
f 6/3/2 16/8/2 18/9/2
f 17/9/1 5/3/1 3/2/1
f 4/2/2 6/3/2 18/9/2
