# The Great Editor v0.0.1
mtllib floor_51.mtl
o floor_51
v 79.39000707725661 -11.736283281059707 0
v 79.39000707725661 -11.736283281059707 -0.1
v 85.55678491009628 -11.710497012838811 0
v 85.55678491009628 -11.710497012838811 -0.1
v 85.53099864187539 -11.426683818662339 0
v 85.53099864187539 -11.426683818662339 -0.1
v 88.08539951133696 -11.529828891545918 0
v 88.08539951133696 -11.529828891545918 -0.1
v 88.03374485302187 -8.227215634311817 0
v 88.03374485302187 -8.227215634311817 -0.1
v 104.16018135962558 -8.201347244217606 0
v 104.16018135962558 -8.201347244217606 -0.1
v 110.61069026476842 -8.201347244217606 0
v 110.61069026476842 -8.201347244217606 -0.1
v 110.63655865486261 -15.42601904910049 0
v 110.63655865486261 -15.42601904910049 -0.1
v 120.8914454631939 -15.411647721270375 0
v 120.8914454631939 -15.411647721270375 -0.1
v 120.8914454631939 -15.669674647225953 0
v 120.8914454631939 -15.669674647225953 -0.1
v 121.69418677484757 -15.669674647225953 0
v 121.69418677484757 -15.669674647225953 -0.1
v 120.83412439562008 -14.866933335572298 0
v 120.83412439562008 -14.866933335572298 -0.1
v 122.92700033705162 -12.17202194086884 0
v 122.92700033705162 -12.17202194086884 -0.1
v 127.77202661888715 -15.784316782373624 0
v 127.77202661888715 -15.784316782373624 -0.1
v 125.73655386690275 -18.679934035458828 0
v 125.73655386690275 -18.679934035458828 -0.1
v 125.30648161635234 -18.507888710864002 0
v 125.30648161635234 -18.507888710864002 -0.1
v 123.55769632411045 -23.094970188617264 0
v 123.55769632411045 -23.094970188617264 -0.1
v 123.41431153330254 -26.506641293613622 0
v 123.41431153330254 -26.506641293613622 -0.1
v 124.13107124359544 -30.20491773647916 0
v 124.13107124359544 -30.20491773647916 -0.1
v 125.85070327081054 -31.18027922584084 0
v 125.85070327081054 -31.18027922584084 -0.1
v 124.66806617320192 -27.86222705642353 0
v 124.66806617320192 -27.86222705642353 -0.1
v 124.47097367724602 -23.952897399138568 0
v 124.47097367724602 -23.952897399138568 -0.1
v 125.22649491174359 -20.700542728373215 0
v 125.22649491174359 -20.700542728373215 -0.1
v 126.73770162448534 -17.90815267004491 0
v 126.73770162448534 -17.90815267004491 -0.1
v 128.74163957711679 -15.509947603628373 0
v 128.74163957711679 -15.509947603628373 -0.1
v 130.4669380135906 -14.064192023918645 0
v 130.4669380135906 -14.064192023918645 -0.1
v 130.52425908116444 -11.856673947339425 0
v 130.52425908116444 -11.856673947339425 -0.1
v 131.09763400064944 -10.423236648626943 0
v 131.09763400064944 -10.423236648626943 -0.1
v 132.5024928874483 -9.419789478591547 0
v 132.5024928874483 -9.419789478591547 -0.1
v 141.9346006470371 -9.161762552635969 0
v 141.9346006470371 -9.161762552635969 -0.1
v 143.8267707300869 -9.878522262928866 0
v 143.8267707300869 -9.878522262928866 -0.1
v 144.85887843390924 -11.369280629215186 0
v 144.85887843390924 -11.369280629215186 -0.1
v 144.91619950148305 -14.035531490131728 0
v 144.91619950148305 -14.035531490131728 -0.1
v 153.79948678170803 -9.714524881918909 0
v 153.79948678170803 -9.714524881918909 -0.1
v 153.5455659494182 -9.291268746853646 0
v 153.5455659494182 -9.291268746853646 -0.1
v 153.17289688831494 -8.445084964216383 0
v 153.17289688831494 -8.445084964216383 -0.1
v 152.6849287170775 -7.739411706821002 0
v 152.6849287170775 -7.739411706821002 -0.1
v 151.96882598177112 -7.269592469586164 0
v 151.96882598177112 -7.269592469586164 -0.1
v 151.44349235817538 -6.9493171636578515 0
v 151.44349235817538 -6.9493171636578515 -0.1
v 151.2520662714782 -6.438190624145591 0
v 151.2520662714782 -6.438190624145591 -0.1
v 151.18948940401222 -5.9900515614659 0
v 151.18948940401222 -5.9900515614659 -0.1
v 151.71079905581553 -5.463486109770428 0
v 151.71079905581553 -5.463486109770428 -0.1
v 151.48258236987328 -3.6599255280274567 0
v 151.48258236987328 -3.6599255280274567 -0.1
v 142.48941602315293 -3.6361923066394355 0
v 142.48941602315293 -3.6361923066394355 -0.1
v 133.3873560724169 -3.700247367825098 0
v 133.3873560724169 -3.700247367825098 -0.1
v 120.72531291347777 -3.6655098154128734 0
v 120.72531291347777 -3.6655098154128734 -0.1
v 108.06318763266529 -3.630854384873964 0
v 108.06318763266529 -3.630854384873964 -0.1
v 88.80979655584817 -3.630854384873964 0
v 88.80979655584817 -3.630854384873964 -0.1
v 75.0184955169551 -3.6446508595908758 0
v 75.0184955169551 -3.6446508595908758 -0.1
v 75.05462914121368 -7.058128645800163 0
v 75.05462914121368 -7.058128645800163 -0.1
v 75.02251948874753 -11.221625500994902 0
v 75.02251948874753 -11.221625500994902 -0.1
v 75.01184364521659 -14.04719279614245 0
v 75.01184364521659 -14.04719279614245 -0.1
v 75.01184364521659 -17.300861416880842 0
v 75.01184364521659 -17.300861416880842 -0.1
v 75.02251948874753 -20.75794591782037 0
v 75.02251948874753 -20.75794591782037 -0.1
v 75.11884844614598 -24.09726765242625 0
v 75.11884844614598 -24.09726765242625 -0.1
v 75.18134319173865 -25.814928754681784 0
v 75.18134319173865 -25.814928754681784 -0.1
v 75.41497992131968 -28.085187942473627 0
v 75.41497992131968 -28.085187942473627 -0.1
v 77.84816890576839 -30.107028463487737 0
v 77.84816890576839 -30.107028463487737 -0.1
v 80.06808738521816 -32.08756168222443 0
v 80.06808738521816 -32.08756168222443 -0.1
v 82.33153045752488 -34.1443039993974 0
v 82.33153045752488 -34.1443039993974 -0.1
v 83.89858004412078 -35.48272629068448 0
v 83.89858004412078 -35.48272629068448 -0.1
v 85.30228922469325 -36.59268553040937 0
v 85.30228922469325 -36.59268553040937 -0.1
v 87.86941898451865 -36.605496542646506 0
v 87.86941898451865 -36.605496542646506 -0.1
v 93.95267887219703 -36.710858906109586 0
v 93.95267887219703 -36.710858906109586 -0.1
v 94.01985456456865 -34.442242155784044 0
v 94.01985456456865 -34.442242155784044 -0.1
v 91.36222650035018 -34.442242155784044 0
v 91.36222650035018 -34.442242155784044 -0.1
v 91.33644023212928 -32.27479955338252 0
v 91.33644023212928 -32.27479955338252 -0.1
v 93.99406829634775 -32.249013285161624 0
v 93.99406829634775 -32.249013285161624 -0.1
v 98.66425710989573 -27.320797545658053 0
v 98.66425710989573 -27.320797545658053 -0.1
v 94.51012214825892 -26.262903573614842 0
v 94.51012214825892 -26.262903573614842 -0.1
v 94.56177680657402 -21.334687834111275 0
v 94.56177680657402 -21.334687834111275 -0.1
v 94.51012214825892 -19.631726547179117 0
v 94.51012214825892 -19.631726547179117 -0.1
v 97.32254994367605 -19.580154010737328 0
v 97.32254994367605 -19.580154010737328 -0.1
v 97.29676367545517 -17.696606724385592 0
v 97.29676367545517 -17.696606724385592 -0.1
v 92.1363072782169 -17.696606724385592 0
v 92.1363072782169 -17.696606724385592 -0.1
v 92.1620935464378 -19.425354279538645 0
v 92.1620935464378 -19.425354279538645 -0.1
v 92.88460178786275 -19.45114054775954 0
v 92.88460178786275 -19.45114054775954 -0.1
v 92.80716086132675 -26.391917036592634 0
v 92.80716086132675 -26.391917036592634 -0.1
v 88.21441297431477 -26.340344500150845 0
v 88.21441297431477 -26.340344500150845 -0.1
v 88.16275831599965 -32.739280868851885 0
v 88.16275831599965 -32.739280868851885 -0.1
v 83.98497225484812 -30.77254412483211 0
v 83.98497225484812 -30.77254412483211 -0.1
v 82.16539790780872 -28.21543323355114 0
v 82.16539790780872 -28.21543323355114 -0.1
v 80.87050020937856 -25.363258451449546 0
v 80.87050020937856 -25.363258451449546 -0.1
v 80.03449953903235 -22.461892667232302 0
v 80.03449953903235 -22.461892667232302 -0.1
v 79.54989836460082 -18.900020655942896 0
v 79.54989836460082 -18.900020655942896 -0.1
v 92.8785293410985 -19.995394053189827 0
v 92.8785293410985 -19.995394053189827 -0.1
v 120.873022468493 -15.411673539487719 0
v 120.873022468493 -15.411673539487719 -0.1
v 124.70241996249875 -20.092348527689573 0
v 124.70241996249875 -20.092348527689573 -0.1
v 124.73657060299497 -20.002771052873985 0
v 124.73657060299497 -20.002771052873985 -0.1
v 126.08757371332302 -18.18058118365624 0
v 126.08757371332302 -18.18058118365624 -0.1
vt 79.39000707725661 -11.736283281059707 0
vt 85.55678491009628 -11.710497012838811 0
vt 85.53099864187539 -11.426683818662339 0
vt 88.08539951133696 -11.529828891545918 0
vt 88.03374485302187 -8.227215634311817 0
vt 104.16018135962558 -8.201347244217606 0
vt 110.61069026476842 -8.201347244217606 0
vt 110.63655865486261 -15.42601904910049 0
vt 120.8914454631939 -15.411647721270375 0
vt 120.8914454631939 -15.669674647225953 0
vt 121.69418677484757 -15.669674647225953 0
vt 120.83412439562008 -14.866933335572298 0
vt 122.92700033705162 -12.17202194086884 0
vt 127.77202661888715 -15.784316782373624 0
vt 125.73655386690275 -18.679934035458828 0
vt 125.30648161635234 -18.507888710864002 0
vt 123.55769632411045 -23.094970188617264 0
vt 123.41431153330254 -26.506641293613622 0
vt 124.13107124359544 -30.20491773647916 0
vt 125.85070327081054 -31.18027922584084 0
vt 124.66806617320192 -27.86222705642353 0
vt 124.47097367724602 -23.952897399138568 0
vt 125.22649491174359 -20.700542728373215 0
vt 126.73770162448534 -17.90815267004491 0
vt 128.74163957711679 -15.509947603628373 0
vt 130.4669380135906 -14.064192023918645 0
vt 130.52425908116444 -11.856673947339425 0
vt 131.09763400064944 -10.423236648626943 0
vt 132.5024928874483 -9.419789478591547 0
vt 141.9346006470371 -9.161762552635969 0
vt 143.8267707300869 -9.878522262928866 0
vt 144.85887843390924 -11.369280629215186 0
vt 144.91619950148305 -14.035531490131728 0
vt 153.79948678170803 -9.714524881918909 0
vt 153.5455659494182 -9.291268746853646 0
vt 153.17289688831494 -8.445084964216383 0
vt 152.6849287170775 -7.739411706821002 0
vt 151.96882598177112 -7.269592469586164 0
vt 151.44349235817538 -6.9493171636578515 0
vt 151.2520662714782 -6.438190624145591 0
vt 151.18948940401222 -5.9900515614659 0
vt 151.71079905581553 -5.463486109770428 0
vt 151.48258236987328 -3.6599255280274567 0
vt 142.48941602315293 -3.6361923066394355 0
vt 133.3873560724169 -3.700247367825098 0
vt 120.72531291347777 -3.6655098154128734 0
vt 108.06318763266529 -3.630854384873964 0
vt 88.80979655584817 -3.630854384873964 0
vt 75.0184955169551 -3.6446508595908758 0
vt 75.05462914121368 -7.058128645800163 0
vt 75.02251948874753 -11.221625500994902 0
vt 75.01184364521659 -14.04719279614245 0
vt 75.01184364521659 -17.300861416880842 0
vt 75.02251948874753 -20.75794591782037 0
vt 75.11884844614598 -24.09726765242625 0
vt 75.18134319173865 -25.814928754681784 0
vt 75.41497992131968 -28.085187942473627 0
vt 77.84816890576839 -30.107028463487737 0
vt 80.06808738521816 -32.08756168222443 0
vt 82.33153045752488 -34.1443039993974 0
vt 83.89858004412078 -35.48272629068448 0
vt 85.30228922469325 -36.59268553040937 0
vt 87.86941898451865 -36.605496542646506 0
vt 93.95267887219703 -36.710858906109586 0
vt 94.01985456456865 -34.442242155784044 0
vt 91.36222650035018 -34.442242155784044 0
vt 91.33644023212928 -32.27479955338252 0
vt 93.99406829634775 -32.249013285161624 0
vt 98.66425710989573 -27.320797545658053 0
vt 94.51012214825892 -26.262903573614842 0
vt 94.56177680657402 -21.334687834111275 0
vt 94.51012214825892 -19.631726547179117 0
vt 97.32254994367605 -19.580154010737328 0
vt 97.29676367545517 -17.696606724385592 0
vt 92.1363072782169 -17.696606724385592 0
vt 92.1620935464378 -19.425354279538645 0
vt 92.88460178786275 -19.45114054775954 0
vt 92.80716086132675 -26.391917036592634 0
vt 88.21441297431477 -26.340344500150845 0
vt 88.16275831599965 -32.739280868851885 0
vt 83.98497225484812 -30.77254412483211 0
vt 82.16539790780872 -28.21543323355114 0
vt 80.87050020937856 -25.363258451449546 0
vt 80.03449953903235 -22.461892667232302 0
vt 79.54989836460082 -18.900020655942896 0
vt 92.8785293410985 -19.995394053189827 0
vt 120.873022468493 -15.411673539487719 0
vt 124.70241996249875 -20.092348527689573 0
vt 124.73657060299497 -20.002771052873985 0
vt 126.08757371332302 -18.18058118365624 0
vn 0 0 1
vn 0 0 -1
usemtl floor_51
s off
f 97/49/1 99/50/1 1/1/1
f 2/1/2 100/50/2 98/49/2
f 97/49/1 1/1/1 9/5/1
f 10/5/2 2/1/2 98/49/2
f 97/49/1 9/5/1 95/48/1
f 96/48/2 10/5/2 98/49/2
f 95/48/1 9/5/1 11/6/1
f 12/6/2 10/5/2 96/48/2
f 95/48/1 11/6/1 93/47/1
f 94/47/2 12/6/2 96/48/2
f 93/47/1 11/6/1 13/7/1
f 14/7/2 12/6/2 94/47/2
f 93/47/1 13/7/1 91/46/1
f 92/46/2 14/7/2 94/47/2
f 91/46/1 13/7/1 25/13/1
f 26/13/2 14/7/2 92/46/2
f 91/46/1 25/13/1 55/28/1
f 56/28/2 26/13/2 92/46/2
f 91/46/1 55/28/1 89/45/1
f 90/45/2 56/28/2 92/46/2
f 89/45/1 55/28/1 57/29/1
f 58/29/2 56/28/2 90/45/2
f 89/45/1 57/29/1 59/30/1
f 60/30/2 58/29/2 90/45/2
f 89/45/1 59/30/1 87/44/1
f 88/44/2 60/30/2 90/45/2
f 87/44/1 59/30/1 61/31/1
f 62/31/2 60/30/2 88/44/2
f 87/44/1 61/31/1 81/41/1
f 82/41/2 62/31/2 88/44/2
f 87/44/1 81/41/1 85/43/1
f 86/43/2 82/41/2 88/44/2
f 85/43/1 81/41/1 83/42/1
f 84/42/2 82/41/2 86/43/2
f 67/34/1 69/35/1 63/32/1
f 64/32/2 70/35/2 68/34/2
f 67/34/1 63/32/1 65/33/1
f 66/33/2 64/32/2 68/34/2
f 127/64/1 129/65/1 131/66/1
f 132/66/2 130/65/2 128/64/2
f 127/64/1 131/66/1 125/63/1
f 126/63/2 132/66/2 128/64/2
f 123/62/1 125/63/1 159/80/1
f 160/80/2 126/63/2 124/62/2
f 123/62/1 159/80/1 121/61/1
f 122/61/2 160/80/2 124/62/2
f 121/61/1 159/80/1 161/81/1
f 162/81/2 160/80/2 122/61/2
f 121/61/1 161/81/1 119/60/1
f 120/60/2 162/81/2 122/61/2
f 119/60/1 161/81/1 117/59/1
f 118/59/2 162/81/2 120/60/2
f 113/57/1 115/58/1 165/83/1
f 166/83/2 116/58/2 114/57/2
f 113/57/1 165/83/1 111/56/1
f 112/56/2 166/83/2 114/57/2
f 111/56/1 165/83/1 109/55/1
f 110/55/2 166/83/2 112/56/2
f 109/55/1 165/83/1 167/84/1
f 168/84/2 166/83/2 110/55/2
f 109/55/1 167/84/1 107/54/1
f 108/54/2 168/84/2 110/55/2
f 107/54/1 167/84/1 169/85/1
f 170/85/2 168/84/2 108/54/2
f 107/54/1 169/85/1 105/53/1
f 106/53/2 170/85/2 108/54/2
f 105/53/1 169/85/1 103/52/1
f 104/52/2 170/85/2 106/53/2
f 103/52/1 169/85/1 1/1/1
f 2/1/2 170/85/2 104/52/2
f 103/52/1 1/1/1 101/51/1
f 102/51/2 2/1/2 104/52/2
f 101/51/1 1/1/1 99/50/1
f 100/50/2 2/1/2 102/51/2
f 1/1/1 3/2/1 5/3/1
f 6/3/2 4/2/2 2/1/2
f 1/1/1 5/3/1 9/5/1
f 10/5/2 6/3/2 2/1/2
f 9/5/1 5/3/1 7/4/1
f 8/4/2 6/3/2 10/5/2
f 13/7/1 15/8/1 23/12/1
f 24/12/2 16/8/2 14/7/2
f 13/7/1 23/12/1 25/13/1
f 26/13/2 24/12/2 14/7/2
f 25/13/1 27/14/1 53/27/1
f 54/27/2 28/14/2 26/13/2
f 25/13/1 53/27/1 55/28/1
f 56/28/2 54/27/2 26/13/2
f 61/31/1 63/32/1 77/39/1
f 78/39/2 64/32/2 62/31/2
f 61/31/1 77/39/1 79/40/1
f 80/40/2 78/39/2 62/31/2
f 61/31/1 79/40/1 81/41/1
f 82/41/2 80/40/2 62/31/2
f 73/37/1 75/38/1 71/36/1
f 72/36/2 76/38/2 74/37/2
f 71/36/1 75/38/1 69/35/1
f 70/35/2 76/38/2 72/36/2
f 69/35/1 75/38/1 77/39/1
f 78/39/2 76/38/2 70/35/2
f 69/35/1 77/39/1 63/32/1
f 64/32/2 78/39/2 70/35/2
f 39/20/1 41/21/1 37/19/1
f 38/19/2 42/21/2 40/20/2
f 37/19/1 41/21/1 35/18/1
f 36/18/2 42/21/2 38/19/2
f 137/69/1 139/70/1 135/68/1
f 136/68/2 140/70/2 138/69/2
f 131/66/1 133/67/1 159/80/1
f 160/80/2 134/67/2 132/66/2
f 131/66/1 159/80/1 125/63/1
f 126/63/2 160/80/2 132/66/2
f 159/80/1 133/67/1 157/79/1
f 158/79/2 134/67/2 160/80/2
f 161/81/1 163/82/1 117/59/1
f 118/59/2 164/82/2 162/81/2
f 117/59/1 163/82/1 115/58/1
f 116/58/2 164/82/2 118/59/2
f 115/58/1 163/82/1 165/83/1
f 166/83/2 164/82/2 116/58/2
f 147/74/1 149/75/1 143/72/1
f 144/72/2 150/75/2 148/74/2
f 147/74/1 143/72/1 145/73/1
f 146/73/2 144/72/2 148/74/2
f 141/71/1 143/72/1 153/77/1
f 154/77/2 144/72/2 142/71/2
f 153/77/1 171/86/1 141/71/1
f 142/71/2 172/86/2 154/77/2
f 171/86/1 155/78/1 141/71/1
f 142/71/2 156/78/2 172/86/2
f 141/71/1 155/78/1 139/70/1
f 140/70/2 156/78/2 142/71/2
f 139/70/1 155/78/1 135/68/1
f 136/68/2 156/78/2 140/70/2
f 135/68/1 155/78/1 133/67/1
f 134/67/2 156/78/2 136/68/2
f 133/67/1 155/78/1 157/79/1
f 158/79/2 156/78/2 134/67/2
f 151/76/1 153/77/1 149/75/1
f 150/75/2 154/77/2 152/76/2
f 149/75/1 153/77/1 143/72/1
f 144/72/2 154/77/2 150/75/2
f 173/87/1 23/12/1 15/8/1
f 16/8/2 24/12/2 174/87/2
f 173/87/1 17/9/1 23/12/1
f 24/12/2 18/9/2 174/87/2
f 23/12/1 17/9/1 21/11/1
f 22/11/2 18/9/2 24/12/2
f 21/11/1 17/9/1 19/10/1
f 20/10/2 18/9/2 22/11/2
f 175/88/1 45/23/1 177/89/1
f 178/89/2 46/23/2 176/88/2
f 177/89/1 45/23/1 31/16/1
f 32/16/2 46/23/2 178/89/2
f 179/90/1 47/24/1 27/14/1
f 28/14/2 48/24/2 180/90/2
f 27/14/1 47/24/1 49/25/1
f 50/25/2 48/24/2 28/14/2
f 27/14/1 49/25/1 53/27/1
f 54/27/2 50/25/2 28/14/2
f 53/27/1 49/25/1 51/26/1
f 52/26/2 50/25/2 54/27/2
f 29/15/1 47/24/1 179/90/1
f 180/90/2 48/24/2 30/15/2
f 47/24/1 29/15/1 45/23/1
f 46/23/2 30/15/2 48/24/2
f 41/21/1 43/22/1 35/18/1
f 36/18/2 44/22/2 42/21/2
f 35/18/1 43/22/1 33/17/1
f 34/17/2 44/22/2 36/18/2
f 33/17/1 43/22/1 45/23/1
f 46/23/2 44/22/2 34/17/2
f 33/17/1 45/23/1 175/88/1
f 176/88/2 46/23/2 34/17/2
f 45/23/1 29/15/1 31/16/1
f 32/16/2 30/15/2 46/23/2
