# The Great Editor v0.0.1
mtllib floor_72.mtl
o floor_72
v 27.97514463223159 -47.299899616959415 0
v 27.97514463223159 -47.299899616959415 -0.1
v 29.47600398893565 -47.24725949616453 0
v 29.47600398893565 -47.24725949616453 -0.1
v 29.471405164030013 -50.08276353798319 0
v 29.471405164030013 -50.08276353798319 -0.1
v 30.98827828603049 -50.13507517128481 0
v 30.98827828603049 -50.13507517128481 -0.1
v 30.91855681558609 -51.66944025230137 0
v 30.91855681558609 -51.66944025230137 -0.1
v 30.91855681558609 -57.09178330354101 0
v 30.91855681558609 -57.09178330354101 -0.1
v 38.48543046657238 -57.07437346639824 0
v 38.48543046657238 -57.07437346639824 -0.1
v 38.49528509137017 -58.158135828535656 0
v 38.49528509137017 -58.158135828535656 -0.1
v 35.934478715790036 -58.161749190961515 0
v 35.934478715790036 -58.161749190961515 -0.1
v 35.96034710588424 -58.5230854335473 0
v 35.96034710588424 -58.5230854335473 -0.1
v 33.54694949290444 -58.53606068953106 0
v 33.54694949290444 -58.53606068953106 -0.1
v 33.52116322468354 -59.1683991140562 0
v 33.52116322468354 -59.1683991140562 -0.1
v 30.888418088079508 -59.25873317470265 0
v 30.888418088079508 -59.25873317470265 -0.1
v 30.829700948659312 -62.89689640630164 0
v 30.829700948659312 -62.89689640630164 -0.1
v 35.335153284337515 -62.910446515398604 0
v 35.335153284337515 -62.910446515398604 -0.1
v 35.28817957280136 -64.1978711233571 0
v 35.28817957280136 -64.1978711233571 -0.1
v 23.963080511429617 -64.22160434474513 0
v 23.963080511429617 -64.22160434474513 -0.1
v 23.89007416605263 -63.4003034897223 0
v 23.89007416605263 -63.4003034897223 -0.1
v 24.802612422328373 -63.34561032209454 0
v 24.802612422328373 -63.34561032209454 -0.1
v 24.76606818870322 -62.0497271611846 0
v 24.76606818870322 -62.0497271611846 -0.1
v 24.888183414322555 -58.49844887155282 0
v 24.888183414322555 -58.49844887155282 -0.1
v 27.952643238943292 -58.45336396310291 0
v 27.952643238943292 -58.45336396310291 -0.1
v 27.963946148235973 -52.85075108538584 0
v 27.963946148235973 -52.85075108538584 -0.1
v 35.10039543783568 -57.08216174347159 0
v 35.10039543783568 -57.08216174347159 -0.1
vt 27.97514463223159 -47.299899616959415 0
vt 29.47600398893565 -47.24725949616453 0
vt 29.471405164030013 -50.08276353798319 0
vt 30.98827828603049 -50.13507517128481 0
vt 30.91855681558609 -51.66944025230137 0
vt 30.91855681558609 -57.09178330354101 0
vt 38.48543046657238 -57.07437346639824 0
vt 38.49528509137017 -58.158135828535656 0
vt 35.934478715790036 -58.161749190961515 0
vt 35.96034710588424 -58.5230854335473 0
vt 33.54694949290444 -58.53606068953106 0
vt 33.52116322468354 -59.1683991140562 0
vt 30.888418088079508 -59.25873317470265 0
vt 30.829700948659312 -62.89689640630164 0
vt 35.335153284337515 -62.910446515398604 0
vt 35.28817957280136 -64.1978711233571 0
vt 23.963080511429617 -64.22160434474513 0
vt 23.89007416605263 -63.4003034897223 0
vt 24.802612422328373 -63.34561032209454 0
vt 24.76606818870322 -62.0497271611846 0
vt 24.888183414322555 -58.49844887155282 0
vt 27.952643238943292 -58.45336396310291 0
vt 27.963946148235973 -52.85075108538584 0
vt 35.10039543783568 -57.08216174347159 0
vn 0 0 1
vn 0 0 -1
usemtl floor_72
s off
f 45/23/1 5/3/1 1/1/1
f 2/1/2 6/3/2 46/23/2
f 1/1/1 5/3/1 3/2/1
f 4/2/2 6/3/2 2/1/2
f 47/24/1 17/9/1 13/7/1
f 14/7/2 18/9/2 48/24/2
f 13/7/1 17/9/1 15/8/1
f 16/8/2 18/9/2 14/7/2
f 31/16/1 29/15/1 27/14/1
f 28/14/2 30/15/2 32/16/2
f 31/16/1 27/14/1 33/17/1
f 34/17/2 28/14/2 32/16/2
f 33/17/1 27/14/1 37/19/1
f 38/19/2 28/14/2 34/17/2
f 33/17/1 37/19/1 35/18/1
f 36/18/2 38/19/2 34/17/2
f 41/21/1 39/20/1 43/22/1
f 44/22/2 40/20/2 42/21/2
f 45/23/1 43/22/1 5/3/1
f 6/3/2 44/22/2 46/23/2
f 5/3/1 43/22/1 9/5/1
f 10/5/2 44/22/2 6/3/2
f 5/3/1 9/5/1 7/4/1
f 8/4/2 10/5/2 6/3/2
f 9/5/1 43/22/1 11/6/1
f 12/6/2 44/22/2 10/5/2
f 11/6/1 17/9/1 47/24/1
f 48/24/2 18/9/2 12/6/2
f 17/9/1 11/6/1 21/11/1
f 22/11/2 12/6/2 18/9/2
f 17/9/1 21/11/1 19/10/1
f 20/10/2 22/11/2 18/9/2
f 27/14/1 25/13/1 43/22/1
f 44/22/2 26/13/2 28/14/2
f 27/14/1 43/22/1 39/20/1
f 40/20/2 44/22/2 28/14/2
f 27/14/1 39/20/1 37/19/1
f 38/19/2 40/20/2 28/14/2
f 43/22/1 25/13/1 11/6/1
f 12/6/2 26/13/2 44/22/2
f 11/6/1 25/13/1 21/11/1
f 22/11/2 26/13/2 12/6/2
f 21/11/1 25/13/1 23/12/1
f 24/12/2 26/13/2 22/11/2
