# The Great Editor v0.0.1
mtllib floor_1.mtl
o floor_1
v 34.65970087632204 -38.51228431914637 0
v 34.65970087632204 -38.51228431914637 -0.1
v 30.428699841262404 -39.28841814384598 0
v 30.428699841262404 -39.28841814384598 -0.1
v 30.403652669901344 -37.38573646101186 0
v 30.403652669901344 -37.38573646101186 -0.1
v 33.533070896314214 -37.31059494692868 0
v 33.533070896314214 -37.31059494692868 -0.1
v 33.63325958175845 -31.877822417778045 0
v 33.63325958175845 -31.877822417778045 -0.1
v 33.63325958175845 -25.719010406649918 0
v 33.63325958175845 -25.719010406649918 -0.1
v 40.292768654487844 -25.719010406649918 0
v 40.292768654487844 -25.719010406649918 -0.1
v 40.3178158258489 -18.733970228100063 0
v 40.3178158258489 -18.733970228100063 -0.1
v 40.3178158258489 -14.828418176987586 0
v 40.3178158258489 -14.828418176987586 -0.1
v 40.3178158258489 -13.276150527588367 0
v 40.3178158258489 -13.276150527588367 -0.1
v 49.1211164014651 -13.276232649461681 0
v 49.1211164014651 -13.276232649461681 -0.1
v 49.13047829502301 -18.809111742183244 0
v 49.13047829502301 -18.809111742183244 -0.1
v 47.42800973933075 -32.97940522642481 0
v 47.42800973933075 -32.97940522642481 -0.1
v 39.94227249917962 -36.63464980767331 0
v 39.94227249917962 -36.63464980767331 -0.1
vt 34.65970087632204 -38.51228431914637 0
vt 30.428699841262404 -39.28841814384598 0
vt 30.403652669901344 -37.38573646101186 0
vt 33.533070896314214 -37.31059494692868 0
vt 33.63325958175845 -31.877822417778045 0
vt 33.63325958175845 -25.719010406649918 0
vt 40.292768654487844 -25.719010406649918 0
vt 40.3178158258489 -18.733970228100063 0
vt 40.3178158258489 -14.828418176987586 0
vt 40.3178158258489 -13.276150527588367 0
vt 49.1211164014651 -13.276232649461681 0
vt 49.13047829502301 -18.809111742183244 0
vt 47.42800973933075 -32.97940522642481 0
vt 39.94227249917962 -36.63464980767331 0
vn 0 0 1
vn 0 0 -1
usemtl floor_1
s off
f 11/6/1 9/5/1 13/7/1
f 14/7/2 10/5/2 12/6/2
f 19/10/1 17/9/1 21/11/1
f 22/11/2 18/9/2 20/10/2
f 21/11/1 17/9/1 23/12/1
f 24/12/2 18/9/2 22/11/2
f 3/2/1 1/1/1 7/4/1
f 8/4/2 2/1/2 4/2/2
f 3/2/1 7/4/1 5/3/1
f 6/3/2 8/4/2 4/2/2
f 9/5/1 7/4/1 27/14/1
f 28/14/2 8/4/2 10/5/2
f 9/5/1 27/14/1 13/7/1
f 14/7/2 28/14/2 10/5/2
f 13/7/1 27/14/1 25/13/1
f 26/13/2 28/14/2 14/7/2
f 13/7/1 25/13/1 23/12/1
f 24/12/2 26/13/2 14/7/2
f 13/7/1 23/12/1 15/8/1
f 16/8/2 24/12/2 14/7/2
f 15/8/1 23/12/1 17/9/1
f 18/9/2 24/12/2 16/8/2
f 27/14/1 7/4/1 1/1/1
f 2/1/2 8/4/2 28/14/2
