# The Great Editor v0.0.1
mtllib floor_50.mtl
o floor_50
v 0.08351794516130596 -28.323012887593723 0
v 0.08351794516130596 -28.323012887593723 -0.1
v 3.414709614309011 -24.672285009377543 0
v 3.414709614309011 -24.672285009377543 -0.1
v 5.787703265617858 -20.83908232865554 0
v 5.787703265617858 -20.83908232865554 -0.1
v 10.761743010431173 -2.0837604134935868 0
v 10.761743010431173 -2.0837604134935868 -0.1
v 10.716083248868062 -0.12145825063281372 0
v 10.716083248868062 -0.12145825063281372 -0.1
v 13.727902952693917 -0.12145825063281372 0
v 13.727902952693917 -0.12145825063281372 -0.1
v 13.77356271425703 -4.684806506998055 0
v 13.77356271425703 -4.684806506998055 -0.1
v 16.3290311680717 -4.6392288673082565 0
v 16.3290311680717 -4.6392288673082565 -0.1
v 16.33978913347596 -11.607269818081917 0
v 16.33978913347596 -11.607269818081917 -0.1
v 32.89703698748991 -11.676909166652996 0
v 32.89703698748991 -11.676909166652996 -0.1
v 32.850556007193646 -3.5957062230951644 0
v 32.850556007193646 -3.5957062230951644 -0.1
v 52.082595396948896 -3.6263376818416417 0
v 52.082595396948896 -3.6263376818416417 -0.1
v 54.61802611367472 -3.6266661693349014 0
v 54.61802611367472 -3.6266661693349014 -0.1
v 54.0609934469794 -5.5291836084223895 0
v 54.0609934469794 -5.5291836084223895 -0.1
v 53.19904226466567 -8.430303027019692 0
v 53.19904226466567 -8.430303027019692 -0.1
v 51.93773241242132 -12.025105909508392 0
v 51.93773241242132 -12.025105909508392 -0.1
v 50.47505972680871 -10.312043632158497 0
v 50.47505972680871 -10.312043632158497 -0.1
v 51.03554151218326 -9.979532167106258 0
v 51.03554151218326 -9.979532167106258 -0.1
v 51.42176068238348 -9.107151506881523 0
v 51.42176068238348 -9.107151506881523 -0.1
v 51.78621755615523 -8.835574471828979 0
v 51.78621755615523 -8.835574471828979 -0.1
v 52.0529494006822 -8.24651427454083 0
v 52.0529494006822 -8.24651427454083 -0.1
v 52.26293503074853 -7.21498142383172 0
v 52.26293503074853 -7.21498142383172 -0.1
v 52.16759153582987 -6.476130929617099 0
v 52.16759153582987 -6.476130929617099 -0.1
v 51.89346872270456 -5.880336738717124 0
v 51.89346872270456 -5.880336738717124 -0.1
v 51.047449183813924 -5.737362557275793 0
v 51.047449183813924 -5.737362557275793 -0.1
v 49.98733792119121 -5.922711625347638 0
v 49.98733792119121 -5.922711625347638 -0.1
v 49.89158381690598 -5.451414194393131 0
v 49.89158381690598 -5.451414194393131 -0.1
v 49.499698237447035 -5.262944495135316 0
v 49.499698237447035 -5.262944495135316 -0.1
v 49.12891797943003 -5.105845351483813 0
v 49.12891797943003 -5.105845351483813 -0.1
v 48.63897888323302 -5.291605028922235 0
v 48.63897888323302 -5.291605028922235 -0.1
v 48.11610891583672 -5.0462248714571585 0
v 48.11610891583672 -5.0462248714571585 -0.1
v 47.54889313685035 -5.148138116241014 0
v 47.54889313685035 -5.148138116241014 -0.1
v 46.99596656382078 -5.344163027843803 0
v 46.99596656382078 -5.344163027843803 -0.1
v 46.68817378263634 -6.0087753485817075 0
v 46.68817378263634 -6.0087753485817075 -0.1
v 46.05460353001149 -6.190182566734436 0
v 46.05460353001149 -6.190182566734436 -0.1
v 45.79887601650873 -6.639964066880428 0
v 45.79887601650873 -6.639964066880428 -0.1
v 40.80709794705938 -6.12358172747601 0
v 40.80709794705938 -6.12358172747601 -0.1
v 40.656568553273075 -5.570573032573125 0
v 40.656568553273075 -5.570573032573125 -0.1
v 40.11858816118683 -5.205541305688165 0
v 40.11858816118683 -5.205541305688165 -0.1
v 39.393452019815804 -5.117753023114481 0
v 39.393452019815804 -5.117753023114481 -0.1
v 38.8562928464627 -5.549796198624443 0
v 38.8562928464627 -5.549796198624443 -0.1
v 38.65542274433433 -6.094839071815778 0
v 38.65542274433433 -6.094839071815778 -0.1
v 36.70034730632528 -6.237813253257109 0
v 36.70034730632528 -6.237813253257109 -0.1
v 36.056922428902624 -6.297433733283763 0
v 36.056922428902624 -6.297433733283763 -0.1
v 35.46112823800265 -6.380869556571755 0
v 35.46112823800265 -6.380869556571755 -0.1
v 35.175097753246675 -6.8097921008957485 0
v 35.175097753246675 -6.8097921008957485 -0.1
v 35.18413115931132 -7.385877042200135 0
v 35.18413115931132 -7.385877042200135 -0.1
v 34.51968308232004 -7.334140262011716 0
v 34.51968308232004 -7.334140262011716 -0.1
v 34.15136648050249 -7.787453002710249 0
v 34.15136648050249 -7.787453002710249 -0.1
v 33.995417043077396 -8.44237494239699 0
v 33.995417043077396 -8.44237494239699 -0.1
v 34.40955765020469 -9.049748317434373 0
v 34.40955765020469 -9.049748317434373 -0.1
v 35.06940690229033 -9.049748317434373 0
v 35.06940690229033 -9.049748317434373 -0.1
v 35.127467066724 -9.502896814386277 0
v 35.127467066724 -9.502896814386277 -0.1
v 35.55712870790783 -9.70959756952001 0
v 35.55712870790783 -9.70959756952001 -0.1
v 35.90195845395731 -9.872281000556931 0
v 35.90195845395731 -9.872281000556931 -0.1
v 36.53249019726952 -9.738340225180245 0
v 36.53249019726952 -9.738340225180245 -0.1
v 37.048872536673926 -9.193215230115594 0
v 37.048872536673926 -9.193215230115594 -0.1
v 37.85621267323322 -9.014271668162314 0
v 37.85621267323322 -9.014271668162314 -0.1
v 38.02431614790893 -8.504705444243038 0
v 38.02431614790893 -8.504705444243038 -0.1
v 42.41364815471978 -8.590769167477108 0
v 42.41364815471978 -8.590769167477108 -0.1
v 42.443951125973 -9.204958657999631 0
v 42.443951125973 -9.204958657999631 -0.1
v 42.81530623710322 -9.70959756952001 0
v 42.81530623710322 -9.70959756952001 -0.1
v 43.49256532633162 -9.800752848899608 0
v 43.49256532633162 -9.800752848899608 -0.1
v 44.077519429954016 -9.537470123051872 0
v 44.077519429954016 -9.537470123051872 -0.1
v 44.27838953208239 -8.820299803392398 0
v 44.27838953208239 -8.820299803392398 -0.1
v 47.60621420442419 -8.877620870966235 0
v 47.60621420442419 -8.877620870966235 -0.1
v 47.44878657327942 -9.45518400599029 0
v 47.44878657327942 -9.45518400599029 -0.1
v 47.60621420442419 -10.11125565190344 0
v 47.60621420442419 -10.11125565190344 -0.1
v 48.42587262198072 -10.384639368168914 0
v 48.42587262198072 -10.384639368168914 -0.1
v 49.12670068885052 -10.19731937513751 0
v 49.12670068885052 -10.19731937513751 -0.1
v 49.1211164014651 -13.276232649461681 0
v 49.1211164014651 -13.276232649461681 -0.1
v 40.3178158258489 -13.276150527588367 0
v 40.3178158258489 -13.276150527588367 -0.1
v 40.3178158258489 -14.828418176987586 0
v 40.3178158258489 -14.828418176987586 -0.1
v 33.758413316690444 -14.778323834265464 0
v 33.758413316690444 -14.778323834265464 -0.1
v 12.753362682065385 -14.778323834265464 0
v 12.753362682065385 -14.778323834265464 -0.1
v 11.55159118797438 -21.387820686146046 0
v 11.55159118797438 -21.387820686146046 -0.1
v 9.774063240072248 -26.36990837454423 0
v 9.774063240072248 -26.36990837454423 -0.1
v 7.104691747969739 -31.362179175233464 0
v 7.104691747969739 -31.362179175233464 -0.1
v 2.939306089688755 -37.08525252655245 0
v 2.939306089688755 -37.08525252655245 -0.1
v 2.989318310537561 -40.46514246657593 0
v 2.989318310537561 -40.46514246657593 -0.1
v 6.051971453945372 -41.36158483568194 0
v 6.051971453945372 -41.36158483568194 -0.1
v 9.774063240072248 -41.591690324710434 0
v 9.774063240072248 -41.591690324710434 -0.1
v 10.975834734163252 -36.68466202852212 0
v 10.975834734163252 -36.68466202852212 -0.1
v 12.953657931080551 -32.17822423036414 0
v 12.953657931080551 -32.17822423036414 -0.1
v 15.307024454667125 -28.42287308554471 0
v 15.307024454667125 -28.42287308554471 -0.1
v 14.030193568366256 -27.646739260845095 0
v 14.030193568366256 -27.646739260845095 -0.1
v 13.504449335403933 -26.36990837454423 0
v 13.504449335403933 -26.36990837454423 -0.1
v 24.069510459245798 -26.36990837454423 0
v 24.069510459245798 -26.36990837454423 -0.1
v 16.60479641866331 -36.52838410360376 0
v 16.60479641866331 -36.52838410360376 -0.1
v 14.924254403146136 -36.58266666186495 0
v 14.924254403146136 -36.58266666186495 -0.1
v 14.978454839534004 -37.450037887817466 0
v 14.978454839534004 -37.450037887817466 -0.1
v 15.719358380581498 -38.678827478229096 0
v 15.719358380581498 -38.678827478229096 -0.1
v 18.533100125971693 -43.55850919060353 0
v 18.533100125971693 -43.55850919060353 -0.1
v 12.244617676879258 -44.20152345865961 0
v 12.244617676879258 -44.20152345865961 -0.1
v 8.052213922277655 -44.39442773907642 0
v 8.052213922277655 -44.39442773907642 -0.1
v 4.361410569883775 -43.841419044173534 0
v 4.361410569883775 -43.841419044173534 -0.1
v 0.1047875103498785 -43.3013034833811 0
v 0.1047875103498785 -43.3013034833811 -0.1
v 0.0320275305928312 -40.00525997601219 0
v 0.0320275305928312 -40.00525997601219 -0.1
v 18.000153827789518 -14.778323834265464 0
v 18.000153827789518 -14.778323834265464 -0.1
v 41.29799879231598 -13.27615967125678 0
v 41.29799879231598 -13.27615967125678 -0.1
vt 0.08351794516130596 -28.323012887593723 0
vt 3.414709614309011 -24.672285009377543 0
vt 5.787703265617858 -20.83908232865554 0
vt 10.761743010431173 -2.0837604134935868 0
vt 10.716083248868062 -0.12145825063281372 0
vt 13.727902952693917 -0.12145825063281372 0
vt 13.77356271425703 -4.684806506998055 0
vt 16.3290311680717 -4.6392288673082565 0
vt 16.33978913347596 -11.607269818081917 0
vt 32.89703698748991 -11.676909166652996 0
vt 32.850556007193646 -3.5957062230951644 0
vt 52.082595396948896 -3.6263376818416417 0
vt 54.61802611367472 -3.6266661693349014 0
vt 54.0609934469794 -5.5291836084223895 0
vt 53.19904226466567 -8.430303027019692 0
vt 51.93773241242132 -12.025105909508392 0
vt 50.47505972680871 -10.312043632158497 0
vt 51.03554151218326 -9.979532167106258 0
vt 51.42176068238348 -9.107151506881523 0
vt 51.78621755615523 -8.835574471828979 0
vt 52.0529494006822 -8.24651427454083 0
vt 52.26293503074853 -7.21498142383172 0
vt 52.16759153582987 -6.476130929617099 0
vt 51.89346872270456 -5.880336738717124 0
vt 51.047449183813924 -5.737362557275793 0
vt 49.98733792119121 -5.922711625347638 0
vt 49.89158381690598 -5.451414194393131 0
vt 49.499698237447035 -5.262944495135316 0
vt 49.12891797943003 -5.105845351483813 0
vt 48.63897888323302 -5.291605028922235 0
vt 48.11610891583672 -5.0462248714571585 0
vt 47.54889313685035 -5.148138116241014 0
vt 46.99596656382078 -5.344163027843803 0
vt 46.68817378263634 -6.0087753485817075 0
vt 46.05460353001149 -6.190182566734436 0
vt 45.79887601650873 -6.639964066880428 0
vt 40.80709794705938 -6.12358172747601 0
vt 40.656568553273075 -5.570573032573125 0
vt 40.11858816118683 -5.205541305688165 0
vt 39.393452019815804 -5.117753023114481 0
vt 38.8562928464627 -5.549796198624443 0
vt 38.65542274433433 -6.094839071815778 0
vt 36.70034730632528 -6.237813253257109 0
vt 36.056922428902624 -6.297433733283763 0
vt 35.46112823800265 -6.380869556571755 0
vt 35.175097753246675 -6.8097921008957485 0
vt 35.18413115931132 -7.385877042200135 0
vt 34.51968308232004 -7.334140262011716 0
vt 34.15136648050249 -7.787453002710249 0
vt 33.995417043077396 -8.44237494239699 0
vt 34.40955765020469 -9.049748317434373 0
vt 35.06940690229033 -9.049748317434373 0
vt 35.127467066724 -9.502896814386277 0
vt 35.55712870790783 -9.70959756952001 0
vt 35.90195845395731 -9.872281000556931 0
vt 36.53249019726952 -9.738340225180245 0
vt 37.048872536673926 -9.193215230115594 0
vt 37.85621267323322 -9.014271668162314 0
vt 38.02431614790893 -8.504705444243038 0
vt 42.41364815471978 -8.590769167477108 0
vt 42.443951125973 -9.204958657999631 0
vt 42.81530623710322 -9.70959756952001 0
vt 43.49256532633162 -9.800752848899608 0
vt 44.077519429954016 -9.537470123051872 0
vt 44.27838953208239 -8.820299803392398 0
vt 47.60621420442419 -8.877620870966235 0
vt 47.44878657327942 -9.45518400599029 0
vt 47.60621420442419 -10.11125565190344 0
vt 48.42587262198072 -10.384639368168914 0
vt 49.12670068885052 -10.19731937513751 0
vt 49.1211164014651 -13.276232649461681 0
vt 40.3178158258489 -13.276150527588367 0
vt 40.3178158258489 -14.828418176987586 0
vt 33.758413316690444 -14.778323834265464 0
vt 12.753362682065385 -14.778323834265464 0
vt 11.55159118797438 -21.387820686146046 0
vt 9.774063240072248 -26.36990837454423 0
vt 7.104691747969739 -31.362179175233464 0
vt 2.939306089688755 -37.08525252655245 0
vt 2.989318310537561 -40.46514246657593 0
vt 6.051971453945372 -41.36158483568194 0
vt 9.774063240072248 -41.591690324710434 0
vt 10.975834734163252 -36.68466202852212 0
vt 12.953657931080551 -32.17822423036414 0
vt 15.307024454667125 -28.42287308554471 0
vt 14.030193568366256 -27.646739260845095 0
vt 13.504449335403933 -26.36990837454423 0
vt 24.069510459245798 -26.36990837454423 0
vt 16.60479641866331 -36.52838410360376 0
vt 14.924254403146136 -36.58266666186495 0
vt 14.978454839534004 -37.450037887817466 0
vt 15.719358380581498 -38.678827478229096 0
vt 18.533100125971693 -43.55850919060353 0
vt 12.244617676879258 -44.20152345865961 0
vt 8.052213922277655 -44.39442773907642 0
vt 4.361410569883775 -43.841419044173534 0
vt 0.1047875103498785 -43.3013034833811 0
vt 0.0320275305928312 -40.00525997601219 0
vt 18.000153827789518 -14.778323834265464 0
vt 41.29799879231598 -13.27615967125678 0
vn 0 0 1
vn 0 0 -1
usemtl floor_50
s off
f 1/1/1 195/98/1 157/79/1
f 158/79/2 196/98/2 2/1/2
f 1/1/1 157/79/1 155/78/1
f 156/78/2 158/79/2 2/1/2
f 1/1/1 155/78/1 3/2/1
f 4/2/2 156/78/2 2/1/2
f 9/5/1 7/4/1 11/6/1
f 12/6/2 8/4/2 10/5/2
f 11/6/1 7/4/1 13/7/1
f 14/7/2 8/4/2 12/6/2
f 25/13/1 23/12/1 27/14/1
f 28/14/2 24/12/2 26/13/2
f 189/95/1 187/94/1 163/82/1
f 164/82/2 188/94/2 190/95/2
f 189/95/1 163/82/1 161/81/1
f 162/81/2 164/82/2 190/95/2
f 189/95/1 161/81/1 191/96/1
f 192/96/2 162/81/2 190/95/2
f 193/97/1 191/96/1 159/80/1
f 160/80/2 192/96/2 194/97/2
f 193/97/1 159/80/1 195/98/1
f 196/98/2 160/80/2 194/97/2
f 195/98/1 159/80/1 157/79/1
f 158/79/2 160/80/2 196/98/2
f 155/78/1 153/77/1 3/2/1
f 4/2/2 154/77/2 156/78/2
f 3/2/1 153/77/1 5/3/1
f 6/3/2 154/77/2 4/2/2
f 5/3/1 153/77/1 151/76/1
f 152/76/2 154/77/2 6/3/2
f 5/3/1 151/76/1 149/75/1
f 150/75/2 152/76/2 6/3/2
f 5/3/1 149/75/1 7/4/1
f 8/4/2 150/75/2 6/3/2
f 7/4/1 149/75/1 13/7/1
f 14/7/2 150/75/2 8/4/2
f 13/7/1 149/75/1 17/9/1
f 18/9/2 150/75/2 14/7/2
f 13/7/1 17/9/1 15/8/1
f 16/8/2 18/9/2 14/7/2
f 21/11/1 19/10/1 99/50/1
f 100/50/2 20/10/2 22/11/2
f 21/11/1 99/50/1 97/49/1
f 98/49/2 100/50/2 22/11/2
f 21/11/1 97/49/1 95/48/1
f 96/48/2 98/49/2 22/11/2
f 21/11/1 95/48/1 91/46/1
f 92/46/2 96/48/2 22/11/2
f 21/11/1 91/46/1 89/45/1
f 90/45/2 92/46/2 22/11/2
f 21/11/1 89/45/1 87/44/1
f 88/44/2 90/45/2 22/11/2
f 21/11/1 87/44/1 85/43/1
f 86/43/2 88/44/2 22/11/2
f 21/11/1 85/43/1 81/41/1
f 82/41/2 86/43/2 22/11/2
f 21/11/1 81/41/1 79/40/1
f 80/40/2 82/41/2 22/11/2
f 21/11/1 79/40/1 23/12/1
f 24/12/2 80/40/2 22/11/2
f 23/12/1 79/40/1 77/39/1
f 78/39/2 80/40/2 24/12/2
f 23/12/1 77/39/1 63/32/1
f 64/32/2 78/39/2 24/12/2
f 23/12/1 63/32/1 61/31/1
f 62/31/2 64/32/2 24/12/2
f 23/12/1 61/31/1 57/29/1
f 58/29/2 62/31/2 24/12/2
f 23/12/1 57/29/1 55/28/1
f 56/28/2 58/29/2 24/12/2
f 23/12/1 55/28/1 53/27/1
f 54/27/2 56/28/2 24/12/2
f 23/12/1 53/27/1 49/25/1
f 50/25/2 54/27/2 24/12/2
f 23/12/1 49/25/1 47/24/1
f 48/24/2 50/25/2 24/12/2
f 23/12/1 47/24/1 27/14/1
f 28/14/2 48/24/2 24/12/2
f 27/14/1 47/24/1 45/23/1
f 46/23/2 48/24/2 28/14/2
f 27/14/1 45/23/1 43/22/1
f 44/22/2 46/23/2 28/14/2
f 27/14/1 43/22/1 29/15/1
f 30/15/2 44/22/2 28/14/2
f 29/15/1 43/22/1 41/21/1
f 42/21/2 44/22/2 30/15/2
f 29/15/1 41/21/1 39/20/1
f 40/20/2 42/21/2 30/15/2
f 29/15/1 39/20/1 31/16/1
f 32/16/2 40/20/2 30/15/2
f 31/16/1 39/20/1 35/18/1
f 36/18/2 40/20/2 32/16/2
f 31/16/1 35/18/1 33/17/1
f 34/17/2 36/18/2 32/16/2
f 185/93/1 183/92/1 187/94/1
f 188/94/2 184/92/2 186/93/2
f 187/94/1 183/92/1 163/82/1
f 164/82/2 184/92/2 188/94/2
f 163/82/1 183/92/1 181/91/1
f 182/91/2 184/92/2 164/82/2
f 163/82/1 181/91/1 165/83/1
f 166/83/2 182/91/2 164/82/2
f 165/83/1 181/91/1 179/90/1
f 180/90/2 182/91/2 166/83/2
f 165/83/1 179/90/1 167/84/1
f 168/84/2 180/90/2 166/83/2
f 167/84/1 179/90/1 177/89/1
f 178/89/2 180/90/2 168/84/2
f 167/84/1 177/89/1 169/85/1
f 170/85/2 178/89/2 168/84/2
f 149/75/1 197/99/1 17/9/1
f 18/9/2 198/99/2 150/75/2
f 17/9/1 197/99/1 147/74/1
f 148/74/2 198/99/2 18/9/2
f 17/9/1 147/74/1 19/10/1
f 20/10/2 148/74/2 18/9/2
f 19/10/1 147/74/1 109/55/1
f 110/55/2 148/74/2 20/10/2
f 19/10/1 109/55/1 107/54/1
f 108/54/2 110/55/2 20/10/2
f 19/10/1 107/54/1 105/53/1
f 106/53/2 108/54/2 20/10/2
f 19/10/1 105/53/1 101/51/1
f 102/51/2 106/53/2 20/10/2
f 19/10/1 101/51/1 99/50/1
f 100/50/2 102/51/2 20/10/2
f 95/48/1 93/47/1 91/46/1
f 92/46/2 94/47/2 96/48/2
f 85/43/1 83/42/1 81/41/1
f 82/41/2 84/42/2 86/43/2
f 77/39/1 75/38/1 65/33/1
f 66/33/2 76/38/2 78/39/2
f 77/39/1 65/33/1 63/32/1
f 64/32/2 66/33/2 78/39/2
f 61/31/1 59/30/1 57/29/1
f 58/29/2 60/30/2 62/31/2
f 53/27/1 51/26/1 49/25/1
f 50/25/2 52/26/2 54/27/2
f 39/20/1 37/19/1 35/18/1
f 36/18/2 38/19/2 40/20/2
f 141/71/1 139/70/1 137/69/1
f 138/69/2 140/70/2 142/71/2
f 141/71/1 137/69/1 135/68/1
f 136/68/2 138/69/2 142/71/2
f 141/71/1 135/68/1 125/63/1
f 126/63/2 136/68/2 142/71/2
f 199/100/1 141/71/1 125/63/1
f 126/63/2 142/71/2 200/100/2
f 143/72/1 199/100/1 125/63/1
f 126/63/2 200/100/2 144/72/2
f 145/73/1 143/72/1 147/74/1
f 148/74/2 144/72/2 146/73/2
f 147/74/1 143/72/1 109/55/1
f 110/55/2 144/72/2 148/74/2
f 109/55/1 143/72/1 111/56/1
f 112/56/2 144/72/2 110/55/2
f 105/53/1 103/52/1 101/51/1
f 102/51/2 104/52/2 106/53/2
f 113/57/1 111/56/1 115/58/1
f 116/58/2 112/56/2 114/57/2
f 117/59/1 115/58/1 121/61/1
f 122/61/2 116/58/2 118/59/2
f 117/59/1 121/61/1 119/60/1
f 120/60/2 122/61/2 118/59/2
f 73/37/1 71/36/1 75/38/1
f 76/38/2 72/36/2 74/37/2
f 75/38/1 71/36/1 69/35/1
f 70/35/2 72/36/2 76/38/2
f 75/38/1 69/35/1 65/33/1
f 66/33/2 70/35/2 76/38/2
f 65/33/1 69/35/1 67/34/1
f 68/34/2 70/35/2 66/33/2
f 135/68/1 133/67/1 127/64/1
f 128/64/2 134/67/2 136/68/2
f 135/68/1 127/64/1 125/63/1
f 126/63/2 128/64/2 136/68/2
f 125/63/1 123/62/1 143/72/1
f 144/72/2 124/62/2 126/63/2
f 143/72/1 123/62/1 121/61/1
f 122/61/2 124/62/2 144/72/2
f 143/72/1 121/61/1 115/58/1
f 116/58/2 122/61/2 144/72/2
f 143/72/1 115/58/1 111/56/1
f 112/56/2 116/58/2 144/72/2
f 131/66/1 129/65/1 133/67/1
f 134/67/2 130/65/2 132/66/2
f 133/67/1 129/65/1 127/64/1
f 128/64/2 130/65/2 134/67/2
f 175/88/1 173/87/1 169/85/1
f 170/85/2 174/87/2 176/88/2
f 175/88/1 169/85/1 177/89/1
f 178/89/2 170/85/2 176/88/2
f 169/85/1 173/87/1 171/86/1
f 172/86/2 174/87/2 170/85/2
f 161/81/1 159/80/1 191/96/1
f 192/96/2 160/80/2 162/81/2
