# The Great Editor v0.0.1
mtllib floor_20.mtl
o floor_20
v 35.28817957280136 -64.1978711233571 0
v 35.28817957280136 -64.1978711233571 -0.1
v 35.335153284337515 -62.910446515398604 0
v 35.335153284337515 -62.910446515398604 -0.1
v 30.829700948659312 -62.89689640630164 0
v 30.829700948659312 -62.89689640630164 -0.1
v 30.888418088079508 -59.25873317470265 0
v 30.888418088079508 -59.25873317470265 -0.1
v 33.52116322468354 -59.1683991140562 0
v 33.52116322468354 -59.1683991140562 -0.1
v 33.54694949290444 -58.53606068953106 0
v 33.54694949290444 -58.53606068953106 -0.1
v 35.96034710588424 -58.5230854335473 0
v 35.96034710588424 -58.5230854335473 -0.1
v 35.934478715790036 -58.161749190961515 0
v 35.934478715790036 -58.161749190961515 -0.1
v 46.32347054324464 -58.14885605685107 0
v 46.32347054324464 -58.14885605685107 -0.1
v 46.33636367735509 -58.57474009186241 0
v 46.33636367735509 -58.57474009186241 -0.1
v 52.947256601082024 -58.63271813442277 0
v 52.947256601082024 -58.63271813442277 -0.1
v 52.97862715668833 -59.239023925107055 0
v 52.97862715668833 -59.239023925107055 -0.1
v 57.29593828060198 -59.20765336950074 0
v 57.29593828060198 -59.20765336950074 -0.1
v 57.306367758512984 -58.64314761233377 0
v 57.306367758512984 -58.64314761233377 -0.1
v 61.76238272645558 -58.723052195069215 0
v 61.76238272645558 -58.723052195069215 -0.1
v 61.68839091859881 -60.07872007975244 0
v 61.68839091859881 -60.07872007975244 -0.1
v 63.956104328317885 -60.05408351775795 0
v 63.956104328317885 -60.05408351775795 -0.1
v 63.956104328317885 -58.69841563307473 0
v 63.956104328317885 -58.69841563307473 -0.1
v 73.31504149878306 -58.63994485927448 0
v 73.31504149878306 -58.63994485927448 -0.1
v 73.29508588356752 -56.703346842761285 0
v 73.29508588356752 -56.703346842761285 -0.1
v 68.0441311819362 -56.663353490456906 0
v 68.0441311819362 -56.663353490456906 -0.1
v 68.0441311819362 -52.810030950772735 0
v 68.0441311819362 -52.810030950772735 -0.1
v 88.05854565876298 -52.84378304070518 0
v 88.05854565876298 -52.84378304070518 -0.1
v 93.19346215340028 -52.832368100314405 0
v 93.19346215340028 -52.832368100314405 -0.1
v 97.48342669350005 -52.84378304070518 0
v 97.48342669350005 -52.84378304070518 -0.1
v 97.41740070735483 -51.08161188311295 0
v 97.41740070735483 -51.08161188311295 -0.1
v 99.0292067149074 -51.05385468993249 0
v 99.0292067149074 -51.05385468993249 -0.1
v 102.55847634249075 -51.10945119816672 0
v 102.55847634249075 -51.10945119816672 -0.1
v 102.52948732121057 -56.62771259743822 0
v 102.52948732121057 -56.62771259743822 -0.1
v 117.59269193400561 -56.63953814719557 0
v 117.59269193400561 -56.63953814719557 -0.1
v 117.62044912718608 -59.19615630723665 0
v 117.62044912718608 -59.19615630723665 -0.1
v 121.31650827947209 -59.223995622290424 0
v 121.31650827947209 -59.223995622290424 -0.1
v 121.31650827947209 -61.947403307034165 0
v 121.31650827947209 -61.947403307034165 -0.1
v 133.9885703069557 -61.97516050021462 0
v 133.9885703069557 -61.97516050021462 -0.1
v 140.76920914282462 -61.97516050021462 0
v 140.76920914282462 -61.97516050021462 -0.1
v 153.64000610373037 -62.04414287379918 0
v 153.64000610373037 -62.04414287379918 -0.1
v 153.5740622394585 -59.34175838862406 0
v 153.5740622394585 -59.34175838862406 -0.1
v 157.46294355028803 -59.34175838862406 0
v 157.46294355028803 -59.34175838862406 -0.1
v 157.39699968601613 -56.70523564584753 0
v 157.39699968601613 -56.70523564584753 -0.1
v 158.05610984124192 -56.63929178157562 0
v 158.05610984124192 -56.63929178157562 -0.1
v 169.92042112279964 -56.77117951011944 0
v 169.92042112279964 -56.77117951011944 -0.1
v 169.98628286519823 -51.10263508268158 0
v 169.98628286519823 -51.10263508268158 -0.1
v 178.0045804537968 -51.14221782561938 0
v 178.0045804537968 -51.14221782561938 -0.1
v 177.9749344575301 -52.86250682782099 0
v 177.9749344575301 -52.86250682782099 -0.1
v 188.1188746150129 -52.92188094222771 0
v 188.1188746150129 -52.92188094222771 -0.1
v 209.10750087497496 -52.84411152819845 0
v 209.10750087497496 -52.84411152819845 -0.1
v 209.16014099576984 -53.25997669466536 0
v 209.16014099576984 -53.25997669466536 -0.1
v 217.5956177008084 -53.31335591232008 0
v 217.5956177008084 -53.31335591232008 -0.1
v 224.4293893887121 -53.31335591232008 0
v 224.4293893887121 -53.31335591232008 -0.1
v 230.8895065530328 -53.31335591232008 0
v 230.8895065530328 -53.31335591232008 -0.1
v 236.94919746306974 -53.28666630349272 0
v 236.94919746306974 -53.28666630349272 -0.1
v 242.15457452501133 -53.34004552114744 0
v 242.15457452501133 -53.34004552114744 -0.1
v 242.15457452501133 -56.436614998234326 0
v 242.15457452501133 -56.436614998234326 -0.1
v 241.43387296479926 -56.51676594658972 0
v 241.43387296479926 -56.51676594658972 -0.1
v 241.40718335597194 -58.54550470496228 0
v 241.40718335597194 -58.54550470496228 -0.1
v 242.15457452501133 -58.572194313789645 0
v 242.15457452501133 -58.572194313789645 -0.1
v 242.16262246859617 -59.61333542367661 0
v 242.16262246859617 -59.61333542367661 -0.1
v 251.0759663544544 -59.637315010684574 0
v 251.0759663544544 -59.637315010684574 -0.1
v 251.07062843268895 -62.06919004516024 0
v 251.07062843268895 -62.06919004516024 -0.1
v 268.6089041853233 -62.14925887164232 0
v 268.6089041853233 -62.14925887164232 -0.1
v 268.64774783140126 -59.78546287014475 0
v 268.64774783140126 -59.78546287014475 -0.1
v 268.6274637286925 -55.91604444329084 0
v 268.6274637286925 -55.91604444329084 -0.1
v 268.723546320471 -53.44655759083693 0
v 268.723546320471 -53.44655759083693 -0.1
v 272.7392238036988 -51.15355064413685 0
v 272.7392238036988 -51.15355064413685 -0.1
v 277.57390272949664 -49.66804807774268 0
v 277.57390272949664 -49.66804807774268 -0.1
v 282.03279196300525 -49.05221614975385 0
v 282.03279196300525 -49.05221614975385 -0.1
v 282.07894445580826 -59.811823991478846 0
v 282.07894445580826 -59.811823991478846 -0.1
v 282.133637623436 -64.16510449590444 0
v 282.133637623436 -64.16510449590444 -0.1
v 251.04393882386157 -64.15139014306084 0
v 251.04393882386157 -64.15139014306084 -0.1
v 239.4584313022081 -64.12470053423348 0
v 239.4584313022081 -64.12470053423348 -0.1
v 161.31881186804497 -64.2193049322923 0
v 161.31881186804497 -64.2193049322923 -0.1
v 113.46426111871635 -64.19885658583688 0
v 113.46426111871635 -64.19885658583688 -0.1
v 65.60296740934032 -58.688126712769304 0
v 65.60296740934032 -58.688126712769304 -0.1
vt 35.28817957280136 -64.1978711233571 0
vt 35.335153284337515 -62.910446515398604 0
vt 30.829700948659312 -62.89689640630164 0
vt 30.888418088079508 -59.25873317470265 0
vt 33.52116322468354 -59.1683991140562 0
vt 33.54694949290444 -58.53606068953106 0
vt 35.96034710588424 -58.5230854335473 0
vt 35.934478715790036 -58.161749190961515 0
vt 46.32347054324464 -58.14885605685107 0
vt 46.33636367735509 -58.57474009186241 0
vt 52.947256601082024 -58.63271813442277 0
vt 52.97862715668833 -59.239023925107055 0
vt 57.29593828060198 -59.20765336950074 0
vt 57.306367758512984 -58.64314761233377 0
vt 61.76238272645558 -58.723052195069215 0
vt 61.68839091859881 -60.07872007975244 0
vt 63.956104328317885 -60.05408351775795 0
vt 63.956104328317885 -58.69841563307473 0
vt 73.31504149878306 -58.63994485927448 0
vt 73.29508588356752 -56.703346842761285 0
vt 68.0441311819362 -56.663353490456906 0
vt 68.0441311819362 -52.810030950772735 0
vt 88.05854565876298 -52.84378304070518 0
vt 93.19346215340028 -52.832368100314405 0
vt 97.48342669350005 -52.84378304070518 0
vt 97.41740070735483 -51.08161188311295 0
vt 99.0292067149074 -51.05385468993249 0
vt 102.55847634249075 -51.10945119816672 0
vt 102.52948732121057 -56.62771259743822 0
vt 117.59269193400561 -56.63953814719557 0
vt 117.62044912718608 -59.19615630723665 0
vt 121.31650827947209 -59.223995622290424 0
vt 121.31650827947209 -61.947403307034165 0
vt 133.9885703069557 -61.97516050021462 0
vt 140.76920914282462 -61.97516050021462 0
vt 153.64000610373037 -62.04414287379918 0
vt 153.5740622394585 -59.34175838862406 0
vt 157.46294355028803 -59.34175838862406 0
vt 157.39699968601613 -56.70523564584753 0
vt 158.05610984124192 -56.63929178157562 0
vt 169.92042112279964 -56.77117951011944 0
vt 169.98628286519823 -51.10263508268158 0
vt 178.0045804537968 -51.14221782561938 0
vt 177.9749344575301 -52.86250682782099 0
vt 188.1188746150129 -52.92188094222771 0
vt 209.10750087497496 -52.84411152819845 0
vt 209.16014099576984 -53.25997669466536 0
vt 217.5956177008084 -53.31335591232008 0
vt 224.4293893887121 -53.31335591232008 0
vt 230.8895065530328 -53.31335591232008 0
vt 236.94919746306974 -53.28666630349272 0
vt 242.15457452501133 -53.34004552114744 0
vt 242.15457452501133 -56.436614998234326 0
vt 241.43387296479926 -56.51676594658972 0
vt 241.40718335597194 -58.54550470496228 0
vt 242.15457452501133 -58.572194313789645 0
vt 242.16262246859617 -59.61333542367661 0
vt 251.0759663544544 -59.637315010684574 0
vt 251.07062843268895 -62.06919004516024 0
vt 268.6089041853233 -62.14925887164232 0
vt 268.64774783140126 -59.78546287014475 0
vt 268.6274637286925 -55.91604444329084 0
vt 268.723546320471 -53.44655759083693 0
vt 272.7392238036988 -51.15355064413685 0
vt 277.57390272949664 -49.66804807774268 0
vt 282.03279196300525 -49.05221614975385 0
vt 282.07894445580826 -59.811823991478846 0
vt 282.133637623436 -64.16510449590444 0
vt 251.04393882386157 -64.15139014306084 0
vt 239.4584313022081 -64.12470053423348 0
vt 161.31881186804497 -64.2193049322923 0
vt 113.46426111871635 -64.19885658583688 0
vt 65.60296740934032 -58.688126712769304 0
vn 0 0 1
vn 0 0 -1
usemtl floor_20
s off
f 7/4/1 5/3/1 9/5/1
f 10/5/2 6/3/2 8/4/2
f 11/6/1 9/5/1 13/7/1
f 14/7/2 10/5/2 12/6/2
f 15/8/1 13/7/1 17/9/1
f 18/9/2 14/7/2 16/8/2
f 43/22/1 41/21/1 39/20/1
f 40/20/2 42/21/2 44/22/2
f 43/22/1 39/20/1 45/23/1
f 46/23/2 40/20/2 44/22/2
f 51/26/1 49/25/1 53/27/1
f 54/27/2 50/25/2 52/26/2
f 53/27/1 49/25/1 57/29/1
f 58/29/2 50/25/2 54/27/2
f 53/27/1 57/29/1 55/28/1
f 56/28/2 58/29/2 54/27/2
f 83/42/1 81/41/1 87/44/1
f 88/44/2 82/41/2 84/42/2
f 83/42/1 87/44/1 85/43/1
f 86/43/2 88/44/2 84/42/2
f 131/66/1 129/65/1 133/67/1
f 134/67/2 130/65/2 132/66/2
f 141/71/1 139/70/1 93/47/1
f 94/47/2 140/70/2 142/71/2
f 141/71/1 93/47/1 89/45/1
f 90/45/2 94/47/2 142/71/2
f 141/71/1 89/45/1 81/41/1
f 82/41/2 90/45/2 142/71/2
f 141/71/1 81/41/1 79/40/1
f 80/40/2 82/41/2 142/71/2
f 141/71/1 79/40/1 75/38/1
f 76/38/2 80/40/2 142/71/2
f 141/71/1 75/38/1 71/36/1
f 72/36/2 76/38/2 142/71/2
f 141/71/1 71/36/1 69/35/1
f 70/35/2 72/36/2 142/71/2
f 141/71/1 69/35/1 67/34/1
f 68/34/2 70/35/2 142/71/2
f 141/71/1 67/34/1 143/72/1
f 144/72/2 68/34/2 142/71/2
f 143/72/1 67/34/1 65/33/1
f 66/33/2 68/34/2 144/72/2
f 143/72/1 65/33/1 61/31/1
f 62/31/2 66/33/2 144/72/2
f 143/72/1 61/31/1 59/30/1
f 60/30/2 62/31/2 144/72/2
f 143/72/1 59/30/1 57/29/1
f 58/29/2 60/30/2 144/72/2
f 143/72/1 57/29/1 37/19/1
f 38/19/2 58/29/2 144/72/2
f 143/72/1 37/19/1 33/17/1
f 34/17/2 38/19/2 144/72/2
f 143/72/1 33/17/1 1/1/1
f 2/1/2 34/17/2 144/72/2
f 1/1/1 33/17/1 31/16/1
f 32/16/2 34/17/2 2/1/2
f 1/1/1 31/16/1 23/12/1
f 24/12/2 32/16/2 2/1/2
f 1/1/1 23/12/1 19/10/1
f 20/10/2 24/12/2 2/1/2
f 1/1/1 19/10/1 3/2/1
f 4/2/2 20/10/2 2/1/2
f 5/3/1 3/2/1 9/5/1
f 10/5/2 4/2/2 6/3/2
f 9/5/1 3/2/1 13/7/1
f 14/7/2 4/2/2 10/5/2
f 13/7/1 3/2/1 19/10/1
f 20/10/2 4/2/2 14/7/2
f 13/7/1 19/10/1 17/9/1
f 18/9/2 20/10/2 14/7/2
f 21/11/1 19/10/1 23/12/1
f 24/12/2 20/10/2 22/11/2
f 27/14/1 25/13/1 29/15/1
f 30/15/2 26/13/2 28/14/2
f 29/15/1 25/13/1 31/16/1
f 32/16/2 26/13/2 30/15/2
f 35/18/1 33/17/1 145/73/1
f 146/73/2 34/17/2 36/18/2
f 33/17/1 37/19/1 145/73/1
f 146/73/2 38/19/2 34/17/2
f 39/20/1 37/19/1 45/23/1
f 46/23/2 38/19/2 40/20/2
f 45/23/1 37/19/1 57/29/1
f 58/29/2 38/19/2 46/23/2
f 45/23/1 57/29/1 47/24/1
f 48/24/2 58/29/2 46/23/2
f 47/24/1 57/29/1 49/25/1
f 50/25/2 58/29/2 48/24/2
f 31/16/1 25/13/1 23/12/1
f 24/12/2 26/13/2 32/16/2
f 77/39/1 75/38/1 79/40/1
f 80/40/2 76/38/2 78/39/2
f 75/38/1 73/37/1 71/36/1
f 72/36/2 74/37/2 76/38/2
f 65/33/1 63/32/1 61/31/1
f 62/31/2 64/32/2 66/33/2
f 81/41/1 89/45/1 87/44/1
f 88/44/2 90/45/2 82/41/2
f 89/45/1 93/47/1 91/46/1
f 92/46/2 94/47/2 90/45/2
f 129/65/1 127/64/1 133/67/1
f 134/67/2 128/64/2 130/65/2
f 133/67/1 127/64/1 123/62/1
f 124/62/2 128/64/2 134/67/2
f 133/67/1 123/62/1 121/61/1
f 122/61/2 124/62/2 134/67/2
f 133/67/1 121/61/1 119/60/1
f 120/60/2 122/61/2 134/67/2
f 133/67/1 119/60/1 135/68/1
f 136/68/2 120/60/2 134/67/2
f 135/68/1 119/60/1 137/69/1
f 138/69/2 120/60/2 136/68/2
f 137/69/1 119/60/1 117/59/1
f 118/59/2 120/60/2 138/69/2
f 137/69/1 117/59/1 113/57/1
f 114/57/2 118/59/2 138/69/2
f 137/69/1 113/57/1 139/70/1
f 140/70/2 114/57/2 138/69/2
f 139/70/1 113/57/1 109/55/1
f 110/55/2 114/57/2 140/70/2
f 139/70/1 109/55/1 101/51/1
f 102/51/2 110/55/2 140/70/2
f 139/70/1 101/51/1 99/50/1
f 100/50/2 102/51/2 140/70/2
f 139/70/1 99/50/1 97/49/1
f 98/49/2 100/50/2 140/70/2
f 139/70/1 97/49/1 95/48/1
f 96/48/2 98/49/2 140/70/2
f 139/70/1 95/48/1 93/47/1
f 94/47/2 96/48/2 140/70/2
f 101/51/1 109/55/1 107/54/1
f 108/54/2 110/55/2 102/51/2
f 101/51/1 107/54/1 103/52/1
f 104/52/2 108/54/2 102/51/2
f 103/52/1 107/54/1 105/53/1
f 106/53/2 108/54/2 104/52/2
f 127/64/1 125/63/1 123/62/1
f 124/62/2 126/63/2 128/64/2
f 117/59/1 115/58/1 113/57/1
f 114/57/2 116/58/2 118/59/2
f 113/57/1 111/56/1 109/55/1
f 110/55/2 112/56/2 114/57/2
