# The Great Editor v0.0.1
mtllib floor_22.mtl
o floor_22
v 102.55847634249075 -49.46980587556039 0
v 102.55847634249075 -49.46980587556039 -0.1
v 104.72608318863891 -49.330855665911486 0
v 104.72608318863891 -49.330855665911486 -0.1
v 116.11983613610195 -49.35869498096526 0
v 116.11983613610195 -49.35869498096526 -0.1
v 116.09207894292149 -48.302689812008296 0
v 116.09207894292149 -48.302689812008296 -0.1
v 120.34385681192983 -48.330447005188745 0
v 120.34385681192983 -48.330447005188745 -0.1
v 121.14971875476944 -48.330447005188745 0
v 121.14971875476944 -48.330447005188745 -0.1
v 121.39986198088678 -48.330447005188745 0
v 121.39986198088678 -48.330447005188745 -0.1
v 153.6245671915472 -48.40025059750646 0
v 153.6245671915472 -48.40025059750646 -0.1
v 153.67293697492968 -46.22517066088664 0
v 153.67293697492968 -46.22517066088664 -0.1
v 154.0355050456152 -46.25810153208594 0
v 154.0355050456152 -46.25810153208594 -0.1
v 159.90171682212215 -46.291032403285236 0
v 159.90171682212215 -46.291032403285236 -0.1
v 159.86870382904954 -49.19124848127608 0
v 159.86870382904954 -49.19124848127608 -0.1
v 164.4826391593768 -49.29004109487396 0
v 164.4826391593768 -49.29004109487396 -0.1
v 164.51557003057607 -51.13564807575418 0
v 164.51557003057607 -51.13564807575418 -0.1
v 169.98628286519823 -51.10263508268158 0
v 169.98628286519823 -51.10263508268158 -0.1
v 169.92042112279964 -56.77117951011944 0
v 169.92042112279964 -56.77117951011944 -0.1
v 158.05610984124192 -56.63929178157562 0
v 158.05610984124192 -56.63929178157562 -0.1
v 157.39699968601613 -56.70523564584753 0
v 157.39699968601613 -56.70523564584753 -0.1
v 157.46294355028803 -59.34175838862406 0
v 157.46294355028803 -59.34175838862406 -0.1
v 153.5740622394585 -59.34175838862406 0
v 153.5740622394585 -59.34175838862406 -0.1
v 153.64000610373037 -62.04414287379918 0
v 153.64000610373037 -62.04414287379918 -0.1
v 140.76920914282462 -61.97516050021462 0
v 140.76920914282462 -61.97516050021462 -0.1
v 133.9885703069557 -61.97516050021462 0
v 133.9885703069557 -61.97516050021462 -0.1
v 121.31650827947209 -61.947403307034165 0
v 121.31650827947209 -61.947403307034165 -0.1
v 121.31650827947209 -59.223995622290424 0
v 121.31650827947209 -59.223995622290424 -0.1
v 117.62044912718608 -59.19615630723665 0
v 117.62044912718608 -59.19615630723665 -0.1
v 117.59269193400561 -56.63953814719557 0
v 117.59269193400561 -56.63953814719557 -0.1
v 102.52948732121057 -56.62771259743822 0
v 102.52948732121057 -56.62771259743822 -0.1
v 151.89399819942088 -48.39650192295336 0
v 151.89399819942088 -48.39650192295336 -0.1
vt 102.55847634249075 -49.46980587556039 0
vt 104.72608318863891 -49.330855665911486 0
vt 116.11983613610195 -49.35869498096526 0
vt 116.09207894292149 -48.302689812008296 0
vt 120.34385681192983 -48.330447005188745 0
vt 121.14971875476944 -48.330447005188745 0
vt 121.39986198088678 -48.330447005188745 0
vt 153.6245671915472 -48.40025059750646 0
vt 153.67293697492968 -46.22517066088664 0
vt 154.0355050456152 -46.25810153208594 0
vt 159.90171682212215 -46.291032403285236 0
vt 159.86870382904954 -49.19124848127608 0
vt 164.4826391593768 -49.29004109487396 0
vt 164.51557003057607 -51.13564807575418 0
vt 169.98628286519823 -51.10263508268158 0
vt 169.92042112279964 -56.77117951011944 0
vt 158.05610984124192 -56.63929178157562 0
vt 157.39699968601613 -56.70523564584753 0
vt 157.46294355028803 -59.34175838862406 0
vt 153.5740622394585 -59.34175838862406 0
vt 153.64000610373037 -62.04414287379918 0
vt 140.76920914282462 -61.97516050021462 0
vt 133.9885703069557 -61.97516050021462 0
vt 121.31650827947209 -61.947403307034165 0
vt 121.31650827947209 -59.223995622290424 0
vt 117.62044912718608 -59.19615630723665 0
vt 117.59269193400561 -56.63953814719557 0
vt 102.52948732121057 -56.62771259743822 0
vt 151.89399819942088 -48.39650192295336 0
vn 0 0 1
vn 0 0 -1
usemtl floor_22
s off
f 1/1/1 55/28/1 3/2/1
f 4/2/2 56/28/2 2/1/2
f 7/4/1 5/3/1 9/5/1
f 10/5/2 6/3/2 8/4/2
f 13/7/1 43/22/1 57/29/1
f 58/29/2 44/22/2 14/7/2
f 43/22/1 15/8/1 57/29/1
f 58/29/2 16/8/2 44/22/2
f 17/9/1 15/8/1 19/10/1
f 20/10/2 16/8/2 18/9/2
f 21/11/1 19/10/1 23/12/1
f 24/12/2 20/10/2 22/11/2
f 29/15/1 27/14/1 31/16/1
f 32/16/2 28/14/2 30/15/2
f 45/23/1 43/22/1 13/7/1
f 14/7/2 44/22/2 46/23/2
f 45/23/1 13/7/1 49/25/1
f 50/25/2 14/7/2 46/23/2
f 45/23/1 49/25/1 47/24/1
f 48/24/2 50/25/2 46/23/2
f 55/28/1 53/27/1 3/2/1
f 4/2/2 54/27/2 56/28/2
f 3/2/1 53/27/1 5/3/1
f 6/3/2 54/27/2 4/2/2
f 5/3/1 53/27/1 9/5/1
f 10/5/2 54/27/2 6/3/2
f 9/5/1 53/27/1 11/6/1
f 12/6/2 54/27/2 10/5/2
f 11/6/1 53/27/1 13/7/1
f 14/7/2 54/27/2 12/6/2
f 13/7/1 53/27/1 49/25/1
f 50/25/2 54/27/2 14/7/2
f 49/25/1 53/27/1 51/26/1
f 52/26/2 54/27/2 50/25/2
f 43/22/1 41/21/1 39/20/1
f 40/20/2 42/21/2 44/22/2
f 43/22/1 39/20/1 15/8/1
f 16/8/2 40/20/2 44/22/2
f 15/8/1 39/20/1 35/18/1
f 36/18/2 40/20/2 16/8/2
f 15/8/1 35/18/1 23/12/1
f 24/12/2 36/18/2 16/8/2
f 15/8/1 23/12/1 19/10/1
f 20/10/2 24/12/2 16/8/2
f 23/12/1 35/18/1 33/17/1
f 34/17/2 36/18/2 24/12/2
f 23/12/1 33/17/1 27/14/1
f 28/14/2 34/17/2 24/12/2
f 23/12/1 27/14/1 25/13/1
f 26/13/2 28/14/2 24/12/2
f 27/14/1 33/17/1 31/16/1
f 32/16/2 34/17/2 28/14/2
f 39/20/1 37/19/1 35/18/1
f 36/18/2 38/19/2 40/20/2
