# The Great Editor v0.0.1
mtllib floor_14.mtl
o floor_14
v 68.71243898697327 -15.568418377428618 0
v 68.71243898697327 -15.568418377428618 -0.1
v 69.82568310163074 -15.815851581726568 0
v 69.82568310163074 -15.815851581726568 -0.1
v 70.64829790662662 -15.429878777146293 0
v 70.64829790662662 -15.429878777146293 -0.1
v 71.17010028966983 -14.61818618130131 0
v 71.17010028966983 -14.61818618130131 -0.1
v 71.31824814913 -13.477923970323205 0
v 71.31824814913 -13.477923970323205 -0.1
v 70.91880735732607 -12.717721789046696 0
v 70.91880735732607 -12.717721789046696 -0.1
v 70.19022209727582 -12.261370539035507 0
v 70.19022209727582 -12.261370539035507 -0.1
v 69.29919977180859 -12.196247893496752 0
v 69.29919977180859 -12.196247893496752 -0.1
v 68.48372956979112 -12.492789978037042 0
v 68.48372956979112 -12.492789978037042 -0.1
v 68.03542626336481 -12.96441589648481 0
v 68.03542626336481 -12.96441589648481 -0.1
v 67.8458889797539 -13.896663402356143 0
v 67.8458889797539 -13.896663402356143 -0.1
v 68.17445859488701 -14.888777753874075 0
v 68.17445859488701 -14.888777753874075 -0.1
vt 68.71243898697327 -15.568418377428618 0
vt 69.82568310163074 -15.815851581726568 0
vt 70.64829790662662 -15.429878777146293 0
vt 71.17010028966983 -14.61818618130131 0
vt 71.31824814913 -13.477923970323205 0
vt 70.91880735732607 -12.717721789046696 0
vt 70.19022209727582 -12.261370539035507 0
vt 69.29919977180859 -12.196247893496752 0
vt 68.48372956979112 -12.492789978037042 0
vt 68.03542626336481 -12.96441589648481 0
vt 67.8458889797539 -13.896663402356143 0
vt 68.17445859488701 -14.888777753874075 0
vn 0 0 1
vn 0 0 -1
usemtl floor_14
s off
f 19/10/1 21/11/1 17/9/1
f 18/9/2 22/11/2 20/10/2
f 17/9/1 21/11/1 15/8/1
f 16/8/2 22/11/2 18/9/2
f 15/8/1 21/11/1 23/12/1
f 24/12/2 22/11/2 16/8/2
f 15/8/1 23/12/1 7/4/1
f 8/4/2 24/12/2 16/8/2
f 15/8/1 7/4/1 13/7/1
f 14/7/2 8/4/2 16/8/2
f 13/7/1 7/4/1 9/5/1
f 10/5/2 8/4/2 14/7/2
f 13/7/1 9/5/1 11/6/1
f 12/6/2 10/5/2 14/7/2
f 3/2/1 5/3/1 23/12/1
f 24/12/2 6/3/2 4/2/2
f 3/2/1 23/12/1 1/1/1
f 2/1/2 24/12/2 4/2/2
f 23/12/1 5/3/1 7/4/1
f 8/4/2 6/3/2 24/12/2
