# The Great Editor v0.0.1
mtllib floor_70.mtl
o floor_70
v 0.05337921765471867 -45.924768848300545 0
v 0.05337921765471867 -45.924768848300545 -0.1
v 0.07226724851715759 -47.99637522454352 0
v 0.07226724851715759 -47.99637522454352 -0.1
v 2.3901571228316723 -49.21916991820315 0
v 2.3901571228316723 -49.21916991820315 -0.1
v 4.817597576148333 -51.75607882864865 0
v 4.817597576148333 -51.75607882864865 -0.1
v 4.197084701380557 -51.90209151940263 0
v 4.197084701380557 -51.90209151940263 -0.1
v 4.1605404677554025 -56.775203481911866 0
v 4.1605404677554025 -56.775203481911866 -0.1
v 6.387192940817006 -56.81166559366371 0
v 6.387192940817006 -56.81166559366371 -0.1
v 8.5297526156041 -56.76346005402784 0
v 8.5297526156041 -56.76346005402784 -0.1
v 8.484749829027505 -55.81708758594633 0
v 8.484749829027505 -55.81708758594633 -0.1
v 6.592004892864496 -55.74950128420813 0
v 6.592004892864496 -55.74950128420813 -0.1
v 6.592004892864496 -53.023137212025034 0
v 6.592004892864496 -53.023137212025034 -0.1
v 24.144651973328976 -48.13360087485281 0
v 24.144651973328976 -48.13360087485281 -0.1
v 27.97514463223159 -47.299899616959415 0
v 27.97514463223159 -47.299899616959415 -0.1
v 29.47600398893565 -47.24725949616453 0
v 29.47600398893565 -47.24725949616453 -0.1
v 33.96971289672981 -46.15988377160126 0
v 33.96971289672981 -46.15988377160126 -0.1
v 38.55523405889009 -45.41011106823575 0
v 38.55523405889009 -45.41011106823575 -0.1
v 44.11702005101852 -44.73014195718794 0
v 44.11702005101852 -44.73014195718794 -0.1
v 44.15192184717737 -46.05526050499801 0
v 44.15192184717737 -46.05526050499801 -0.1
v 49.76610159448074 -44.11989431658454 0
v 49.76610159448074 -44.11989431658454 -0.1
v 55.72897081587939 -42.44608629467919 0
v 55.72897081587939 -42.44608629467919 -0.1
v 60.01803201537269 -41.60926440559984 0
v 60.01803201537269 -41.60926440559984 -0.1
v 66.2075576071206 -40.78977023178993 0
v 66.2075576071206 -40.78977023178993 -0.1
v 64.77830852394719 -37.83855647047051 0
v 64.77830852394719 -37.83855647047051 -0.1
v 60.230070692271894 -37.94974948693895 0
v 60.230070692271894 -37.94974948693895 -0.1
v 57.420270796800814 -38.040740522571916 0
v 57.420270796800814 -38.040740522571916 -0.1
v 55.227041926178394 -38.20243849112906 0
v 55.227041926178394 -38.20243849112906 -0.1
v 52.14435104568174 -39.03121243662355 0
v 52.14435104568174 -39.03121243662355 -0.1
v 49.6478460969072 -39.66798544230769 0
v 49.6478460969072 -39.66798544230769 -0.1
v 46.25908699456572 -40.446418679460116 0
v 46.25908699456572 -40.446418679460116 -0.1
v 42.9283880566579 -41.32085238651772 0
v 42.9283880566579 -41.32085238651772 -0.1
v 40.03490597227889 -42.00246393503182 0
v 40.03490597227889 -42.00246393503182 -0.1
v 36.67842076615018 -42.78689206893625 0
v 36.67842076615018 -42.78689206893625 -0.1
v 29.87552690261289 -44.35780138357795 0
v 29.87552690261289 -44.35780138357795 -0.1
v 24.718683867800493 -45.26886144613403 0
v 24.718683867800493 -45.26886144613403 -0.1
v 19.793342393862943 -46.066182714148894 0
v 19.793342393862943 -46.066182714148894 -0.1
v 15.292406761217064 -46.63200242128892 0
v 15.292406761217064 -46.63200242128892 -0.1
v 9.402543885195406 -47.22360839664983 0
v 9.402543885195406 -47.22360839664983 -0.1
v 4.436798449586901 -46.63372698062853 0
v 4.436798449586901 -46.63372698062853 -0.1
v 12.039235678849648 -51.50573458078995 0
v 12.039235678849648 -51.50573458078995 -0.1
v 11.586749569351 -51.63178094088123 0
v 11.586749569351 -51.63178094088123 -0.1
v 8.850334658363042 -52.394047741980806 0
v 8.850334658363042 -52.394047741980806 -0.1
vt 0.05337921765471867 -45.924768848300545 0
vt 0.07226724851715759 -47.99637522454352 0
vt 2.3901571228316723 -49.21916991820315 0
vt 4.817597576148333 -51.75607882864865 0
vt 4.197084701380557 -51.90209151940263 0
vt 4.1605404677554025 -56.775203481911866 0
vt 6.387192940817006 -56.81166559366371 0
vt 8.5297526156041 -56.76346005402784 0
vt 8.484749829027505 -55.81708758594633 0
vt 6.592004892864496 -55.74950128420813 0
vt 6.592004892864496 -53.023137212025034 0
vt 24.144651973328976 -48.13360087485281 0
vt 27.97514463223159 -47.299899616959415 0
vt 29.47600398893565 -47.24725949616453 0
vt 33.96971289672981 -46.15988377160126 0
vt 38.55523405889009 -45.41011106823575 0
vt 44.11702005101852 -44.73014195718794 0
vt 44.15192184717737 -46.05526050499801 0
vt 49.76610159448074 -44.11989431658454 0
vt 55.72897081587939 -42.44608629467919 0
vt 60.01803201537269 -41.60926440559984 0
vt 66.2075576071206 -40.78977023178993 0
vt 64.77830852394719 -37.83855647047051 0
vt 60.230070692271894 -37.94974948693895 0
vt 57.420270796800814 -38.040740522571916 0
vt 55.227041926178394 -38.20243849112906 0
vt 52.14435104568174 -39.03121243662355 0
vt 49.6478460969072 -39.66798544230769 0
vt 46.25908699456572 -40.446418679460116 0
vt 42.9283880566579 -41.32085238651772 0
vt 40.03490597227889 -42.00246393503182 0
vt 36.67842076615018 -42.78689206893625 0
vt 29.87552690261289 -44.35780138357795 0
vt 24.718683867800493 -45.26886144613403 0
vt 19.793342393862943 -46.066182714148894 0
vt 15.292406761217064 -46.63200242128892 0
vt 9.402543885195406 -47.22360839664983 0
vt 4.436798449586901 -46.63372698062853 0
vt 12.039235678849648 -51.50573458078995 0
vt 11.586749569351 -51.63178094088123 0
vt 8.850334658363042 -52.394047741980806 0
vn 0 0 1
vn 0 0 -1
usemtl floor_70
s off
f 1/1/1 3/2/1 5/3/1
f 6/3/2 4/2/2 2/1/2
f 1/1/1 5/3/1 75/38/1
f 76/38/2 6/3/2 2/1/2
f 51/26/1 53/27/1 39/20/1
f 40/20/2 54/27/2 52/26/2
f 51/26/1 39/20/1 49/25/1
f 50/25/2 40/20/2 52/26/2
f 49/25/1 39/20/1 41/21/1
f 42/21/2 40/20/2 50/25/2
f 49/25/1 41/21/1 47/24/1
f 48/24/2 42/21/2 50/25/2
f 47/24/1 41/21/1 45/23/1
f 46/23/2 42/21/2 48/24/2
f 45/23/1 41/21/1 43/22/1
f 44/22/2 42/21/2 46/23/2
f 77/39/1 23/12/1 71/36/1
f 72/36/2 24/12/2 78/39/2
f 79/40/1 77/39/1 71/36/1
f 72/36/2 78/39/2 80/40/2
f 15/8/1 17/9/1 19/10/1
f 20/10/2 18/9/2 16/8/2
f 15/8/1 19/10/1 13/7/1
f 14/7/2 20/10/2 16/8/2
f 13/7/1 19/10/1 11/6/1
f 12/6/2 20/10/2 14/7/2
f 11/6/1 19/10/1 21/11/1
f 22/11/2 20/10/2 12/6/2
f 11/6/1 21/11/1 9/5/1
f 10/5/2 22/11/2 12/6/2
f 5/3/1 7/4/1 75/38/1
f 76/38/2 8/4/2 6/3/2
f 75/38/1 7/4/1 73/37/1
f 74/37/2 8/4/2 76/38/2
f 73/37/1 81/41/1 79/40/1
f 80/40/2 82/41/2 74/37/2
f 73/37/1 79/40/1 71/36/1
f 72/36/2 80/40/2 74/37/2
f 21/11/1 81/41/1 73/37/1
f 74/37/2 82/41/2 22/11/2
f 21/11/1 73/37/1 7/4/1
f 8/4/2 74/37/2 22/11/2
f 21/11/1 7/4/1 9/5/1
f 10/5/2 8/4/2 22/11/2
f 71/36/1 23/12/1 69/35/1
f 70/35/2 24/12/2 72/36/2
f 69/35/1 23/12/1 67/34/1
f 68/34/2 24/12/2 70/35/2
f 67/34/1 23/12/1 25/13/1
f 26/13/2 24/12/2 68/34/2
f 67/34/1 25/13/1 65/33/1
f 66/33/2 26/13/2 68/34/2
f 65/33/1 25/13/1 27/14/1
f 28/14/2 26/13/2 66/33/2
f 65/33/1 27/14/1 29/15/1
f 30/15/2 28/14/2 66/33/2
f 65/33/1 29/15/1 63/32/1
f 64/32/2 30/15/2 66/33/2
f 63/32/1 29/15/1 31/16/1
f 32/16/2 30/15/2 64/32/2
f 63/32/1 31/16/1 61/31/1
f 62/31/2 32/16/2 64/32/2
f 61/31/1 31/16/1 33/17/1
f 34/17/2 32/16/2 62/31/2
f 61/31/1 33/17/1 59/30/1
f 60/30/2 34/17/2 62/31/2
f 57/29/1 59/30/1 33/17/1
f 34/17/2 60/30/2 58/29/2
f 57/29/1 33/17/1 37/19/1
f 38/19/2 34/17/2 58/29/2
f 57/29/1 37/19/1 55/28/1
f 56/28/2 38/19/2 58/29/2
f 53/27/1 55/28/1 37/19/1
f 38/19/2 56/28/2 54/27/2
f 53/27/1 37/19/1 39/20/1
f 40/20/2 38/19/2 54/27/2
f 37/19/1 33/17/1 35/18/1
f 36/18/2 34/17/2 38/19/2
