# The Great Editor v0.0.1
mtllib floor_73.mtl
o floor_73
v 224.77586157222788 -10.309908463452308 0
v 224.77586157222788 -10.309908463452308 -0.1
v 225.51840755074167 -10.4955038971441 0
v 225.51840755074167 -10.4955038971441 -0.1
v 226.17801043720738 -10.30760905099949 0
v 226.17801043720738 -10.30760905099949 -0.1
v 227.32237874185122 -10.485649272346306 0
v 227.32237874185122 -10.485649272346306 -0.1
v 228.03437538349186 -9.849861729141947 0
v 228.03437538349186 -9.849861729141947 -0.1
v 228.06779898593103 -9.40640361324121 0
v 228.06779898593103 -9.40640361324121 -0.1
v 228.51339227053796 -9.084650113593227 0
v 228.51339227053796 -9.084650113593227 -0.1
v 231.11123561098313 -9.061573867191727 0
v 231.11123561098313 -9.061573867191727 -0.1
v 231.3520990654159 -9.529586423213637 0
v 231.3520990654159 -9.529586423213637 -0.1
v 231.924981253661 -9.900777290597219 0
v 231.924981253661 -9.900777290597219 -0.1
v 232.48234240784961 -9.81487781110978 0
v 232.48234240784961 -9.81487781110978 -0.1
v 232.89130933695805 -9.519321189049268 0
v 232.89130933695805 -9.519321189049268 -0.1
v 233.06926743643157 -8.807324547408635 0
v 233.06926743643157 -8.807324547408635 -0.1
v 233.73330490405624 -8.706561008851189 0
v 233.73330490405624 -8.706561008851189 -0.1
v 237.39224496960395 -8.731033327099045 0
v 237.39224496960395 -8.731033327099045 -0.1
v 237.56305846609905 -9.112571550520311 0
v 237.56305846609905 -9.112571550520311 -0.1
v 237.85935418501936 -9.23329070429329 0
v 237.85935418501936 -9.23329070429329 -0.1
v 238.33311527217333 -9.290447528120497 0
v 238.33311527217333 -9.290447528120497 -0.1
v 238.7810900911064 -9.81487781110978 0
v 238.7810900911064 -9.81487781110978 -0.1
v 239.57915045598108 -10.002444169761128 0
v 239.57915045598108 -10.002444169761128 -0.1
v 240.07598778953655 -9.672232117161707 0
v 240.07598778953655 -9.672232117161707 -0.1
v 240.29114709762172 -9.163322868228951 0
v 240.29114709762172 -9.163322868228951 -0.1
v 240.97579715544848 -9.134580212568718 0
v 240.97579715544848 -9.134580212568718 -0.1
v 241.25739305904546 -8.883615767718226 0
v 241.25739305904546 -8.883615767718226 -0.1
v 241.5354577220899 -8.476127032329435 0
v 241.5354577220899 -8.476127032329435 -0.1
v 242.67383112998175 -8.326747344769537 0
v 242.67383112998175 -8.326747344769537 -0.1
v 242.64500635244818 -11.75673162751513 0
v 242.64500635244818 -11.75673162751513 -0.1
v 259.08161717456244 -11.815530888808635 0
v 259.08161717456244 -11.815530888808635 -0.1
v 259.82054979065043 -14.884835903954958 0
v 259.82054979065043 -14.884835903954958 -0.1
v 240.67252107729638 -14.834002464373002 0
v 240.67252107729638 -14.834002464373002 -0.1
v 240.67252107729638 -14.096548042004736 0
v 240.67252107729638 -14.096548042004736 -0.1
v 237.4685361899135 -14.147381481586692 0
v 237.4685361899135 -14.147381481586692 -0.1
v 223.68602219146516 -14.096548042004736 0
v 223.68602219146516 -14.096548042004736 -0.1
vt 224.77586157222788 -10.309908463452308 0
vt 225.51840755074167 -10.4955038971441 0
vt 226.17801043720738 -10.30760905099949 0
vt 227.32237874185122 -10.485649272346306 0
vt 228.03437538349186 -9.849861729141947 0
vt 228.06779898593103 -9.40640361324121 0
vt 228.51339227053796 -9.084650113593227 0
vt 231.11123561098313 -9.061573867191727 0
vt 231.3520990654159 -9.529586423213637 0
vt 231.924981253661 -9.900777290597219 0
vt 232.48234240784961 -9.81487781110978 0
vt 232.89130933695805 -9.519321189049268 0
vt 233.06926743643157 -8.807324547408635 0
vt 233.73330490405624 -8.706561008851189 0
vt 237.39224496960395 -8.731033327099045 0
vt 237.56305846609905 -9.112571550520311 0
vt 237.85935418501936 -9.23329070429329 0
vt 238.33311527217333 -9.290447528120497 0
vt 238.7810900911064 -9.81487781110978 0
vt 239.57915045598108 -10.002444169761128 0
vt 240.07598778953655 -9.672232117161707 0
vt 240.29114709762172 -9.163322868228951 0
vt 240.97579715544848 -9.134580212568718 0
vt 241.25739305904546 -8.883615767718226 0
vt 241.5354577220899 -8.476127032329435 0
vt 242.67383112998175 -8.326747344769537 0
vt 242.64500635244818 -11.75673162751513 0
vt 259.08161717456244 -11.815530888808635 0
vt 259.82054979065043 -14.884835903954958 0
vt 240.67252107729638 -14.834002464373002 0
vt 240.67252107729638 -14.096548042004736 0
vt 237.4685361899135 -14.147381481586692 0
vt 223.68602219146516 -14.096548042004736 0
vn 0 0 1
vn 0 0 -1
usemtl floor_73
s off
f 1/1/1 65/33/1 3/2/1
f 4/2/2 66/33/2 2/1/2
f 13/7/1 11/6/1 9/5/1
f 10/5/2 12/6/2 14/7/2
f 13/7/1 9/5/1 17/9/1
f 18/9/2 10/5/2 14/7/2
f 13/7/1 17/9/1 15/8/1
f 16/8/2 18/9/2 14/7/2
f 27/14/1 25/13/1 23/12/1
f 24/12/2 26/13/2 28/14/2
f 27/14/1 23/12/1 31/16/1
f 32/16/2 24/12/2 28/14/2
f 27/14/1 31/16/1 29/15/1
f 30/15/2 32/16/2 28/14/2
f 51/26/1 49/25/1 47/24/1
f 48/24/2 50/25/2 52/26/2
f 51/26/1 47/24/1 53/27/1
f 54/27/2 48/24/2 52/26/2
f 55/28/1 53/27/1 57/29/1
f 58/29/2 54/27/2 56/28/2
f 59/30/1 57/29/1 53/27/1
f 54/27/2 58/29/2 60/30/2
f 59/30/1 53/27/1 61/31/1
f 62/31/2 54/27/2 60/30/2
f 65/33/1 63/32/1 19/10/1
f 20/10/2 64/32/2 66/33/2
f 65/33/1 19/10/1 7/4/1
f 8/4/2 20/10/2 66/33/2
f 65/33/1 7/4/1 3/2/1
f 4/2/2 8/4/2 66/33/2
f 3/2/1 7/4/1 5/3/1
f 6/3/2 8/4/2 4/2/2
f 9/5/1 7/4/1 19/10/1
f 20/10/2 8/4/2 10/5/2
f 9/5/1 19/10/1 17/9/1
f 18/9/2 20/10/2 10/5/2
f 23/12/1 21/11/1 63/32/1
f 64/32/2 22/11/2 24/12/2
f 23/12/1 63/32/1 31/16/1
f 32/16/2 64/32/2 24/12/2
f 31/16/1 63/32/1 33/17/1
f 34/17/2 64/32/2 32/16/2
f 47/24/1 45/23/1 53/27/1
f 54/27/2 46/23/2 48/24/2
f 53/27/1 45/23/1 41/21/1
f 42/21/2 46/23/2 54/27/2
f 53/27/1 41/21/1 39/20/1
f 40/20/2 42/21/2 54/27/2
f 53/27/1 39/20/1 61/31/1
f 62/31/2 40/20/2 54/27/2
f 61/31/1 39/20/1 63/32/1
f 64/32/2 40/20/2 62/31/2
f 63/32/1 39/20/1 37/19/1
f 38/19/2 40/20/2 64/32/2
f 63/32/1 37/19/1 33/17/1
f 34/17/2 38/19/2 64/32/2
f 33/17/1 37/19/1 35/18/1
f 36/18/2 38/19/2 34/17/2
f 43/22/1 41/21/1 45/23/1
f 46/23/2 42/21/2 44/22/2
f 63/32/1 21/11/1 19/10/1
f 20/10/2 22/11/2 64/32/2
