# The Great Editor v0.0.1
mtllib floor_25.mtl
o floor_25
v 208.9198523944503 -40.90038839514517 0
v 208.9198523944503 -40.90038839514517 -0.1
v 207.93217262409138 -43.89019943692262 0
v 207.93217262409138 -43.89019943692262 -0.1
v 207.93217262409138 -47.62740164773945 0
v 207.93217262409138 -47.62740164773945 -0.1
v 209.1334513869425 -47.62740164773945 0
v 209.1334513869425 -47.62740164773945 -0.1
v 209.10750087497496 -52.84411152819845 0
v 209.10750087497496 -52.84411152819845 -0.1
v 209.16014099576984 -53.25997669466536 0
v 209.16014099576984 -53.25997669466536 -0.1
v 217.5956177008084 -53.31335591232008 0
v 217.5956177008084 -53.31335591232008 -0.1
v 224.4293893887121 -53.31335591232008 0
v 224.4293893887121 -53.31335591232008 -0.1
v 230.8895065530328 -53.31335591232008 0
v 230.8895065530328 -53.31335591232008 -0.1
v 236.94919746306974 -53.28666630349272 0
v 236.94919746306974 -53.28666630349272 -0.1
v 242.15457452501133 -53.34004552114744 0
v 242.15457452501133 -53.34004552114744 -0.1
v 242.15457452501133 -50.40369581889802 0
v 242.15457452501133 -50.40369581889802 -0.1
v 242.902047815924 -50.430385427725376 0
v 242.902047815924 -50.430385427725376 -0.1
v 243.6495211068367 -46.746480312689954 0
v 243.6495211068367 -46.746480312689954 -0.1
v 237.16271433368865 -45.65204210702159 0
v 237.16271433368865 -45.65204210702159 -0.1
v 230.94288577068752 -44.77112077197211 0
v 230.94288577068752 -44.77112077197211 -0.1
v 230.96957537951485 -46.26598523192417 0
v 230.96957537951485 -46.26598523192417 -0.1
v 224.6429883812043 -44.05033708988678 0
v 224.6429883812043 -44.05033708988678 -0.1
v 219.49090841504417 -42.555472629934705 0
v 219.49090841504417 -42.555472629934705 -0.1
v 214.3121388400567 -41.56779285957578 0
v 214.3121388400567 -41.56779285957578 -0.1
vt 208.9198523944503 -40.90038839514517 0
vt 207.93217262409138 -43.89019943692262 0
vt 207.93217262409138 -47.62740164773945 0
vt 209.1334513869425 -47.62740164773945 0
vt 209.10750087497496 -52.84411152819845 0
vt 209.16014099576984 -53.25997669466536 0
vt 217.5956177008084 -53.31335591232008 0
vt 224.4293893887121 -53.31335591232008 0
vt 230.8895065530328 -53.31335591232008 0
vt 236.94919746306974 -53.28666630349272 0
vt 242.15457452501133 -53.34004552114744 0
vt 242.15457452501133 -50.40369581889802 0
vt 242.902047815924 -50.430385427725376 0
vt 243.6495211068367 -46.746480312689954 0
vt 237.16271433368865 -45.65204210702159 0
vt 230.94288577068752 -44.77112077197211 0
vt 230.96957537951485 -46.26598523192417 0
vt 224.6429883812043 -44.05033708988678 0
vt 219.49090841504417 -42.555472629934705 0
vt 214.3121388400567 -41.56779285957578 0
vn 0 0 1
vn 0 0 -1
usemtl floor_25
s off
f 1/1/1 3/2/1 39/20/1
f 40/20/2 4/2/2 2/1/2
f 39/20/1 3/2/1 7/4/1
f 8/4/2 4/2/2 40/20/2
f 39/20/1 7/4/1 13/7/1
f 14/7/2 8/4/2 40/20/2
f 39/20/1 13/7/1 37/19/1
f 38/19/2 14/7/2 40/20/2
f 37/19/1 13/7/1 35/18/1
f 36/18/2 14/7/2 38/19/2
f 29/15/1 31/16/1 33/17/1
f 34/17/2 32/16/2 30/15/2
f 29/15/1 33/17/1 19/10/1
f 20/10/2 34/17/2 30/15/2
f 29/15/1 19/10/1 23/12/1
f 24/12/2 20/10/2 30/15/2
f 29/15/1 23/12/1 27/14/1
f 28/14/2 24/12/2 30/15/2
f 27/14/1 23/12/1 25/13/1
f 26/13/2 24/12/2 28/14/2
f 15/8/1 17/9/1 33/17/1
f 34/17/2 18/9/2 16/8/2
f 15/8/1 33/17/1 35/18/1
f 36/18/2 34/17/2 16/8/2
f 15/8/1 35/18/1 13/7/1
f 14/7/2 36/18/2 16/8/2
f 33/17/1 17/9/1 19/10/1
f 20/10/2 18/9/2 34/17/2
f 19/10/1 21/11/1 23/12/1
f 24/12/2 22/11/2 20/10/2
f 13/7/1 7/4/1 9/5/1
f 10/5/2 8/4/2 14/7/2
f 13/7/1 9/5/1 11/6/1
f 12/6/2 10/5/2 14/7/2
f 5/3/1 7/4/1 3/2/1
f 4/2/2 8/4/2 6/3/2
