# The Great Editor v0.0.1
mtllib floor_41.mtl
o floor_41
v 91.33644023212928 -32.27479955338252 0
v 91.33644023212928 -32.27479955338252 -0.1
v 91.36222650035018 -34.442242155784044 0
v 91.36222650035018 -34.442242155784044 -0.1
v 94.01985456456865 -34.442242155784044 0
v 94.01985456456865 -34.442242155784044 -0.1
v 93.99406829634775 -32.249013285161624 0
v 93.99406829634775 -32.249013285161624 -0.1
vt 91.33644023212928 -32.27479955338252 0
vt 91.36222650035018 -34.442242155784044 0
vt 94.01985456456865 -34.442242155784044 0
vt 93.99406829634775 -32.249013285161624 0
vn 0 0 1
vn 0 0 -1
usemtl floor_41
s off
f 1/1/1 3/2/1 7/4/1
f 8/4/2 4/2/2 2/1/2
f 7/4/1 3/2/1 5/3/1
f 6/3/2 4/2/2 8/4/2
