# The Great Editor v0.0.1
mtllib floor_23.mtl
o floor_23
v 154.0355050456152 -46.25810153208594 0
v 154.0355050456152 -46.25810153208594 -0.1
v 153.87068644587208 -44.93988122163434 0
v 153.87068644587208 -44.93988122163434 -0.1
v 154.2991162589562 -41.7760539303025 0
v 154.2991162589562 -41.7760539303025 -0.1
v 161.71431080992977 -41.6771791948313 0
v 161.71431080992977 -41.6771791948313 -0.1
v 171.33751616872243 -42.59998268527141 0
v 171.33751616872243 -42.59998268527141 -0.1
v 180.82234617097944 -44.676187886420024 0
v 180.82234617097944 -44.676187886420024 -0.1
v 180.67403406777265 -51.11257182935268 0
v 180.67403406777265 -51.11257182935268 -0.1
v 178.0045804537968 -51.14221782561938 0
v 178.0045804537968 -51.14221782561938 -0.1
v 169.98628286519823 -51.10263508268158 0
v 169.98628286519823 -51.10263508268158 -0.1
v 164.51557003057607 -51.13564807575418 0
v 164.51557003057607 -51.13564807575418 -0.1
v 164.4826391593768 -49.29004109487396 0
v 164.4826391593768 -49.29004109487396 -0.1
v 159.86870382904954 -49.19124848127608 0
v 159.86870382904954 -49.19124848127608 -0.1
v 159.90171682212215 -46.291032403285236 0
v 159.90171682212215 -46.291032403285236 -0.1
vt 154.0355050456152 -46.25810153208594 0
vt 153.87068644587208 -44.93988122163434 0
vt 154.2991162589562 -41.7760539303025 0
vt 161.71431080992977 -41.6771791948313 0
vt 171.33751616872243 -42.59998268527141 0
vt 180.82234617097944 -44.676187886420024 0
vt 180.67403406777265 -51.11257182935268 0
vt 178.0045804537968 -51.14221782561938 0
vt 169.98628286519823 -51.10263508268158 0
vt 164.51557003057607 -51.13564807575418 0
vt 164.4826391593768 -49.29004109487396 0
vt 159.86870382904954 -49.19124848127608 0
vt 159.90171682212215 -46.291032403285236 0
vn 0 0 1
vn 0 0 -1
usemtl floor_23
s off
f 5/3/1 3/2/1 25/13/1
f 26/13/2 4/2/2 6/3/2
f 5/3/1 25/13/1 7/4/1
f 8/4/2 26/13/2 6/3/2
f 7/4/1 25/13/1 21/11/1
f 22/11/2 26/13/2 8/4/2
f 7/4/1 21/11/1 9/5/1
f 10/5/2 22/11/2 8/4/2
f 9/5/1 21/11/1 17/9/1
f 18/9/2 22/11/2 10/5/2
f 9/5/1 17/9/1 15/8/1
f 16/8/2 18/9/2 10/5/2
f 9/5/1 15/8/1 11/6/1
f 12/6/2 16/8/2 10/5/2
f 11/6/1 15/8/1 13/7/1
f 14/7/2 16/8/2 12/6/2
f 19/10/1 17/9/1 21/11/1
f 22/11/2 18/9/2 20/10/2
f 23/12/1 21/11/1 25/13/1
f 26/13/2 22/11/2 24/12/2
f 1/1/1 25/13/1 3/2/1
f 4/2/2 26/13/2 2/1/2
