# The Great Editor v0.0.1
mtllib floor_12.mtl
o floor_12
v 63.93450627563606 -26.10810384241616 0
v 63.93450627563606 -26.10810384241616 -0.1
v 65.2897635509527 -25.789635217700777 0
v 65.2897635509527 -25.789635217700777 -0.1
v 66.4700191142352 -25.789635217700777 0
v 66.4700191142352 -25.789635217700777 -0.1
v 67.56667461048305 -26.161400938197563 0
v 67.56667461048305 -26.161400938197563 -0.1
v 68.41236566188043 -26.93277169424491 0
v 68.41236566188043 -26.93277169424491 -0.1
v 68.75620994545014 -27.81558183238064 0
v 68.75620994545014 -27.81558183238064 -0.1
v 68.99781249674272 -29.070157691013158 0
v 68.99781249674272 -29.070157691013158 -0.1
v 68.26364294930706 -29.999530931318468 0
v 68.26364294930706 -29.999530931318468 -0.1
v 67.2878708505788 -31.105466199250923 0
v 67.2878708505788 -31.105466199250923 -0.1
v 66.09833551561172 -31.570111758466922 0
v 66.09833551561172 -31.570111758466922 -0.1
v 64.80655844836753 -31.384269959155183 0
v 64.80655844836753 -31.384269959155183 -0.1
v 63.57054213310419 -30.668659955088692 0
v 63.57054213310419 -30.668659955088692 -0.1
v 62.68764987309515 -29.423363868140765 0
v 62.68764987309515 -29.423363868140765 -0.1
v 62.11148280991743 -28.373189352189158 0
v 62.11148280991743 -28.373189352189158 -0.1
v 62.32524604615626 -27.415976796830087 0
v 62.32524604615626 -27.415976796830087 -0.1
v 62.87349167240687 -26.62604649741356 0
v 62.87349167240687 -26.62604649741356 -0.1
vt 63.93450627563606 -26.10810384241616 0
vt 65.2897635509527 -25.789635217700777 0
vt 66.4700191142352 -25.789635217700777 0
vt 67.56667461048305 -26.161400938197563 0
vt 68.41236566188043 -26.93277169424491 0
vt 68.75620994545014 -27.81558183238064 0
vt 68.99781249674272 -29.070157691013158 0
vt 68.26364294930706 -29.999530931318468 0
vt 67.2878708505788 -31.105466199250923 0
vt 66.09833551561172 -31.570111758466922 0
vt 64.80655844836753 -31.384269959155183 0
vt 63.57054213310419 -30.668659955088692 0
vt 62.68764987309515 -29.423363868140765 0
vt 62.11148280991743 -28.373189352189158 0
vt 62.32524604615626 -27.415976796830087 0
vt 62.87349167240687 -26.62604649741356 0
vn 0 0 1
vn 0 0 -1
usemtl floor_12
s off
f 29/15/1 27/14/1 25/13/1
f 26/13/2 28/14/2 30/15/2
f 29/15/1 25/13/1 31/16/1
f 32/16/2 26/13/2 30/15/2
f 31/16/1 25/13/1 1/1/1
f 2/1/2 26/13/2 32/16/2
f 1/1/1 25/13/1 3/2/1
f 4/2/2 26/13/2 2/1/2
f 3/2/1 25/13/1 23/12/1
f 24/12/2 26/13/2 4/2/2
f 3/2/1 23/12/1 21/11/1
f 22/11/2 24/12/2 4/2/2
f 3/2/1 21/11/1 15/8/1
f 16/8/2 22/11/2 4/2/2
f 3/2/1 15/8/1 5/3/1
f 6/3/2 16/8/2 4/2/2
f 5/3/1 15/8/1 7/4/1
f 8/4/2 16/8/2 6/3/2
f 7/4/1 15/8/1 11/6/1
f 12/6/2 16/8/2 8/4/2
f 7/4/1 11/6/1 9/5/1
f 10/5/2 12/6/2 8/4/2
f 11/6/1 15/8/1 13/7/1
f 14/7/2 16/8/2 12/6/2
f 19/10/1 17/9/1 21/11/1
f 22/11/2 18/9/2 20/10/2
f 21/11/1 17/9/1 15/8/1
f 16/8/2 18/9/2 22/11/2
