# The Great Editor v0.0.1
mtllib floor_15.mtl
o floor_15
v 70.31283005413505 -18.90420887148196 0
v 70.31283005413505 -18.90420887148196 -0.1
v 69.07771707947816 -19.003001485079846 0
v 69.07771707947816 -19.003001485079846 -0.1
v 68.35085637876753 -19.546401920804882 0
v 68.35085637876753 -19.546401920804882 -0.1
v 68.10383378383615 -20.308657148914264 0
v 68.10383378383615 -20.308657148914264 -0.1
v 68.41433658684 -21.084955217360505 0
v 68.41433658684 -21.084955217360505 -0.1
v 69.00109737167531 -21.859118117100554 0
v 69.00109737167531 -21.859118117100554 -0.1
v 70.41383995831244 -21.868972741898347 0
v 70.41383995831244 -21.868972741898347 -0.1
v 71.27965086867198 -21.247310160904163 0
v 71.27965086867198 -21.247310160904163 -0.1
v 71.48438069884615 -20.372137356986723 0
v 71.48438069884615 -20.372137356986723 -0.1
v 71.06087819816094 -19.511171637152767 0
v 71.06087819816094 -19.511171637152767 -0.1
vt 70.31283005413505 -18.90420887148196 0
vt 69.07771707947816 -19.003001485079846 0
vt 68.35085637876753 -19.546401920804882 0
vt 68.10383378383615 -20.308657148914264 0
vt 68.41433658684 -21.084955217360505 0
vt 69.00109737167531 -21.859118117100554 0
vt 70.41383995831244 -21.868972741898347 0
vt 71.27965086867198 -21.247310160904163 0
vt 71.48438069884615 -20.372137356986723 0
vt 71.06087819816094 -19.511171637152767 0
vn 0 0 1
vn 0 0 -1
usemtl floor_15
s off
f 5/3/1 7/4/1 9/5/1
f 10/5/2 8/4/2 6/3/2
f 5/3/1 9/5/1 3/2/1
f 4/2/2 10/5/2 6/3/2
f 3/2/1 9/5/1 19/10/1
f 20/10/2 10/5/2 4/2/2
f 3/2/1 19/10/1 1/1/1
f 2/1/2 20/10/2 4/2/2
f 19/10/1 9/5/1 13/7/1
f 14/7/2 10/5/2 20/10/2
f 19/10/1 13/7/1 15/8/1
f 16/8/2 14/7/2 20/10/2
f 19/10/1 15/8/1 17/9/1
f 18/9/2 16/8/2 20/10/2
f 13/7/1 9/5/1 11/6/1
f 12/6/2 10/5/2 14/7/2
