# The Great Editor v0.0.1
mtllib floor_43.mtl
o floor_43
v 187.3751789302727 -8.100994315026735 0
v 187.3751789302727 -8.100994315026735 -0.1
v 187.3751789302727 -10.537878783774614 0
v 187.3751789302727 -10.537878783774614 -0.1
v 189.64001807442577 -10.623942507008683 0
v 189.64001807442577 -10.623942507008683 -0.1
v 189.64001807442577 -14.866933335572298 0
v 189.64001807442577 -14.866933335572298 -0.1
v 189.64001807442577 -15.813059438033859 0
v 189.64001807442577 -15.813059438033859 -0.1
v 188.46460770166885 -15.870380505607693 0
v 188.46460770166885 -15.870380505607693 -0.1
v 188.43594716788192 -18.966621495201323 0
v 188.43594716788192 -18.966621495201323 -0.1
v 187.34651839648578 -19.052603096562077 0
v 187.34651839648578 -19.052603096562077 -0.1
v 187.28919732891194 -22.894264330235522 0
v 187.28919732891194 -22.894264330235522 -0.1
v 187.34651839648578 -26.36325650280572 0
v 187.34651839648578 -26.36325650280572 -0.1
v 187.00250986916944 -26.391917036592634 0
v 187.00250986916944 -26.391917036592634 -0.1
v 187.05983093674328 -32.75644434037471 0
v 187.05983093674328 -32.75644434037471 -0.1
v 190.38543831850558 -32.26913314412379 0
v 190.38543831850558 -32.26913314412379 -0.1
v 194.4851264781346 -30.17625720269224 0
v 194.4851264781346 -30.17625720269224 -0.1
v 197.66734906908897 -27.39536420662803 0
v 197.66734906908897 -27.39536420662803 -0.1
v 197.66734906908897 -25.78988158332072 0
v 197.66734906908897 -25.78988158332072 -0.1
v 199.21551062482243 -25.875863184681478 0
v 199.21551062482243 -25.875863184681478 -0.1
v 200.39092099757934 -22.636237404279942 0
v 200.39092099757934 -22.636237404279942 -0.1
v 200.8783143157036 -19.023942562775158 0
v 200.8783143157036 -19.023942562775158 -0.1
v 200.41958153136628 -14.838272801785381 0
v 200.41958153136628 -14.838272801785381 -0.1
v 202.19710947926842 -14.981657592593285 0
v 202.19710947926842 -14.981657592593285 -0.1
v 202.56977854037166 -13.1181480433304 0
v 202.56977854037166 -13.1181480433304 -0.1
v 203.48724410904632 -11.426683818662339 0
v 203.48724410904632 -11.426683818662339 -0.1
v 200.8496537819167 -9.018459883701377 0
v 200.8496537819167 -9.018459883701377 -0.1
v 198.4127693131688 -8.187058038260805 0
v 198.4127693131688 -8.187058038260805 -0.1
vt 187.3751789302727 -8.100994315026735 0
vt 187.3751789302727 -10.537878783774614 0
vt 189.64001807442577 -10.623942507008683 0
vt 189.64001807442577 -14.866933335572298 0
vt 189.64001807442577 -15.813059438033859 0
vt 188.46460770166885 -15.870380505607693 0
vt 188.43594716788192 -18.966621495201323 0
vt 187.34651839648578 -19.052603096562077 0
vt 187.28919732891194 -22.894264330235522 0
vt 187.34651839648578 -26.36325650280572 0
vt 187.00250986916944 -26.391917036592634 0
vt 187.05983093674328 -32.75644434037471 0
vt 190.38543831850558 -32.26913314412379 0
vt 194.4851264781346 -30.17625720269224 0
vt 197.66734906908897 -27.39536420662803 0
vt 197.66734906908897 -25.78988158332072 0
vt 199.21551062482243 -25.875863184681478 0
vt 200.39092099757934 -22.636237404279942 0
vt 200.8783143157036 -19.023942562775158 0
vt 200.41958153136628 -14.838272801785381 0
vt 202.19710947926842 -14.981657592593285 0
vt 202.56977854037166 -13.1181480433304 0
vt 203.48724410904632 -11.426683818662339 0
vt 200.8496537819167 -9.018459883701377 0
vt 198.4127693131688 -8.187058038260805 0
vn 0 0 1
vn 0 0 -1
usemtl floor_43
s off
f 1/1/1 3/2/1 5/3/1
f 6/3/2 4/2/2 2/1/2
f 1/1/1 5/3/1 49/25/1
f 50/25/2 6/3/2 2/1/2
f 49/25/1 5/3/1 7/4/1
f 8/4/2 6/3/2 50/25/2
f 49/25/1 7/4/1 39/20/1
f 40/20/2 8/4/2 50/25/2
f 49/25/1 39/20/1 47/24/1
f 48/24/2 40/20/2 50/25/2
f 47/24/1 39/20/1 43/22/1
f 44/22/2 40/20/2 48/24/2
f 47/24/1 43/22/1 45/23/1
f 46/23/2 44/22/2 48/24/2
f 23/12/1 25/13/1 19/10/1
f 20/10/2 26/13/2 24/12/2
f 23/12/1 19/10/1 21/11/1
f 22/11/2 20/10/2 24/12/2
f 7/4/1 9/5/1 39/20/1
f 40/20/2 10/5/2 8/4/2
f 39/20/1 9/5/1 37/19/1
f 38/19/2 10/5/2 40/20/2
f 39/20/1 41/21/1 43/22/1
f 44/22/2 42/21/2 40/20/2
f 35/18/1 37/19/1 13/7/1
f 14/7/2 38/19/2 36/18/2
f 35/18/1 13/7/1 31/16/1
f 32/16/2 14/7/2 36/18/2
f 35/18/1 31/16/1 33/17/1
f 34/17/2 32/16/2 36/18/2
f 29/15/1 31/16/1 27/14/1
f 28/14/2 32/16/2 30/15/2
f 27/14/1 31/16/1 19/10/1
f 20/10/2 32/16/2 28/14/2
f 27/14/1 19/10/1 25/13/1
f 26/13/2 20/10/2 28/14/2
f 19/10/1 31/16/1 17/9/1
f 18/9/2 32/16/2 20/10/2
f 17/9/1 31/16/1 13/7/1
f 14/7/2 32/16/2 18/9/2
f 17/9/1 13/7/1 15/8/1
f 16/8/2 14/7/2 18/9/2
f 11/6/1 13/7/1 9/5/1
f 10/5/2 14/7/2 12/6/2
f 9/5/1 13/7/1 37/19/1
f 38/19/2 14/7/2 10/5/2
