# The Great Editor v0.0.1
mtllib floor_32.mtl
o floor_32
v 223.03085388615847 -8.441143114297265 0
v 223.03085388615847 -8.441143114297265 -0.1
v 222.44918465746866 -8.41634230855615 0
v 222.44918465746866 -8.41634230855615 -0.1
v 221.52457448581563 -8.70557554637141 0
v 221.52457448581563 -8.70557554637141 -0.1
v 220.62993879792253 -9.233208582419977 0
v 220.62993879792253 -9.233208582419977 -0.1
v 219.97403139575601 -9.418804016111766 0
v 219.97403139575601 -9.418804016111766 -0.1
v 219.12012815702718 -9.295046353026136 0
v 219.12012815702718 -9.295046353026136 -0.1
v 218.823093341247 -8.812416103554161 0
v 218.823093341247 -8.812416103554161 -0.1
v 218.67453487242022 -7.958430742951979 0
v 218.67453487242022 -7.958430742951979 -0.1
v 218.99637049394153 -7.10452750422311 0
v 218.99637049394153 -7.10452750422311 -0.1
v 219.91211150327655 -6.621897254751139 0
v 219.91211150327655 -6.621897254751139 -0.1
v 221.01599372437613 -6.162671739173929 0
v 221.01599372437613 -6.162671739173929 -0.1
v 223.50798197011832 -5.857506857935567 0
v 223.50798197011832 -5.857506857935567 -0.1
v 224.50362756218883 -5.965989852584618 0
v 224.50362756218883 -5.965989852584618 -0.1
v 225.1966540510937 -6.027827623190777 0
v 225.1966540510937 -6.027827623190777 -0.1
v 225.64216521382733 -5.780312297019512 0
v 225.64216521382733 -5.780312297019512 -0.1
v 226.14959626904042 -5.3966389048920576 0
v 226.14959626904042 -5.3966389048920576 -0.1
v 226.86463141999369 -5.34892609649607 0
v 226.86463141999369 -5.34892609649607 -0.1
v 227.5233309658529 -5.3595198181537 0
v 227.5233309658529 -5.3595198181537 -0.1
v 228.37723420458178 -5.545197373718805 0
v 228.37723420458178 -5.545197373718805 -0.1
v 228.82266324544207 -6.035547079282383 0
v 228.82266324544207 -6.035547079282383 -0.1
v 229.3548951063963 -6.182709476262777 0
v 229.3548951063963 -6.182709476262777 -0.1
v 229.71270010842954 -6.6458768417591045 0
v 229.71270010842954 -6.6458768417591045 -0.1
v 232.07633186618045 -6.4131434527845315 0
v 232.07633186618045 -6.4131434527845315 -0.1
v 234.22710372829906 -6.237566887637164 0
v 234.22710372829906 -6.237566887637164 -0.1
v 234.66604514116747 -5.743768063394358 0
v 234.66604514116747 -5.743768063394358 -0.1
v 234.92563238271606 -5.399841657951341 0
v 234.92563238271606 -5.399841657951341 -0.1
v 235.46714401535485 -5.206034036928054 0
v 235.46714401535485 -5.206034036928054 -0.1
v 236.12075200506854 -5.27263487618648 0
v 236.12075200506854 -5.27263487618648 -0.1
v 236.6193138979636 -5.7218415232192665 0
v 236.6193138979636 -5.7218415232192665 -0.1
v 236.80737298785485 -6.162671739173929 0
v 236.80737298785485 -6.162671739173929 -0.1
v 239.3407506577478 -6.4131434527845315 0
v 239.3407506577478 -6.4131434527845315 -0.1
v 239.85647602216568 -6.53386260655751 0
v 239.85647602216568 -6.53386260655751 -0.1
v 240.31734397520918 -6.895937946003132 0
v 240.31734397520918 -6.895937946003132 -0.1
v 240.36743831793132 -7.434164703709326 0
v 240.36743831793132 -7.434164703709326 -0.1
v 241.01965023579868 -7.433671972469437 0
v 241.01965023579868 -7.433671972469437 -0.1
v 241.40997549966465 -7.790163024529643 0
v 241.40997549966465 -7.790163024529643 -0.1
v 241.5354577220899 -8.476127032329435 0
v 241.5354577220899 -8.476127032329435 -0.1
v 241.25739305904546 -8.883615767718226 0
v 241.25739305904546 -8.883615767718226 -0.1
v 240.97579715544848 -9.134580212568718 0
v 240.97579715544848 -9.134580212568718 -0.1
v 240.29114709762172 -9.163322868228951 0
v 240.29114709762172 -9.163322868228951 -0.1
v 240.07598778953655 -9.672232117161707 0
v 240.07598778953655 -9.672232117161707 -0.1
v 239.57915045598108 -10.002444169761128 0
v 239.57915045598108 -10.002444169761128 -0.1
v 238.7810900911064 -9.81487781110978 0
v 238.7810900911064 -9.81487781110978 -0.1
v 238.33311527217333 -9.290447528120497 0
v 238.33311527217333 -9.290447528120497 -0.1
v 237.85935418501936 -9.23329070429329 0
v 237.85935418501936 -9.23329070429329 -0.1
v 237.56305846609905 -9.112571550520311 0
v 237.56305846609905 -9.112571550520311 -0.1
v 237.39224496960395 -8.731033327099045 0
v 237.39224496960395 -8.731033327099045 -0.1
v 233.73330490405624 -8.706561008851189 0
v 233.73330490405624 -8.706561008851189 -0.1
v 233.06926743643157 -8.807324547408635 0
v 233.06926743643157 -8.807324547408635 -0.1
v 232.89130933695805 -9.519321189049268 0
v 232.89130933695805 -9.519321189049268 -0.1
v 232.48234240784961 -9.81487781110978 0
v 232.48234240784961 -9.81487781110978 -0.1
v 231.924981253661 -9.900777290597219 0
v 231.924981253661 -9.900777290597219 -0.1
v 231.3520990654159 -9.529586423213637 0
v 231.3520990654159 -9.529586423213637 -0.1
v 231.11123561098313 -9.061573867191727 0
v 231.11123561098313 -9.061573867191727 -0.1
v 228.51339227053796 -9.084650113593227 0
v 228.51339227053796 -9.084650113593227 -0.1
v 228.06779898593103 -9.40640361324121 0
v 228.06779898593103 -9.40640361324121 -0.1
v 228.03437538349186 -9.849861729141947 0
v 228.03437538349186 -9.849861729141947 -0.1
v 227.32237874185122 -10.485649272346306 0
v 227.32237874185122 -10.485649272346306 -0.1
v 226.17801043720738 -10.30760905099949 0
v 226.17801043720738 -10.30760905099949 -0.1
v 225.51840755074167 -10.4955038971441 0
v 225.51840755074167 -10.4955038971441 -0.1
v 224.77586157222788 -10.309908463452308 0
v 224.77586157222788 -10.309908463452308 -0.1
v 224.41698898584156 -9.777676602498106 0
v 224.41698898584156 -9.777676602498106 -0.1
v 223.94027151124826 -9.087031647919362 0
v 223.94027151124826 -9.087031647919362 -0.1
v 223.53828494137156 -8.589619461250699 0
v 223.53828494137156 -8.589619461250699 -0.1
vt 223.03085388615847 -8.441143114297265 0
vt 222.44918465746866 -8.41634230855615 0
vt 221.52457448581563 -8.70557554637141 0
vt 220.62993879792253 -9.233208582419977 0
vt 219.97403139575601 -9.418804016111766 0
vt 219.12012815702718 -9.295046353026136 0
vt 218.823093341247 -8.812416103554161 0
vt 218.67453487242022 -7.958430742951979 0
vt 218.99637049394153 -7.10452750422311 0
vt 219.91211150327655 -6.621897254751139 0
vt 221.01599372437613 -6.162671739173929 0
vt 223.50798197011832 -5.857506857935567 0
vt 224.50362756218883 -5.965989852584618 0
vt 225.1966540510937 -6.027827623190777 0
vt 225.64216521382733 -5.780312297019512 0
vt 226.14959626904042 -5.3966389048920576 0
vt 226.86463141999369 -5.34892609649607 0
vt 227.5233309658529 -5.3595198181537 0
vt 228.37723420458178 -5.545197373718805 0
vt 228.82266324544207 -6.035547079282383 0
vt 229.3548951063963 -6.182709476262777 0
vt 229.71270010842954 -6.6458768417591045 0
vt 232.07633186618045 -6.4131434527845315 0
vt 234.22710372829906 -6.237566887637164 0
vt 234.66604514116747 -5.743768063394358 0
vt 234.92563238271606 -5.399841657951341 0
vt 235.46714401535485 -5.206034036928054 0
vt 236.12075200506854 -5.27263487618648 0
vt 236.6193138979636 -5.7218415232192665 0
vt 236.80737298785485 -6.162671739173929 0
vt 239.3407506577478 -6.4131434527845315 0
vt 239.85647602216568 -6.53386260655751 0
vt 240.31734397520918 -6.895937946003132 0
vt 240.36743831793132 -7.434164703709326 0
vt 241.01965023579868 -7.433671972469437 0
vt 241.40997549966465 -7.790163024529643 0
vt 241.5354577220899 -8.476127032329435 0
vt 241.25739305904546 -8.883615767718226 0
vt 240.97579715544848 -9.134580212568718 0
vt 240.29114709762172 -9.163322868228951 0
vt 240.07598778953655 -9.672232117161707 0
vt 239.57915045598108 -10.002444169761128 0
vt 238.7810900911064 -9.81487781110978 0
vt 238.33311527217333 -9.290447528120497 0
vt 237.85935418501936 -9.23329070429329 0
vt 237.56305846609905 -9.112571550520311 0
vt 237.39224496960395 -8.731033327099045 0
vt 233.73330490405624 -8.706561008851189 0
vt 233.06926743643157 -8.807324547408635 0
vt 232.89130933695805 -9.519321189049268 0
vt 232.48234240784961 -9.81487781110978 0
vt 231.924981253661 -9.900777290597219 0
vt 231.3520990654159 -9.529586423213637 0
vt 231.11123561098313 -9.061573867191727 0
vt 228.51339227053796 -9.084650113593227 0
vt 228.06779898593103 -9.40640361324121 0
vt 228.03437538349186 -9.849861729141947 0
vt 227.32237874185122 -10.485649272346306 0
vt 226.17801043720738 -10.30760905099949 0
vt 225.51840755074167 -10.4955038971441 0
vt 224.77586157222788 -10.309908463452308 0
vt 224.41698898584156 -9.777676602498106 0
vt 223.94027151124826 -9.087031647919362 0
vt 223.53828494137156 -8.589619461250699 0
vn 0 0 1
vn 0 0 -1
usemtl floor_32
s off
f 15/8/1 13/7/1 9/5/1
f 10/5/2 14/7/2 16/8/2
f 15/8/1 9/5/1 7/4/1
f 8/4/2 10/5/2 16/8/2
f 15/8/1 7/4/1 19/10/1
f 20/10/2 8/4/2 16/8/2
f 15/8/1 19/10/1 17/9/1
f 18/9/2 20/10/2 16/8/2
f 19/10/1 7/4/1 5/3/1
f 6/3/2 8/4/2 20/10/2
f 19/10/1 5/3/1 21/11/1
f 22/11/2 6/3/2 20/10/2
f 21/11/1 5/3/1 3/2/1
f 4/2/2 6/3/2 22/11/2
f 21/11/1 3/2/1 23/12/1
f 24/12/2 4/2/2 22/11/2
f 31/16/1 29/15/1 33/17/1
f 34/17/2 30/15/2 32/16/2
f 33/17/1 29/15/1 111/56/1
f 112/56/2 30/15/2 34/17/2
f 33/17/1 111/56/1 109/55/1
f 110/55/2 112/56/2 34/17/2
f 33/17/1 109/55/1 35/18/1
f 36/18/2 110/55/2 34/17/2
f 35/18/1 109/55/1 39/20/1
f 40/20/2 110/55/2 36/18/2
f 35/18/1 39/20/1 37/19/1
f 38/19/2 40/20/2 36/18/2
f 53/27/1 51/26/1 49/25/1
f 50/25/2 52/26/2 54/27/2
f 53/27/1 49/25/1 57/29/1
f 58/29/2 50/25/2 54/27/2
f 53/27/1 57/29/1 55/28/1
f 56/28/2 58/29/2 54/27/2
f 63/32/1 61/31/1 67/34/1
f 68/34/2 62/31/2 64/32/2
f 63/32/1 67/34/1 65/33/1
f 66/33/2 68/34/2 64/32/2
f 69/35/1 67/34/1 71/36/1
f 72/36/2 68/34/2 70/35/2
f 71/36/1 67/34/1 75/38/1
f 76/38/2 68/34/2 72/36/2
f 71/36/1 75/38/1 73/37/1
f 74/37/2 76/38/2 72/36/2
f 115/58/1 113/57/1 111/56/1
f 112/56/2 114/57/2 116/58/2
f 115/58/1 111/56/1 117/59/1
f 118/59/2 112/56/2 116/58/2
f 119/60/1 117/59/1 123/62/1
f 124/62/2 118/59/2 120/60/2
f 119/60/1 123/62/1 121/61/1
f 122/61/2 124/62/2 120/60/2
f 11/6/1 9/5/1 13/7/1
f 14/7/2 10/5/2 12/6/2
f 3/2/1 1/1/1 23/12/1
f 24/12/2 2/1/2 4/2/2
f 23/12/1 1/1/1 127/64/1
f 128/64/2 2/1/2 24/12/2
f 23/12/1 127/64/1 25/13/1
f 26/13/2 128/64/2 24/12/2
f 25/13/1 127/64/1 27/14/1
f 28/14/2 128/64/2 26/13/2
f 29/15/1 27/14/1 111/56/1
f 112/56/2 28/14/2 30/15/2
f 111/56/1 27/14/1 117/59/1
f 118/59/2 28/14/2 112/56/2
f 117/59/1 27/14/1 125/63/1
f 126/63/2 28/14/2 118/59/2
f 117/59/1 125/63/1 123/62/1
f 124/62/2 126/63/2 118/59/2
f 125/63/1 27/14/1 127/64/1
f 128/64/2 28/14/2 126/63/2
f 109/55/1 107/54/1 43/22/1
f 44/22/2 108/54/2 110/55/2
f 109/55/1 43/22/1 39/20/1
f 40/20/2 44/22/2 110/55/2
f 39/20/1 43/22/1 41/21/1
f 42/21/2 44/22/2 40/20/2
f 49/25/1 47/24/1 59/30/1
f 60/30/2 48/24/2 50/25/2
f 49/25/1 59/30/1 57/29/1
f 58/29/2 60/30/2 50/25/2
f 61/31/1 59/30/1 93/47/1
f 94/47/2 60/30/2 62/31/2
f 61/31/1 93/47/1 87/44/1
f 88/44/2 94/47/2 62/31/2
f 61/31/1 87/44/1 67/34/1
f 68/34/2 88/44/2 62/31/2
f 67/34/1 87/44/1 79/40/1
f 80/40/2 88/44/2 68/34/2
f 67/34/1 79/40/1 75/38/1
f 76/38/2 80/40/2 68/34/2
f 75/38/1 79/40/1 77/39/1
f 78/39/2 80/40/2 76/38/2
f 83/42/1 81/41/1 85/43/1
f 86/43/2 82/41/2 84/42/2
f 103/52/1 101/51/1 105/53/1
f 106/53/2 102/51/2 104/52/2
f 105/53/1 101/51/1 97/49/1
f 98/49/2 102/51/2 106/53/2
f 105/53/1 97/49/1 107/54/1
f 108/54/2 98/49/2 106/53/2
f 107/54/1 97/49/1 45/23/1
f 46/23/2 98/49/2 108/54/2
f 107/54/1 45/23/1 43/22/1
f 44/22/2 46/23/2 108/54/2
f 45/23/1 97/49/1 95/48/1
f 96/48/2 98/49/2 46/23/2
f 45/23/1 95/48/1 47/24/1
f 48/24/2 96/48/2 46/23/2
f 47/24/1 95/48/1 59/30/1
f 60/30/2 96/48/2 48/24/2
f 59/30/1 95/48/1 93/47/1
f 94/47/2 96/48/2 60/30/2
f 93/47/1 91/46/1 89/45/1
f 90/45/2 92/46/2 94/47/2
f 93/47/1 89/45/1 87/44/1
f 88/44/2 90/45/2 94/47/2
f 87/44/1 85/43/1 79/40/1
f 80/40/2 86/43/2 88/44/2
f 79/40/1 85/43/1 81/41/1
f 82/41/2 86/43/2 80/40/2
f 101/51/1 99/50/1 97/49/1
f 98/49/2 100/50/2 102/51/2
