# The Great Editor v0.0.1
mtllib floor_49.mtl
o floor_49
v 22.94296260111129 -37.06020535519139 0
v 22.94296260111129 -37.06020535519139 -0.1
v 23.99445106703593 -37.06020535519139 0
v 23.99445106703593 -37.06020535519139 -0.1
v 23.96940389567487 -37.38573646101186 0
v 23.96940389567487 -37.38573646101186 -0.1
v 28.976620877307425 -37.38573646101186 0
v 28.976620877307425 -37.38573646101186 -0.1
v 28.901479363224247 -39.588819956432076 0
v 28.901479363224247 -39.588819956432076 -0.1
v 23.719014303937584 -39.96436328310135 0
v 23.719014303937584 -39.96436328310135 -0.1
vt 22.94296260111129 -37.06020535519139 0
vt 23.99445106703593 -37.06020535519139 0
vt 23.96940389567487 -37.38573646101186 0
vt 28.976620877307425 -37.38573646101186 0
vt 28.901479363224247 -39.588819956432076 0
vt 23.719014303937584 -39.96436328310135 0
vn 0 0 1
vn 0 0 -1
usemtl floor_49
s off
f 1/1/1 11/6/1 5/3/1
f 6/3/2 12/6/2 2/1/2
f 1/1/1 5/3/1 3/2/1
f 4/2/2 6/3/2 2/1/2
f 7/4/1 5/3/1 9/5/1
f 10/5/2 6/3/2 8/4/2
f 11/6/1 9/5/1 5/3/1
f 6/3/2 10/5/2 12/6/2
