# The Great Editor v0.0.1
mtllib floor_67.mtl
o floor_67
v 98.66425710989573 -27.320797545658053 0
v 98.66425710989573 -27.320797545658053 -0.1
v 93.99406829634775 -32.249013285161624 0
v 93.99406829634775 -32.249013285161624 -0.1
v 94.01985456456865 -34.442242155784044 0
v 94.01985456456865 -34.442242155784044 -0.1
v 93.95267887219703 -36.710858906109586 0
v 93.95267887219703 -36.710858906109586 -0.1
v 101.25725525981534 -36.95722452605444 0
v 101.25725525981534 -36.95722452605444 -0.1
v 111.11089459512978 -37.433695635027796 0
v 111.11089459512978 -37.433695635027796 -0.1
v 120.14397217228122 -37.873376144756044 0
v 120.14397217228122 -37.873376144756044 -0.1
v 126.82335473835282 -38.315520310683745 0
v 126.82335473835282 -38.315520310683745 -0.1
v 133.68915395684937 -39.273554084775974 0
v 133.68915395684937 -39.273554084775974 -0.1
v 135.6401233011927 -39.59013390640511 0
v 135.6401233011927 -39.59013390640511 -0.1
v 137.36147988774738 -39.770309296458116 0
v 137.36147988774738 -39.770309296458116 -0.1
v 138.974599845273 -39.65763808627 0
v 138.974599845273 -39.65763808627 -0.1
v 141.63707310001703 -39.32676905868406 0
v 141.63707310001703 -39.32676905868406 -0.1
v 148.53834896778565 -37.96075381796316 0
v 148.53834896778565 -37.96075381796316 -0.1
v 154.30642510568123 -37.7418169037055 0
v 154.30642510568123 -37.7418169037055 -0.1
v 166.86162770743763 -37.51269687715678 0
v 166.86162770743763 -37.51269687715678 -0.1
v 176.05541779066644 -37.77458353115816 0
v 176.05541779066644 -37.77458353115816 -0.1
v 184.54879041639202 -37.3326857308504 0
v 184.54879041639202 -37.3326857308504 -0.1
v 183.94338796631416 -33.81967623418339 0
v 183.94338796631416 -33.81967623418339 -0.1
v 183.37157336242217 -34.391490838075406 0
v 183.37157336242217 -34.391490838075406 -0.1
v 182.67936809225043 -34.93324883633414 0
v 182.67936809225043 -34.93324883633414 -0.1
v 182.07749688272514 -35.06866780543049 0
v 182.07749688272514 -35.06866780543049 -0.1
v 181.49057185414318 -34.73763453409792 0
v 181.49057185414318 -34.73763453409792 -0.1
v 181.32509627941357 -33.985233930786336 0
v 181.32509627941357 -33.985233930786336 -0.1
v 181.31006797659694 -33.36825229657111 0
v 181.31006797659694 -33.36825229657111 -0.1
v 181.79154851984248 -32.73624235953923 0
v 181.79154851984248 -32.73624235953923 -0.1
v 182.5891161534773 -32.3450137550668 0
v 182.5891161534773 -32.3450137550668 -0.1
v 183.6123546949816 -32.104232422507366 0
v 183.6123546949816 -32.104232422507366 -0.1
v 182.35810732384238 -26.36325650280572 0
v 182.35810732384238 -26.36325650280572 -0.1
v 182.44408892520312 -19.597317482260152 0
v 182.44408892520312 -19.597317482260152 -0.1
v 180.40853405134538 -19.654720671707306 0
v 180.40853405134538 -19.654720671707306 -0.1
v 180.46593724079256 -26.27727490144496 0
v 180.46593724079256 -26.27727490144496 -0.1
v 177.74236531230218 -26.993952489864547 0
v 177.74236531230218 -26.993952489864547 -0.1
v 177.54165945392043 -26.420577570379553 0
v 177.54165945392043 -26.420577570379553 -0.1
v 174.10132781513715 -26.44923810416647 0
v 174.10132781513715 -26.44923810416647 -0.1
v 174.07266728135022 -26.82198928714304 0
v 174.07266728135022 -26.82198928714304 -0.1
v 168.42489968786106 -33.817212577983945 0
v 168.42489968786106 -33.817212577983945 -0.1
v 162.75463070108358 -33.45464450729843 0
v 162.75463070108358 -33.45464450729843 -0.1
v 155.96857182157584 -31.955920319300564 0
v 155.96857182157584 -31.955920319300564 -0.1
v 151.56741426500764 -30.262238804053 0
v 151.56741426500764 -30.262238804053 -0.1
v 148.81411421837726 -32.297218824797504 0
v 148.81411421837726 -32.297218824797504 -0.1
v 146.81009414387248 -34.793970139191984 0
v 146.81009414387248 -34.793970139191984 -0.1
v 144.1490990828481 -36.89645433980138 0
v 144.1490990828481 -36.89645433980138 -0.1
v 140.50255942017097 -38.17763768538794 0
v 140.50255942017097 -38.17763768538794 -0.1
v 136.92171725614583 -38.440509801869105 0
v 136.92171725614583 -38.440509801869105 -0.1
v 133.70229345657975 -37.94769644010607 0
v 133.70229345657975 -37.94769644010607 -0.1
v 130.4499387858144 -36.43657184923765 0
v 130.4499387858144 -36.43657184923765 -0.1
v 127.75609497546405 -34.13691303079905 0
v 127.75609497546405 -34.13691303079905 -0.1
v 125.85070327081054 -31.18027922584084 0
v 125.85070327081054 -31.18027922584084 -0.1
v 124.13107124359544 -30.20491773647916 0
v 124.13107124359544 -30.20491773647916 -0.1
v 119.37202656312067 -32.01110621816821 0
v 119.37202656312067 -32.01110621816821 -0.1
v 112.40538168419336 -33.38722244930686 0
v 112.40538168419336 -33.38722244930686 -0.1
v 105.63090198882306 -33.59072045138131 0
v 105.63090198882306 -33.59072045138131 -0.1
v 102.58623353567121 -29.926853073434735 0
v 102.58623353567121 -29.926853073434735 -0.1
vt 98.66425710989573 -27.320797545658053 0
vt 93.99406829634775 -32.249013285161624 0
vt 94.01985456456865 -34.442242155784044 0
vt 93.95267887219703 -36.710858906109586 0
vt 101.25725525981534 -36.95722452605444 0
vt 111.11089459512978 -37.433695635027796 0
vt 120.14397217228122 -37.873376144756044 0
vt 126.82335473835282 -38.315520310683745 0
vt 133.68915395684937 -39.273554084775974 0
vt 135.6401233011927 -39.59013390640511 0
vt 137.36147988774738 -39.770309296458116 0
vt 138.974599845273 -39.65763808627 0
vt 141.63707310001703 -39.32676905868406 0
vt 148.53834896778565 -37.96075381796316 0
vt 154.30642510568123 -37.7418169037055 0
vt 166.86162770743763 -37.51269687715678 0
vt 176.05541779066644 -37.77458353115816 0
vt 184.54879041639202 -37.3326857308504 0
vt 183.94338796631416 -33.81967623418339 0
vt 183.37157336242217 -34.391490838075406 0
vt 182.67936809225043 -34.93324883633414 0
vt 182.07749688272514 -35.06866780543049 0
vt 181.49057185414318 -34.73763453409792 0
vt 181.32509627941357 -33.985233930786336 0
vt 181.31006797659694 -33.36825229657111 0
vt 181.79154851984248 -32.73624235953923 0
vt 182.5891161534773 -32.3450137550668 0
vt 183.6123546949816 -32.104232422507366 0
vt 182.35810732384238 -26.36325650280572 0
vt 182.44408892520312 -19.597317482260152 0
vt 180.40853405134538 -19.654720671707306 0
vt 180.46593724079256 -26.27727490144496 0
vt 177.74236531230218 -26.993952489864547 0
vt 177.54165945392043 -26.420577570379553 0
vt 174.10132781513715 -26.44923810416647 0
vt 174.07266728135022 -26.82198928714304 0
vt 168.42489968786106 -33.817212577983945 0
vt 162.75463070108358 -33.45464450729843 0
vt 155.96857182157584 -31.955920319300564 0
vt 151.56741426500764 -30.262238804053 0
vt 148.81411421837726 -32.297218824797504 0
vt 146.81009414387248 -34.793970139191984 0
vt 144.1490990828481 -36.89645433980138 0
vt 140.50255942017097 -38.17763768538794 0
vt 136.92171725614583 -38.440509801869105 0
vt 133.70229345657975 -37.94769644010607 0
vt 130.4499387858144 -36.43657184923765 0
vt 127.75609497546405 -34.13691303079905 0
vt 125.85070327081054 -31.18027922584084 0
vt 124.13107124359544 -30.20491773647916 0
vt 119.37202656312067 -32.01110621816821 0
vt 112.40538168419336 -33.38722244930686 0
vt 105.63090198882306 -33.59072045138131 0
vt 102.58623353567121 -29.926853073434735 0
vn 0 0 1
vn 0 0 -1
usemtl floor_67
s off
f 3/2/1 5/3/1 9/5/1
f 10/5/2 6/3/2 4/2/2
f 3/2/1 9/5/1 107/54/1
f 108/54/2 10/5/2 4/2/2
f 3/2/1 107/54/1 1/1/1
f 2/1/2 108/54/2 4/2/2
f 61/31/1 63/32/1 59/30/1
f 60/30/2 64/32/2 62/31/2
f 59/30/1 63/32/1 57/29/1
f 58/29/2 64/32/2 60/30/2
f 21/11/1 23/12/1 89/45/1
f 90/45/2 24/12/2 22/11/2
f 21/11/1 89/45/1 19/10/1
f 20/10/2 90/45/2 22/11/2
f 7/4/1 9/5/1 5/3/1
f 6/3/2 10/5/2 8/4/2
f 9/5/1 11/6/1 105/53/1
f 106/53/2 12/6/2 10/5/2
f 9/5/1 105/53/1 107/54/1
f 108/54/2 106/53/2 10/5/2
f 99/50/1 101/51/1 97/49/1
f 98/49/2 102/51/2 100/50/2
f 79/40/1 81/41/1 29/15/1
f 30/15/2 82/41/2 80/40/2
f 79/40/1 29/15/1 77/39/1
f 78/39/2 30/15/2 80/40/2
f 69/35/1 71/36/1 67/34/1
f 68/34/2 72/36/2 70/35/2
f 67/34/1 71/36/1 65/33/1
f 66/33/2 72/36/2 68/34/2
f 63/32/1 65/33/1 51/26/1
f 52/26/2 66/33/2 64/32/2
f 63/32/1 51/26/1 53/27/1
f 54/27/2 52/26/2 64/32/2
f 63/32/1 53/27/1 57/29/1
f 58/29/2 54/27/2 64/32/2
f 57/29/1 53/27/1 55/28/1
f 56/28/2 54/27/2 58/29/2
f 37/19/1 39/20/1 35/18/1
f 36/18/2 40/20/2 38/19/2
f 35/18/1 39/20/1 41/21/1
f 42/21/2 40/20/2 36/18/2
f 35/18/1 41/21/1 43/22/1
f 44/22/2 42/21/2 36/18/2
f 35/18/1 43/22/1 33/17/1
f 34/17/2 44/22/2 36/18/2
f 33/17/1 43/22/1 45/23/1
f 46/23/2 44/22/2 34/17/2
f 33/17/1 45/23/1 47/24/1
f 48/24/2 46/23/2 34/17/2
f 33/17/1 47/24/1 49/25/1
f 50/25/2 48/24/2 34/17/2
f 33/17/1 49/25/1 65/33/1
f 66/33/2 50/25/2 34/17/2
f 33/17/1 65/33/1 71/36/1
f 72/36/2 66/33/2 34/17/2
f 33/17/1 71/36/1 73/37/1
f 74/37/2 72/36/2 34/17/2
f 33/17/1 73/37/1 31/16/1
f 32/16/2 74/37/2 34/17/2
f 23/12/1 25/13/1 87/44/1
f 88/44/2 26/13/2 24/12/2
f 23/12/1 87/44/1 89/45/1
f 90/45/2 88/44/2 24/12/2
f 89/45/1 91/46/1 19/10/1
f 20/10/2 92/46/2 90/45/2
f 19/10/1 91/46/1 17/9/1
f 18/9/2 92/46/2 20/10/2
f 11/6/1 13/7/1 103/52/1
f 104/52/2 14/7/2 12/6/2
f 11/6/1 103/52/1 105/53/1
f 106/53/2 104/52/2 12/6/2
f 103/52/1 13/7/1 101/51/1
f 102/51/2 14/7/2 104/52/2
f 101/51/1 13/7/1 97/49/1
f 98/49/2 14/7/2 102/51/2
f 97/49/1 13/7/1 95/48/1
f 96/48/2 14/7/2 98/49/2
f 93/47/1 95/48/1 15/8/1
f 16/8/2 96/48/2 94/47/2
f 93/47/1 15/8/1 17/9/1
f 18/9/2 16/8/2 94/47/2
f 93/47/1 17/9/1 91/46/1
f 92/46/2 18/9/2 94/47/2
f 13/7/1 15/8/1 95/48/1
f 96/48/2 16/8/2 14/7/2
f 81/41/1 83/42/1 27/14/1
f 28/14/2 84/42/2 82/41/2
f 81/41/1 27/14/1 29/15/1
f 30/15/2 28/14/2 82/41/2
f 29/15/1 31/16/1 75/38/1
f 76/38/2 32/16/2 30/15/2
f 29/15/1 75/38/1 77/39/1
f 78/39/2 76/38/2 30/15/2
f 75/38/1 31/16/1 73/37/1
f 74/37/2 32/16/2 76/38/2
f 25/13/1 27/14/1 85/43/1
f 86/43/2 28/14/2 26/13/2
f 25/13/1 85/43/1 87/44/1
f 88/44/2 86/43/2 26/13/2
f 83/42/1 85/43/1 27/14/1
f 28/14/2 86/43/2 84/42/2
f 65/33/1 49/25/1 51/26/1
f 52/26/2 50/25/2 66/33/2
