# The Great Editor v0.0.1
mtllib floor_47.mtl
o floor_47
v 2.939306089688755 -37.08525252655245 0
v 2.939306089688755 -37.08525252655245 -0.1
v 2.989318310537561 -40.46514246657593 0
v 2.989318310537561 -40.46514246657593 -0.1
v 6.051971453945372 -41.36158483568194 0
v 6.051971453945372 -41.36158483568194 -0.1
v 9.774063240072248 -41.591690324710434 0
v 9.774063240072248 -41.591690324710434 -0.1
v 10.975834734163252 -36.68466202852212 0
v 10.975834734163252 -36.68466202852212 -0.1
v 12.953657931080551 -32.17822423036414 0
v 12.953657931080551 -32.17822423036414 -0.1
v 15.307024454667125 -28.42287308554471 0
v 15.307024454667125 -28.42287308554471 -0.1
v 14.030193568366256 -27.646739260845095 0
v 14.030193568366256 -27.646739260845095 -0.1
v 13.504449335403933 -26.36990837454423 0
v 13.504449335403933 -26.36990837454423 -0.1
v 9.774063240072248 -26.36990837454423 0
v 9.774063240072248 -26.36990837454423 -0.1
v 7.104691747969739 -31.362179175233464 0
v 7.104691747969739 -31.362179175233464 -0.1
vt 2.939306089688755 -37.08525252655245 0
vt 2.989318310537561 -40.46514246657593 0
vt 6.051971453945372 -41.36158483568194 0
vt 9.774063240072248 -41.591690324710434 0
vt 10.975834734163252 -36.68466202852212 0
vt 12.953657931080551 -32.17822423036414 0
vt 15.307024454667125 -28.42287308554471 0
vt 14.030193568366256 -27.646739260845095 0
vt 13.504449335403933 -26.36990837454423 0
vt 9.774063240072248 -26.36990837454423 0
vt 7.104691747969739 -31.362179175233464 0
vn 0 0 1
vn 0 0 -1
usemtl floor_47
s off
f 1/1/1 3/2/1 5/3/1
f 6/3/2 4/2/2 2/1/2
f 1/1/1 5/3/1 9/5/1
f 10/5/2 6/3/2 2/1/2
f 1/1/1 9/5/1 21/11/1
f 22/11/2 10/5/2 2/1/2
f 19/10/1 21/11/1 11/6/1
f 12/6/2 22/11/2 20/10/2
f 19/10/1 11/6/1 15/8/1
f 16/8/2 12/6/2 20/10/2
f 19/10/1 15/8/1 17/9/1
f 18/9/2 16/8/2 20/10/2
f 13/7/1 15/8/1 11/6/1
f 12/6/2 16/8/2 14/7/2
f 7/4/1 9/5/1 5/3/1
f 6/3/2 10/5/2 8/4/2
f 9/5/1 11/6/1 21/11/1
f 22/11/2 12/6/2 10/5/2
