# The Great Editor v0.0.1
mtllib floor_28.mtl
o floor_28
v 267.2203875513141 -23.632375727590308 0
v 267.2203875513141 -23.632375727590308 -0.1
v 259.7951741317961 -23.581542288008354 0
v 259.7951741317961 -23.581542288008354 -0.1
v 259.84600757137804 -26.378695414988925 0
v 259.84600757137804 -26.378695414988925 -0.1
v 259.33742680993856 -26.353319756134606 0
v 259.33742680993856 -26.353319756134606 -0.1
v 251.123843406597 -26.454986635298514 0
v 251.123843406597 -26.454986635298514 -0.1
v 250.89496974566825 -37.542014385930216 0
v 250.89496974566825 -37.542014385930216 -0.1
v 246.11432701251164 -37.49118094634826 0
v 246.11432701251164 -37.49118094634826 -0.1
v 246.0889513536573 -33.49882607514188 0
v 246.0889513536573 -33.49882607514188 -0.1
v 244.66487594850275 -33.52428385586951 0
v 244.66487594850275 -33.52428385586951 -0.1
v 244.715791509958 -37.414889726038666 0
v 244.715791509958 -37.414889726038666 -0.1
v 241.715140380903 -37.414889726038666 0
v 241.715140380903 -37.414889726038666 -0.1
v 241.68968260017536 -31.617085470003072 0
v 241.68968260017536 -31.617085470003072 -0.1
v 241.58801572101143 -25.76844777438552 0
v 241.58801572101143 -25.76844777438552 -0.1
v 233.8576374202551 -25.79382343323984 0
v 233.8576374202551 -25.79382343323984 -0.1
v 233.83217963952745 -24.11549870830217 0
v 233.83217963952745 -24.11549870830217 -0.1
v 240.62168763771442 -24.09012304944785 0
v 240.62168763771442 -24.09012304944785 -0.1
v 240.62168763771442 -18.521192454341023 0
v 240.62168763771442 -18.521192454341023 -0.1
v 237.34132940814865 -18.622859333504934 0
v 237.34132940814865 -18.622859333504934 -0.1
v 237.4685361899135 -14.147381481586692 0
v 237.4685361899135 -14.147381481586692 -0.1
v 240.67252107729638 -14.096548042004736 0
v 240.67252107729638 -14.096548042004736 -0.1
v 240.67252107729638 -14.834002464373002 0
v 240.67252107729638 -14.834002464373002 -0.1
v 251.123843406597 -14.859378123227325 0
v 251.123843406597 -14.859378123227325 -0.1
v 259.82054979065043 -14.884835903954958 0
v 259.82054979065043 -14.884835903954958 -0.1
v 259.84600757137804 -17.071741390332125 0
v 259.84600757137804 -17.071741390332125 -0.1
v 263.48236412176414 -17.148032610641717 0
v 263.48236412176414 -17.148032610641717 -0.1
vt 267.2203875513141 -23.632375727590308 0
vt 259.7951741317961 -23.581542288008354 0
vt 259.84600757137804 -26.378695414988925 0
vt 259.33742680993856 -26.353319756134606 0
vt 251.123843406597 -26.454986635298514 0
vt 250.89496974566825 -37.542014385930216 0
vt 246.11432701251164 -37.49118094634826 0
vt 246.0889513536573 -33.49882607514188 0
vt 244.66487594850275 -33.52428385586951 0
vt 244.715791509958 -37.414889726038666 0
vt 241.715140380903 -37.414889726038666 0
vt 241.68968260017536 -31.617085470003072 0
vt 241.58801572101143 -25.76844777438552 0
vt 233.8576374202551 -25.79382343323984 0
vt 233.83217963952745 -24.11549870830217 0
vt 240.62168763771442 -24.09012304944785 0
vt 240.62168763771442 -18.521192454341023 0
vt 237.34132940814865 -18.622859333504934 0
vt 237.4685361899135 -14.147381481586692 0
vt 240.67252107729638 -14.096548042004736 0
vt 240.67252107729638 -14.834002464373002 0
vt 251.123843406597 -14.859378123227325 0
vt 259.82054979065043 -14.884835903954958 0
vt 259.84600757137804 -17.071741390332125 0
vt 263.48236412176414 -17.148032610641717 0
vn 0 0 1
vn 0 0 -1
usemtl floor_28
s off
f 29/15/1 27/14/1 31/16/1
f 32/16/2 28/14/2 30/15/2
f 37/19/1 35/18/1 41/21/1
f 42/21/2 36/18/2 38/19/2
f 37/19/1 41/21/1 39/20/1
f 40/20/2 42/21/2 38/19/2
f 45/23/1 43/22/1 47/24/1
f 48/24/2 44/22/2 46/23/2
f 49/25/1 47/24/1 3/2/1
f 4/2/2 48/24/2 50/25/2
f 49/25/1 3/2/1 1/1/1
f 2/1/2 4/2/2 50/25/2
f 11/6/1 9/5/1 15/8/1
f 16/8/2 10/5/2 12/6/2
f 11/6/1 15/8/1 13/7/1
f 14/7/2 16/8/2 12/6/2
f 21/11/1 19/10/1 17/9/1
f 18/9/2 20/10/2 22/11/2
f 21/11/1 17/9/1 23/12/1
f 24/12/2 18/9/2 22/11/2
f 27/14/1 25/13/1 31/16/1
f 32/16/2 26/13/2 28/14/2
f 31/16/1 25/13/1 9/5/1
f 10/5/2 26/13/2 32/16/2
f 31/16/1 9/5/1 33/17/1
f 34/17/2 10/5/2 32/16/2
f 35/18/1 33/17/1 41/21/1
f 42/21/2 34/17/2 36/18/2
f 41/21/1 33/17/1 43/22/1
f 44/22/2 34/17/2 42/21/2
f 43/22/1 33/17/1 9/5/1
f 10/5/2 34/17/2 44/22/2
f 43/22/1 9/5/1 3/2/1
f 4/2/2 10/5/2 44/22/2
f 43/22/1 3/2/1 47/24/1
f 48/24/2 4/2/2 44/22/2
f 3/2/1 9/5/1 7/4/1
f 8/4/2 10/5/2 4/2/2
f 3/2/1 7/4/1 5/3/1
f 6/3/2 8/4/2 4/2/2
f 9/5/1 25/13/1 15/8/1
f 16/8/2 26/13/2 10/5/2
f 15/8/1 25/13/1 23/12/1
f 24/12/2 26/13/2 16/8/2
f 15/8/1 23/12/1 17/9/1
f 18/9/2 24/12/2 16/8/2
