# The Great Editor v0.0.1
mtllib floor_48.mtl
o floor_48
v 9.774063240072248 -26.36990837454423 0
v 9.774063240072248 -26.36990837454423 -0.1
v 13.504449335403933 -26.36990837454423 0
v 13.504449335403933 -26.36990837454423 -0.1
v 24.069510459245798 -26.36990837454423 0
v 24.069510459245798 -26.36990837454423 -0.1
v 23.99445106703593 -37.06020535519139 0
v 23.99445106703593 -37.06020535519139 -0.1
v 23.96940389567487 -37.38573646101186 0
v 23.96940389567487 -37.38573646101186 -0.1
v 28.976620877307425 -37.38573646101186 0
v 28.976620877307425 -37.38573646101186 -0.1
v 30.403652669901344 -37.38573646101186 0
v 30.403652669901344 -37.38573646101186 -0.1
v 33.533070896314214 -37.31059494692868 0
v 33.533070896314214 -37.31059494692868 -0.1
v 33.63325958175845 -31.877822417778045 0
v 33.63325958175845 -31.877822417778045 -0.1
v 33.63325958175845 -25.719010406649918 0
v 33.63325958175845 -25.719010406649918 -0.1
v 40.292768654487844 -25.719010406649918 0
v 40.292768654487844 -25.719010406649918 -0.1
v 40.3178158258489 -14.828418176987586 0
v 40.3178158258489 -14.828418176987586 -0.1
v 33.758413316690444 -14.778323834265464 0
v 33.758413316690444 -14.778323834265464 -0.1
v 12.753362682065385 -14.778323834265464 0
v 12.753362682065385 -14.778323834265464 -0.1
v 11.55159118797438 -21.387820686146046 0
v 11.55159118797438 -21.387820686146046 -0.1
vt 9.774063240072248 -26.36990837454423 0
vt 13.504449335403933 -26.36990837454423 0
vt 24.069510459245798 -26.36990837454423 0
vt 23.99445106703593 -37.06020535519139 0
vt 23.96940389567487 -37.38573646101186 0
vt 28.976620877307425 -37.38573646101186 0
vt 30.403652669901344 -37.38573646101186 0
vt 33.533070896314214 -37.31059494692868 0
vt 33.63325958175845 -31.877822417778045 0
vt 33.63325958175845 -25.719010406649918 0
vt 40.292768654487844 -25.719010406649918 0
vt 40.3178158258489 -14.828418176987586 0
vt 33.758413316690444 -14.778323834265464 0
vt 12.753362682065385 -14.778323834265464 0
vt 11.55159118797438 -21.387820686146046 0
vn 0 0 1
vn 0 0 -1
usemtl floor_48
s off
f 27/14/1 29/15/1 5/3/1
f 6/3/2 30/15/2 28/14/2
f 27/14/1 5/3/1 25/13/1
f 26/13/2 6/3/2 28/14/2
f 25/13/1 5/3/1 19/10/1
f 20/10/2 6/3/2 26/13/2
f 25/13/1 19/10/1 21/11/1
f 22/11/2 20/10/2 26/13/2
f 25/13/1 21/11/1 23/12/1
f 24/12/2 22/11/2 26/13/2
f 9/5/1 11/6/1 7/4/1
f 8/4/2 12/6/2 10/5/2
f 1/1/1 3/2/1 29/15/1
f 30/15/2 4/2/2 2/1/2
f 29/15/1 3/2/1 5/3/1
f 6/3/2 4/2/2 30/15/2
f 5/3/1 7/4/1 11/6/1
f 12/6/2 8/4/2 6/3/2
f 5/3/1 11/6/1 17/9/1
f 18/9/2 12/6/2 6/3/2
f 5/3/1 17/9/1 19/10/1
f 20/10/2 18/9/2 6/3/2
f 15/8/1 17/9/1 13/7/1
f 14/7/2 18/9/2 16/8/2
f 13/7/1 17/9/1 11/6/1
f 12/6/2 18/9/2 14/7/2
