# The Great Editor v0.0.1
mtllib floor_74.mtl
o floor_74
v 25.640009164520936 -49.140661407314056 0
v 25.640009164520936 -49.140661407314056 -0.1
v 25.62087476803855 -48.93823098959271 0
v 25.62087476803855 -48.93823098959271 -0.1
v 25.820102432700622 -48.83467530734255 0
v 25.820102432700622 -48.83467530734255 -0.1
v 26.067125027632002 -48.83467530734255 0
v 26.067125027632002 -48.83467530734255 -0.1
v 26.282284335717176 -48.81874366391945 0
v 26.282284335717176 -48.81874366391945 -0.1
v 26.465580356956146 -48.9222993461696 0
v 26.465580356956146 -48.9222993461696 -0.1
v 26.465580356956146 -49.08169790227392 0
v 26.465580356956146 -49.08169790227392 -0.1
v 26.513457409098766 -49.20915104965873 0
v 26.513457409098766 -49.20915104965873 -0.1
v 26.68870548675287 -49.3446521406284 0
v 26.68870548675287 -49.3446521406284 -0.1
v 26.64091055648357 -49.51201651844428 0
v 26.64091055648357 -49.51201651844428 -0.1
v 26.49744364380235 -49.7032783613948 0
v 26.49744364380235 -49.7032783613948 -0.1
v 26.234489405447874 -49.77497075679875 0
v 26.234489405447874 -49.77497075679875 -0.1
v 25.987466810516494 -49.74310746995255 0
v 25.987466810516494 -49.74310746995255 -0.1
v 25.780273324142875 -49.61557220069442 0
v 25.780273324142875 -49.61557220069442 -0.1
v 25.67671764189272 -49.44828994475188 0
v 25.67671764189272 -49.44828994475188 -0.1
v 25.558051534952615 -49.34095665632923 0
v 25.558051534952615 -49.34095665632923 -0.1
vt 25.640009164520936 -49.140661407314056 0
vt 25.62087476803855 -48.93823098959271 0
vt 25.820102432700622 -48.83467530734255 0
vt 26.067125027632002 -48.83467530734255 0
vt 26.282284335717176 -48.81874366391945 0
vt 26.465580356956146 -48.9222993461696 0
vt 26.465580356956146 -49.08169790227392 0
vt 26.513457409098766 -49.20915104965873 0
vt 26.68870548675287 -49.3446521406284 0
vt 26.64091055648357 -49.51201651844428 0
vt 26.49744364380235 -49.7032783613948 0
vt 26.234489405447874 -49.77497075679875 0
vt 25.987466810516494 -49.74310746995255 0
vt 25.780273324142875 -49.61557220069442 0
vt 25.67671764189272 -49.44828994475188 0
vt 25.558051534952615 -49.34095665632923 0
vn 0 0 1
vn 0 0 -1
usemtl floor_74
s off
f 3/2/1 1/1/1 5/3/1
f 6/3/2 2/1/2 4/2/2
f 5/3/1 1/1/1 7/4/1
f 8/4/2 2/1/2 6/3/2
f 9/5/1 7/4/1 13/7/1
f 14/7/2 8/4/2 10/5/2
f 9/5/1 13/7/1 11/6/1
f 12/6/2 14/7/2 10/5/2
f 17/9/1 15/8/1 19/10/1
f 20/10/2 16/8/2 18/9/2
f 23/12/1 21/11/1 15/8/1
f 16/8/2 22/11/2 24/12/2
f 23/12/1 15/8/1 25/13/1
f 26/13/2 16/8/2 24/12/2
f 25/13/1 15/8/1 27/14/1
f 28/14/2 16/8/2 26/13/2
f 27/14/1 15/8/1 29/15/1
f 30/15/2 16/8/2 28/14/2
f 31/16/1 29/15/1 1/1/1
f 2/1/2 30/15/2 32/16/2
f 1/1/1 29/15/1 7/4/1
f 8/4/2 30/15/2 2/1/2
f 7/4/1 29/15/1 13/7/1
f 14/7/2 30/15/2 8/4/2
f 13/7/1 29/15/1 15/8/1
f 16/8/2 30/15/2 14/7/2
f 15/8/1 21/11/1 19/10/1
f 20/10/2 22/11/2 16/8/2
