# The Great Editor v0.0.1
mtllib floor_24.mtl
o floor_24
v 183.37313367801514 -44.142313587999524 0
v 183.37313367801514 -44.142313587999524 -0.1
v 184.44096439672947 -41.2356098820168 0
v 184.44096439672947 -41.2356098820168 -0.1
v 187.37731409897887 -41.2652558782835 0
v 187.37731409897887 -41.2652558782835 -0.1
v 192.65692933439712 -41.4135679814903 0
v 192.65692933439712 -41.4135679814903 -0.1
v 198.0551285548822 -42.0067342724442 0
v 198.0551285548822 -42.0067342724442 -0.1
v 202.6822033849398 -42.74829478847822 0
v 202.6822033849398 -42.74829478847822 -0.1
v 206.33046760695655 -43.578793293312316 0
v 206.33046760695655 -43.578793293312316 -0.1
v 206.36011360322325 -48.650722311117065 0
v 206.36011360322325 -48.650722311117065 -0.1
v 206.00419740427625 -48.650722311117065 0
v 206.00419740427625 -48.650722311117065 -0.1
v 206.06357151868298 -51.17186382188608 0
v 206.06357151868298 -51.17186382188608 -0.1
v 197.7882324666086 -51.11257182935268 0
v 197.7882324666086 -51.11257182935268 -0.1
v 192.62728333813044 -51.11257182935268 0
v 192.62728333813044 -51.11257182935268 -0.1
v 187.37731409897887 -51.02355171867928 0
v 187.37731409897887 -51.02355171867928 -0.1
v 183.40277967428187 -51.14221782561938 0
v 183.40277967428187 -51.14221782561938 -0.1
vt 183.37313367801514 -44.142313587999524 0
vt 184.44096439672947 -41.2356098820168 0
vt 187.37731409897887 -41.2652558782835 0
vt 192.65692933439712 -41.4135679814903 0
vt 198.0551285548822 -42.0067342724442 0
vt 202.6822033849398 -42.74829478847822 0
vt 206.33046760695655 -43.578793293312316 0
vt 206.36011360322325 -48.650722311117065 0
vt 206.00419740427625 -48.650722311117065 0
vt 206.06357151868298 -51.17186382188608 0
vt 197.7882324666086 -51.11257182935268 0
vt 192.62728333813044 -51.11257182935268 0
vt 187.37731409897887 -51.02355171867928 0
vt 183.40277967428187 -51.14221782561938 0
vn 0 0 1
vn 0 0 -1
usemtl floor_24
s off
f 1/1/1 27/14/1 25/13/1
f 26/13/2 28/14/2 2/1/2
f 1/1/1 25/13/1 5/3/1
f 6/3/2 26/13/2 2/1/2
f 1/1/1 5/3/1 3/2/1
f 4/2/2 6/3/2 2/1/2
f 5/3/1 25/13/1 7/4/1
f 8/4/2 26/13/2 6/3/2
f 7/4/1 25/13/1 23/12/1
f 24/12/2 26/13/2 8/4/2
f 7/4/1 23/12/1 9/5/1
f 10/5/2 24/12/2 8/4/2
f 9/5/1 23/12/1 21/11/1
f 22/11/2 24/12/2 10/5/2
f 9/5/1 21/11/1 11/6/1
f 12/6/2 22/11/2 10/5/2
f 11/6/1 21/11/1 17/9/1
f 18/9/2 22/11/2 12/6/2
f 11/6/1 17/9/1 13/7/1
f 14/7/2 18/9/2 12/6/2
f 13/7/1 17/9/1 15/8/1
f 16/8/2 18/9/2 14/7/2
f 21/11/1 19/10/1 17/9/1
f 18/9/2 20/10/2 22/11/2
