# The Great Editor v0.0.1
mtllib floor_58.mtl
o floor_58
v 58.852394145540266 -20.902069805488107 0
v 58.852394145540266 -20.902069805488107 -0.1
v 59.84746488449753 -21.579657382209774 0
v 59.84746488449753 -21.579657382209774 -0.1
v 60.06549845814873 -22.611765086032086 0
v 60.06549845814873 -22.611765086032086 -0.1
v 62.612508359011954 -22.911592045504978 0
v 62.612508359011954 -22.911592045504978 -0.1
v 62.612508359011954 -20.175619714144045 0
v 62.612508359011954 -20.175619714144045 -0.1
v 62.62597634623561 -16.715250338271918 0
v 62.62597634623561 -16.715250338271918 -0.1
v 62.5320289231633 -12.249052258038267 0
v 62.5320289231633 -12.249052258038267 -0.1
v 59.0118748235179 -13.991842653528172 0
v 59.0118748235179 -13.991842653528172 -0.1
v 59.67197044122348 -15.183431035328123 0
v 59.67197044122348 -15.183431035328123 -0.1
v 59.65751699152005 -16.526452151520843 0
v 59.65751699152005 -16.526452151520843 -0.1
v 59.22711625347639 -17.757951763751862 0
v 59.22711625347639 -17.757951763751862 -0.1
vt 58.852394145540266 -20.902069805488107 0
vt 59.84746488449753 -21.579657382209774 0
vt 60.06549845814873 -22.611765086032086 0
vt 62.612508359011954 -22.911592045504978 0
vt 62.612508359011954 -20.175619714144045 0
vt 62.62597634623561 -16.715250338271918 0
vt 62.5320289231633 -12.249052258038267 0
vt 59.0118748235179 -13.991842653528172 0
vt 59.67197044122348 -15.183431035328123 0
vt 59.65751699152005 -16.526452151520843 0
vt 59.22711625347639 -17.757951763751862 0
vn 0 0 1
vn 0 0 -1
usemtl floor_58
s off
f 15/8/1 17/9/1 13/7/1
f 14/7/2 18/9/2 16/8/2
f 13/7/1 17/9/1 11/6/1
f 12/6/2 18/9/2 14/7/2
f 7/4/1 9/5/1 3/2/1
f 4/2/2 10/5/2 8/4/2
f 7/4/1 3/2/1 5/3/1
f 6/3/2 4/2/2 8/4/2
f 1/1/1 3/2/1 21/11/1
f 22/11/2 4/2/2 2/1/2
f 21/11/1 3/2/1 9/5/1
f 10/5/2 4/2/2 22/11/2
f 21/11/1 9/5/1 11/6/1
f 12/6/2 10/5/2 22/11/2
f 21/11/1 11/6/1 19/10/1
f 20/10/2 12/6/2 22/11/2
f 19/10/1 11/6/1 17/9/1
f 18/9/2 12/6/2 20/10/2
