# The Great Editor v0.0.1
mtllib floor_66.mtl
o floor_66
v 203.20482698671617 -40.01651067265634 0
v 203.20482698671617 -40.01651067265634 -0.1
v 202.6822033849398 -42.74829478847822 0
v 202.6822033849398 -42.74829478847822 -0.1
v 206.33046760695655 -43.578793293312316 0
v 206.33046760695655 -43.578793293312316 -0.1
v 207.93217262409138 -43.89019943692262 0
v 207.93217262409138 -43.89019943692262 -0.1
v 208.9198523944503 -40.90038839514517 0
v 208.9198523944503 -40.90038839514517 -0.1
v 214.3121388400567 -41.56779285957578 0
v 214.3121388400567 -41.56779285957578 -0.1
v 219.49090841504417 -42.555472629934705 0
v 219.49090841504417 -42.555472629934705 -0.1
v 224.6429883812043 -44.05033708988678 0
v 224.6429883812043 -44.05033708988678 -0.1
v 230.96957537951485 -46.26598523192417 0
v 230.96957537951485 -46.26598523192417 -0.1
v 230.94288577068752 -44.77112077197211 0
v 230.94288577068752 -44.77112077197211 -0.1
v 237.16271433368865 -45.65204210702159 0
v 237.16271433368865 -45.65204210702159 -0.1
v 243.6495211068367 -46.746480312689954 0
v 243.6495211068367 -46.746480312689954 -0.1
v 242.902047815924 -50.430385427725376 0
v 242.902047815924 -50.430385427725376 -0.1
v 242.15457452501133 -50.40369581889802 0
v 242.15457452501133 -50.40369581889802 -0.1
v 242.15457452501133 -53.34004552114744 0
v 242.15457452501133 -53.34004552114744 -0.1
v 242.15457452501133 -56.436614998234326 0
v 242.15457452501133 -56.436614998234326 -0.1
v 241.43387296479926 -56.51676594658972 0
v 241.43387296479926 -56.51676594658972 -0.1
v 241.40718335597194 -58.54550470496228 0
v 241.40718335597194 -58.54550470496228 -0.1
v 242.15457452501133 -58.572194313789645 0
v 242.15457452501133 -58.572194313789645 -0.1
v 242.16262246859617 -59.61333542367661 0
v 242.16262246859617 -59.61333542367661 -0.1
v 251.0759663544544 -59.637315010684574 0
v 251.0759663544544 -59.637315010684574 -0.1
v 251.07062843268895 -62.06919004516024 0
v 251.07062843268895 -62.06919004516024 -0.1
v 268.6089041853233 -62.14925887164232 0
v 268.6089041853233 -62.14925887164232 -0.1
v 268.64774783140126 -59.78546287014475 0
v 268.64774783140126 -59.78546287014475 -0.1
v 268.6274637286925 -55.91604444329084 0
v 268.6274637286925 -55.91604444329084 -0.1
v 266.3203318197822 -55.91604444329084 0
v 266.3203318197822 -55.91604444329084 -0.1
v 266.3679625063049 -57.5097015168408 0
v 266.3679625063049 -57.5097015168408 -0.1
v 258.994650110722 -57.5097015168408 0
v 258.994650110722 -57.5097015168408 -0.1
v 258.92328620281125 -56.320412547493675 0
v 258.92328620281125 -56.320412547493675 -0.1
v 255.56959314037528 -56.39177645540436 0
v 255.56959314037528 -56.39177645540436 -0.1
v 255.56959314037528 -54.51274587208495 0
v 255.56959314037528 -54.51274587208495 -0.1
v 255.30934892384016 -54.483838972678086 0
v 255.30934892384016 -54.483838972678086 -0.1
v 253.2382352788371 -54.49591088805538 0
v 253.2382352788371 -54.49591088805538 -0.1
v 253.2141735699558 -52.982404762860824 0
v 253.2141735699558 -52.982404762860824 -0.1
v 251.05190464557313 -52.982404762860824 0
v 251.05190464557313 -52.982404762860824 -0.1
v 246.19883042015275 -52.95834305397954 0
v 246.19883042015275 -52.95834305397954 -0.1
v 246.17485083314477 -51.66098169934993 0
v 246.17485083314477 -51.66098169934993 -0.1
v 245.71833533938695 -51.63700211234197 0
v 245.71833533938695 -51.63700211234197 -0.1
v 246.65534591391054 -47.21638167179812 0
v 246.65534591391054 -47.21638167179812 -0.1
v 255.50085713241063 -49.42751311080319 0
v 255.50085713241063 -49.42751311080319 -0.1
v 268.723546320471 -53.44655759083693 0
v 268.723546320471 -53.44655759083693 -0.1
v 272.7392238036988 -51.15355064413685 0
v 272.7392238036988 -51.15355064413685 -0.1
v 277.57390272949664 -49.66804807774268 0
v 277.57390272949664 -49.66804807774268 -0.1
v 282.03279196300525 -49.05221614975385 0
v 282.03279196300525 -49.05221614975385 -0.1
v 281.99903987307283 -45.74500406761412 0
v 281.99903987307283 -45.74500406761412 -0.1
v 275.6802544527272 -47.00606755423852 0
v 275.6802544527272 -47.00606755423852 -0.1
v 266.78752315707095 -47.62945469457232 0
v 266.78752315707095 -47.62945469457232 -0.1
v 254.8360805679261 -45.82605835657598 0
v 254.8360805679261 -45.82605835657598 -0.1
v 240.3859157394272 -43.73137573393151 0
v 240.3859157394272 -43.73137573393151 -0.1
v 232.056129885345 -42.14395992275348 0
v 232.056129885345 -42.14395992275348 -0.1
v 223.03906607348998 -40.605652991817806 0
v 223.03906607348998 -40.605652991817806 -0.1
v 212.8600598761017 -39.55835274143222 0
v 212.8600598761017 -39.55835274143222 -0.1
v 263.0768274848947 -51.73023394111236 0
v 263.0768274848947 -51.73023394111236 -0.1
v 266.49770267940204 -52.77001105239647 0
v 266.49770267940204 -52.77001105239647 -0.1
vt 203.20482698671617 -40.01651067265634 0
vt 202.6822033849398 -42.74829478847822 0
vt 206.33046760695655 -43.578793293312316 0
vt 207.93217262409138 -43.89019943692262 0
vt 208.9198523944503 -40.90038839514517 0
vt 214.3121388400567 -41.56779285957578 0
vt 219.49090841504417 -42.555472629934705 0
vt 224.6429883812043 -44.05033708988678 0
vt 230.96957537951485 -46.26598523192417 0
vt 230.94288577068752 -44.77112077197211 0
vt 237.16271433368865 -45.65204210702159 0
vt 243.6495211068367 -46.746480312689954 0
vt 242.902047815924 -50.430385427725376 0
vt 242.15457452501133 -50.40369581889802 0
vt 242.15457452501133 -53.34004552114744 0
vt 242.15457452501133 -56.436614998234326 0
vt 241.43387296479926 -56.51676594658972 0
vt 241.40718335597194 -58.54550470496228 0
vt 242.15457452501133 -58.572194313789645 0
vt 242.16262246859617 -59.61333542367661 0
vt 251.0759663544544 -59.637315010684574 0
vt 251.07062843268895 -62.06919004516024 0
vt 268.6089041853233 -62.14925887164232 0
vt 268.64774783140126 -59.78546287014475 0
vt 268.6274637286925 -55.91604444329084 0
vt 266.3203318197822 -55.91604444329084 0
vt 266.3679625063049 -57.5097015168408 0
vt 258.994650110722 -57.5097015168408 0
vt 258.92328620281125 -56.320412547493675 0
vt 255.56959314037528 -56.39177645540436 0
vt 255.56959314037528 -54.51274587208495 0
vt 255.30934892384016 -54.483838972678086 0
vt 253.2382352788371 -54.49591088805538 0
vt 253.2141735699558 -52.982404762860824 0
vt 251.05190464557313 -52.982404762860824 0
vt 246.19883042015275 -52.95834305397954 0
vt 246.17485083314477 -51.66098169934993 0
vt 245.71833533938695 -51.63700211234197 0
vt 246.65534591391054 -47.21638167179812 0
vt 255.50085713241063 -49.42751311080319 0
vt 268.723546320471 -53.44655759083693 0
vt 272.7392238036988 -51.15355064413685 0
vt 277.57390272949664 -49.66804807774268 0
vt 282.03279196300525 -49.05221614975385 0
vt 281.99903987307283 -45.74500406761412 0
vt 275.6802544527272 -47.00606755423852 0
vt 266.78752315707095 -47.62945469457232 0
vt 254.8360805679261 -45.82605835657598 0
vt 240.3859157394272 -43.73137573393151 0
vt 232.056129885345 -42.14395992275348 0
vt 223.03906607348998 -40.605652991817806 0
vt 212.8600598761017 -39.55835274143222 0
vt 263.0768274848947 -51.73023394111236 0
vt 266.49770267940204 -52.77001105239647 0
vn 0 0 1
vn 0 0 -1
usemtl floor_66
s off
f 1/1/1 3/2/1 5/3/1
f 6/3/2 4/2/2 2/1/2
f 1/1/1 5/3/1 9/5/1
f 10/5/2 6/3/2 2/1/2
f 1/1/1 9/5/1 103/52/1
f 104/52/2 10/5/2 2/1/2
f 103/52/1 9/5/1 11/6/1
f 12/6/2 10/5/2 104/52/2
f 103/52/1 11/6/1 13/7/1
f 14/7/2 12/6/2 104/52/2
f 103/52/1 13/7/1 101/51/1
f 102/51/2 14/7/2 104/52/2
f 101/51/1 13/7/1 15/8/1
f 16/8/2 14/7/2 102/51/2
f 101/51/1 15/8/1 99/50/1
f 100/50/2 16/8/2 102/51/2
f 89/45/1 91/46/1 85/43/1
f 86/43/2 92/46/2 90/45/2
f 89/45/1 85/43/1 87/44/1
f 88/44/2 86/43/2 90/45/2
f 43/22/1 45/23/1 55/28/1
f 56/28/2 46/23/2 44/22/2
f 43/22/1 55/28/1 59/30/1
f 60/30/2 56/28/2 44/22/2
f 43/22/1 59/30/1 41/21/1
f 42/21/2 60/30/2 44/22/2
f 39/20/1 41/21/1 37/19/1
f 38/19/2 42/21/2 40/20/2
f 5/3/1 7/4/1 9/5/1
f 10/5/2 8/4/2 6/3/2
f 15/8/1 17/9/1 19/10/1
f 20/10/2 18/9/2 16/8/2
f 15/8/1 19/10/1 99/50/1
f 100/50/2 20/10/2 16/8/2
f 99/50/1 19/10/1 21/11/1
f 22/11/2 20/10/2 100/50/2
f 99/50/1 21/11/1 97/49/1
f 98/49/2 22/11/2 100/50/2
f 97/49/1 21/11/1 23/12/1
f 24/12/2 22/11/2 98/49/2
f 97/49/1 23/12/1 77/39/1
f 78/39/2 24/12/2 98/49/2
f 97/49/1 77/39/1 95/48/1
f 96/48/2 78/39/2 98/49/2
f 95/48/1 77/39/1 79/40/1
f 80/40/2 78/39/2 96/48/2
f 95/48/1 79/40/1 93/47/1
f 94/47/2 80/40/2 96/48/2
f 91/46/1 93/47/1 83/42/1
f 84/42/2 94/47/2 92/46/2
f 91/46/1 83/42/1 85/43/1
f 86/43/2 84/42/2 92/46/2
f 45/23/1 47/24/1 53/27/1
f 54/27/2 48/24/2 46/23/2
f 45/23/1 53/27/1 55/28/1
f 56/28/2 54/27/2 46/23/2
f 55/28/1 57/29/1 59/30/1
f 60/30/2 58/29/2 56/28/2
f 59/30/1 61/31/1 63/32/1
f 64/32/2 62/31/2 60/30/2
f 59/30/1 63/32/1 65/33/1
f 66/33/2 64/32/2 60/30/2
f 59/30/1 65/33/1 41/21/1
f 42/21/2 66/33/2 60/30/2
f 41/21/1 65/33/1 69/35/1
f 70/35/2 66/33/2 42/21/2
f 41/21/1 69/35/1 71/36/1
f 72/36/2 70/35/2 42/21/2
f 41/21/1 71/36/1 37/19/1
f 38/19/2 72/36/2 42/21/2
f 37/19/1 71/36/1 31/16/1
f 32/16/2 72/36/2 38/19/2
f 37/19/1 31/16/1 33/17/1
f 34/17/2 32/16/2 38/19/2
f 37/19/1 33/17/1 35/18/1
f 36/18/2 34/17/2 38/19/2
f 23/12/1 25/13/1 77/39/1
f 78/39/2 26/13/2 24/12/2
f 77/39/1 25/13/1 75/38/1
f 76/38/2 26/13/2 78/39/2
f 79/40/1 105/53/1 93/47/1
f 94/47/2 106/53/2 80/40/2
f 105/53/1 107/54/1 93/47/1
f 94/47/2 108/54/2 106/53/2
f 107/54/1 81/41/1 93/47/1
f 94/47/2 82/41/2 108/54/2
f 93/47/1 81/41/1 83/42/1
f 84/42/2 82/41/2 94/47/2
f 47/24/1 49/25/1 53/27/1
f 54/27/2 50/25/2 48/24/2
f 53/27/1 49/25/1 51/26/1
f 52/26/2 50/25/2 54/27/2
f 65/33/1 67/34/1 69/35/1
f 70/35/2 68/34/2 66/33/2
f 71/36/1 73/37/1 75/38/1
f 76/38/2 74/37/2 72/36/2
f 71/36/1 75/38/1 29/15/1
f 30/15/2 76/38/2 72/36/2
f 71/36/1 29/15/1 31/16/1
f 32/16/2 30/15/2 72/36/2
f 29/15/1 75/38/1 25/13/1
f 26/13/2 76/38/2 30/15/2
f 29/15/1 25/13/1 27/14/1
f 28/14/2 26/13/2 30/15/2
